Geologisk-BlackCutItalic.ufo
<glyph name="exclam" format="2">
  <advance width="728"/>
  <unicode hex="0021"/>
  <outline>
    <contour>
      <point x="198" y="536" type="line"/>
      <point x="538" y="536" type="line"/>
      <point x="782" y="1400" type="line"/>
      <point x="322" y="1400" type="line"/>
    </contour>
    <contour>
      <point x="276" y="-30" type="curve" smooth="yes"/>
      <point x="408" y="-30"/>
      <point x="532" y="64"/>
      <point x="532" y="222" type="curve" smooth="yes"/>
      <point x="532" y="342"/>
      <point x="434" y="416"/>
      <point x="316" y="416" type="curve" smooth="yes"/>
      <point x="184" y="416"/>
      <point x="58" y="324"/>
      <point x="58" y="166" type="curve" smooth="yes"/>
      <point x="58" y="46"/>
      <point x="154" y="-30"/>
    </contour>
  </outline>
</glyph>
<glyph name="quotesingle" format="2">
  <advance width="516"/>
  <unicode hex="0027"/>
  <outline>
    <contour>
      <point x="159" y="702" type="line"/>
      <point x="439" y="702" type="line"/>
      <point x="625" y="1400" type="line"/>
      <point x="265" y="1400" type="line"/>
    </contour>
  </outline>
</glyph>
<glyph name="parenleft" format="2">
  <advance width="756"/>
  <unicode hex="0028"/>
  <guideline x="82" y="-215" angle="198.3332"/>
  <guideline x="271" y="705" angle="338.8831"/>
  <outline>
    <contour>
      <point x="164" y="-430" type="curve"/>
      <point x="488" y="-322" type="line"/>
      <point x="436" y="-180"/>
      <point x="412" y="-22"/>
      <point x="412" y="142" type="curve" smooth="yes"/>
      <point x="412" y="558"/>
      <point x="574" y="998"/>
      <point x="850" y="1292" type="curve"/>
      <point x="542" y="1410" type="line"/>
      <point x="238" y="1048"/>
      <point x="62" y="616"/>
      <point x="62" y="158" type="curve" smooth="yes"/>
      <point x="62" y="-40"/>
      <point x="94" y="-236"/>
    </contour>
  </outline>
</glyph>
<glyph name="parenright" format="2">
  <advance width="758"/>
  <unicode hex="0029"/>
  <outline>
    <contour>
      <point x="202" y="-430" type="line"/>
      <point x="506" y="-68"/>
      <point x="682" y="364"/>
      <point x="682" y="822" type="curve" smooth="yes"/>
      <point x="682" y="1020"/>
      <point x="650" y="1216"/>
      <point x="580" y="1410" type="curve"/>
      <point x="256" y="1302" type="line"/>
      <point x="308" y="1160"/>
      <point x="332" y="1002"/>
      <point x="332" y="838" type="curve" smooth="yes"/>
      <point x="332" y="422"/>
      <point x="170" y="-18"/>
      <point x="-106" y="-312" type="curve"/>
    </contour>
  </outline>
</glyph>
<glyph name="comma" format="2">
  <advance width="609"/>
  <unicode hex="002C"/>
  <outline>
    <contour>
      <point x="-162" y="-396" type="line"/>
      <point x="185" y="-370"/>
      <point x="479" y="-161"/>
      <point x="479" y="156" type="curve" smooth="yes"/>
      <point x="479" y="313"/>
      <point x="377" y="417"/>
      <point x="223" y="417" type="curve" smooth="yes"/>
      <point x="85" y="417"/>
      <point x="-21" y="313"/>
      <point x="-21" y="180" type="curve" smooth="yes"/>
      <point x="-21" y="63"/>
      <point x="85" y="-20"/>
      <point x="202" y="-7" type="curve"/>
      <point x="157" y="-112"/>
      <point x="30" y="-182"/>
      <point x="-119" y="-188" type="curve"/>
    </contour>
  </outline>
</glyph>
<glyph name="slash" format="2">
  <advance width="904"/>
  <unicode hex="002F"/>
  <guideline x="534" y="1305" angle="329.0867"/>
  <guideline x="176" y="385" angle="329.0867"/>
  <outline>
    <contour>
      <point x="138" y="-220" type="line"/>
      <point x="1227" y="1600" type="line"/>
      <point x="842" y="1600" type="line"/>
      <point x="-247" y="-220" type="line"/>
    </contour>
  </outline>
</glyph>
<glyph name="one" format="2">
  <advance width="954"/>
  <unicode hex="0031"/>
  <guideline x="107" y="429" angle="106.9719"/>
  <guideline x="107" y="429" angle="77.9052"/>
  <outline>
    <contour>
      <point x="318" y="0" type="line"/>
      <point x="686" y="0" type="line"/>
      <point x="990" y="1430" type="line"/>
      <point x="962" y="1430" type="line"/>
      <point x="292" y="1220" type="line"/>
      <point x="214" y="858" type="line"/>
      <point x="522" y="952" type="line"/>
    </contour>
  </outline>
</glyph>
<glyph name="six" format="2">
  <advance width="1318"/>
  <unicode hex="0036"/>
  <guideline x="602" y="715" angle="78.0016"/>
  <outline>
    <contour>
      <point x="662" y="-30" type="curve" smooth="yes"/>
      <point x="990" y="-30"/>
      <point x="1250" y="202"/>
      <point x="1250" y="520" type="curve" smooth="yes"/>
      <point x="1250" y="773"/>
      <point x="1073" y="924"/>
      <point x="816" y="924" type="curve" smooth="yes"/>
      <point x="721" y="924"/>
      <point x="642" y="895"/>
      <point x="573" y="847" type="curve"/>
      <point x="666" y="1051"/>
      <point x="961" y="1111"/>
      <point x="1241" y="1092" type="curve"/>
      <point x="1309" y="1418" type="line"/>
      <point x="673" y="1504"/>
      <point x="127" y="1104"/>
      <point x="127" y="495" type="curve" smooth="yes"/>
      <point x="127" y="166"/>
      <point x="337" y="-30"/>
    </contour>
    <contour>
      <point x="672" y="286" type="curve" smooth="yes"/>
      <point x="568" y="286"/>
      <point x="496" y="352"/>
      <point x="496" y="438" type="curve" smooth="yes"/>
      <point x="496" y="544"/>
      <point x="588" y="618"/>
      <point x="698" y="618" type="curve" smooth="yes"/>
      <point x="802" y="618"/>
      <point x="872" y="552"/>
      <point x="872" y="468" type="curve" smooth="yes"/>
      <point x="872" y="360"/>
      <point x="782" y="286"/>
    </contour>
  </outline>
</glyph>
<glyph name="eight" format="2">
  <advance width="1267"/>
  <unicode hex="0038"/>
  <outline>
    <contour>
      <point x="565" y="-30" type="curve" smooth="yes"/>
      <point x="913" y="-30"/>
      <point x="1159" y="160"/>
      <point x="1159" y="428" type="curve" smooth="yes"/>
      <point x="1159" y="552"/>
      <point x="1095" y="660"/>
      <point x="983" y="726" type="curve"/>
      <point x="1139" y="772"/>
      <point x="1251" y="918"/>
      <point x="1251" y="1076" type="curve" smooth="yes"/>
      <point x="1251" y="1284"/>
      <point x="1061" y="1430"/>
      <point x="787" y="1430" type="curve" smooth="yes"/>
      <point x="481" y="1430"/>
      <point x="249" y="1254"/>
      <point x="249" y="1020" type="curve" smooth="yes"/>
      <point x="249" y="920"/>
      <point x="301" y="826"/>
      <point x="387" y="772" type="curve"/>
      <point x="181" y="712"/>
      <point x="53" y="550"/>
      <point x="53" y="354" type="curve" smooth="yes"/>
      <point x="53" y="122"/>
      <point x="257" y="-30"/>
    </contour>
    <contour>
      <point x="599" y="286" type="curve" smooth="yes"/>
      <point x="503" y="286"/>
      <point x="433" y="346"/>
      <point x="433" y="430" type="curve" smooth="yes"/>
      <point x="433" y="530"/>
      <point x="517" y="608"/>
      <point x="627" y="608" type="curve" smooth="yes"/>
      <point x="731" y="608"/>
      <point x="797" y="554"/>
      <point x="797" y="468" type="curve" smooth="yes"/>
      <point x="797" y="364"/>
      <point x="713" y="286"/>
    </contour>
    <contour>
      <point x="735" y="858" type="curve" smooth="yes"/>
      <point x="641" y="858"/>
      <point x="577" y="912"/>
      <point x="577" y="988" type="curve" smooth="yes"/>
      <point x="577" y="1078"/>
      <point x="655" y="1148"/>
      <point x="757" y="1148" type="curve" smooth="yes"/>
      <point x="845" y="1148"/>
      <point x="909" y="1094"/>
      <point x="909" y="1020" type="curve" smooth="yes"/>
      <point x="909" y="928"/>
      <point x="833" y="858"/>
    </contour>
  </outline>
</glyph>
<glyph name="nine" format="2">
  <advance width="1296"/>
  <unicode hex="0039"/>
  <guideline x="72" y="-15" angle="78.0016"/>
  <outline>
    <contour>
      <point x="66" y="-18" type="line"/>
      <point x="702" y="-105"/>
      <point x="1248" y="300"/>
      <point x="1248" y="917" type="curve" smooth="yes"/>
      <point x="1248" y="1238"/>
      <point x="1038" y="1430"/>
      <point x="713" y="1430" type="curve" smooth="yes"/>
      <point x="392" y="1430"/>
      <point x="149" y="1215"/>
      <point x="149" y="904" type="curve" smooth="yes"/>
      <point x="149" y="651"/>
      <point x="321" y="500"/>
      <point x="571" y="500" type="curve" smooth="yes"/>
      <point x="661" y="500"/>
      <point x="737" y="529"/>
      <point x="802" y="577" type="curve"/>
      <point x="709" y="353"/>
      <point x="414" y="287"/>
      <point x="134" y="308" type="curve"/>
    </contour>
    <contour>
      <point x="689" y="806" type="curve" smooth="yes"/>
      <point x="592" y="806"/>
      <point x="527" y="866"/>
      <point x="527" y="944" type="curve" smooth="yes"/>
      <point x="527" y="1045"/>
      <point x="612" y="1114"/>
      <point x="715" y="1114" type="curve" smooth="yes"/>
      <point x="812" y="1114"/>
      <point x="879" y="1053"/>
      <point x="879" y="974" type="curve" smooth="yes"/>
      <point x="879" y="875"/>
      <point x="793" y="806"/>
    </contour>
  </outline>
</glyph>
<glyph name="colon" format="2">
  <advance width="677"/>
  <unicode hex="003A"/>
  <outline>
    <contour>
      <point x="390" y="634" type="curve" smooth="yes"/>
      <point x="522" y="634"/>
      <point x="648" y="728"/>
      <point x="648" y="884" type="curve" smooth="yes"/>
      <point x="648" y="1006"/>
      <point x="550" y="1080"/>
      <point x="428" y="1080" type="curve" smooth="yes"/>
      <point x="282" y="1080"/>
      <point x="172" y="968"/>
      <point x="172" y="830" type="curve" smooth="yes"/>
      <point x="172" y="710"/>
      <point x="270" y="634"/>
    </contour>
    <contour>
      <point x="250" y="-30" type="curve" smooth="yes"/>
      <point x="382" y="-30"/>
      <point x="506" y="64"/>
      <point x="506" y="222" type="curve" smooth="yes"/>
      <point x="506" y="342"/>
      <point x="408" y="416"/>
      <point x="290" y="416" type="curve" smooth="yes"/>
      <point x="158" y="416"/>
      <point x="32" y="324"/>
      <point x="32" y="166" type="curve" smooth="yes"/>
      <point x="32" y="46"/>
      <point x="128" y="-30"/>
    </contour>
  </outline>
</glyph>
<glyph name="semicolon" format="2">
  <advance width="677"/>
  <unicode hex="003B"/>
  <outline>
    <contour>
      <point x="390" y="634" type="curve" smooth="yes"/>
      <point x="522" y="634"/>
      <point x="648" y="728"/>
      <point x="648" y="884" type="curve" smooth="yes"/>
      <point x="648" y="1006"/>
      <point x="550" y="1080"/>
      <point x="428" y="1080" type="curve" smooth="yes"/>
      <point x="282" y="1080"/>
      <point x="172" y="968"/>
      <point x="172" y="830" type="curve" smooth="yes"/>
      <point x="172" y="710"/>
      <point x="270" y="634"/>
    </contour>
    <contour>
      <point x="-121" y="-396" type="line"/>
      <point x="226" y="-370"/>
      <point x="520" y="-161"/>
      <point x="520" y="156" type="curve" smooth="yes"/>
      <point x="520" y="313"/>
      <point x="418" y="417"/>
      <point x="264" y="417" type="curve" smooth="yes"/>
      <point x="126" y="417"/>
      <point x="20" y="313"/>
      <point x="20" y="180" type="curve" smooth="yes"/>
      <point x="20" y="63"/>
      <point x="126" y="-20"/>
      <point x="243" y="-7" type="curve"/>
      <point x="198" y="-112"/>
      <point x="71" y="-182"/>
      <point x="-78" y="-188" type="curve"/>
    </contour>
  </outline>
</glyph>
<glyph name="greater" format="2">
  <advance width="1297"/>
  <unicode hex="003E"/>
  <guideline x="42" y="465" angle="68.4372"/>
  <guideline x="112" y="528" angle="67.035"/>
  <guideline x="23" y="99" angle="110.3205"/>
  <outline>
    <contour>
      <point x="-33" y="31" type="line"/>
      <point x="1223" y="494" type="line"/>
      <point x="1279" y="764" type="line"/>
      <point x="216" y="1214" type="line"/>
      <point x="158" y="941" type="line"/>
      <point x="835" y="646" type="line"/>
      <point x="32" y="343" type="line"/>
    </contour>
  </outline>
</glyph>
<glyph name="at" format="2">
  <advance width="1718"/>
  <unicode hex="0040"/>
  <guideline x="509" y="264" angle="86.6499"/>
  <outline>
    <contour>
      <point x="877" y="-234" type="curve" smooth="yes"/>
      <point x="1081" y="-234"/>
      <point x="1279" y="-174"/>
      <point x="1439" y="-64" type="curve"/>
      <point x="1359" y="116" type="line"/>
      <point x="1221" y="14"/>
      <point x="1053" y="-40"/>
      <point x="873" y="-40" type="curve" smooth="yes"/>
      <point x="531" y="-40"/>
      <point x="299" y="170"/>
      <point x="299" y="480" type="curve" smooth="yes"/>
      <point x="299" y="810"/>
      <point x="551" y="1054"/>
      <point x="889" y="1054" type="curve" smooth="yes"/>
      <point x="1211" y="1054"/>
      <point x="1431" y="860"/>
      <point x="1431" y="576" type="curve" smooth="yes"/>
      <point x="1431" y="428"/>
      <point x="1379" y="346"/>
      <point x="1285" y="346" type="curve" smooth="yes"/>
      <point x="1225" y="346"/>
      <point x="1195" y="382"/>
      <point x="1199" y="450" type="curve" smooth="yes"/>
      <point x="1221" y="840" type="line"/>
      <point x="1035" y="840" type="line"/>
      <point x="1033" y="788" type="line"/>
      <point x="967" y="842"/>
      <point x="901" y="866"/>
      <point x="823" y="866" type="curve" smooth="yes"/>
      <point x="613" y="866"/>
      <point x="461" y="708"/>
      <point x="461" y="492" type="curve" smooth="yes"/>
      <point x="461" y="292"/>
      <point x="597" y="154"/>
      <point x="795" y="154" type="curve" smooth="yes"/>
      <point x="893" y="154"/>
      <point x="965" y="186"/>
      <point x="1039" y="262" type="curve"/>
      <point x="1083" y="192"/>
      <point x="1161" y="154"/>
      <point x="1265" y="154" type="curve" smooth="yes"/>
      <point x="1471" y="154"/>
      <point x="1639" y="344"/>
      <point x="1639" y="576" type="curve" smooth="yes"/>
      <point x="1639" y="970"/>
      <point x="1335" y="1242"/>
      <point x="895" y="1242" type="curve" smooth="yes"/>
      <point x="433" y="1242"/>
      <point x="91" y="920"/>
      <point x="91" y="486" type="curve" smooth="yes"/>
      <point x="91" y="60"/>
      <point x="413" y="-234"/>
    </contour>
    <contour>
      <point x="821" y="366" type="curve" smooth="yes"/>
      <point x="751" y="366"/>
      <point x="709" y="412"/>
      <point x="709" y="490" type="curve" smooth="yes"/>
      <point x="709" y="588"/>
      <point x="765" y="652"/>
      <point x="849" y="652" type="curve" smooth="yes"/>
      <point x="921" y="652"/>
      <point x="963" y="606"/>
      <point x="963" y="528" type="curve" smooth="yes"/>
      <point x="963" y="428"/>
      <point x="907" y="366"/>
    </contour>
  </outline>
</glyph>
<glyph name="C" format="2">
  <advance width="1320"/>
  <unicode hex="0043"/>
  <guideline x="619" y="451" angle="78.0016"/>
  <guideline x="57" y="224" angle="78.0016"/>
  <guideline x="57" y="224" angle="78.0016"/>
  <anchor x="703" y="0" name="bottom"/>
  <anchor x="929" y="1400" name="top"/>
  <outline>
    <contour>
      <point x="805" y="-30" type="curve" smooth="yes"/>
      <point x="929" y="-30"/>
      <point x="1041" y="-10"/>
      <point x="1135" y="24" type="curve"/>
      <point x="1229" y="454" type="line"/>
      <point x="1109" y="390"/>
      <point x="979" y="364"/>
      <point x="865" y="364" type="curve" smooth="yes"/>
      <point x="659" y="364"/>
      <point x="545" y="470"/>
      <point x="545" y="642" type="curve" smooth="yes"/>
      <point x="545" y="868"/>
      <point x="683" y="1036"/>
      <point x="911" y="1036" type="curve" smooth="yes"/>
      <point x="1065" y="1036"/>
      <point x="1187" y="990"/>
      <point x="1257" y="902" type="curve"/>
      <point x="1349" y="1320" type="line"/>
      <point x="1233" y="1398"/>
      <point x="1103" y="1430"/>
      <point x="929" y="1430" type="curve" smooth="yes"/>
      <point x="469" y="1430"/>
      <point x="115" y="1062"/>
      <point x="115" y="586" type="curve" smooth="yes"/>
      <point x="115" y="194"/>
      <point x="411" y="-30"/>
    </contour>
  </outline>
</glyph>
<glyph name="F" format="2">
  <advance width="1218"/>
  <unicode hex="0046"/>
  <outline>
    <contour>
      <point x="48" y="0" type="line"/>
      <point x="452" y="0" type="line"/>
      <point x="550" y="466" type="line"/>
      <point x="1044" y="466" type="line"/>
      <point x="1120" y="818" type="line"/>
      <point x="626" y="818" type="line"/>
      <point x="670" y="1032" type="line"/>
      <point x="1226" y="1032" type="line"/>
      <point x="1304" y="1400" type="line"/>
      <point x="344" y="1400" type="line"/>
    </contour>
  </outline>
</glyph>
<glyph name="G" format="2">
  <advance width="1543"/>
  <unicode hex="0047"/>
  <guideline x="648" y="481" angle="77.8319"/>
  <anchor x="796" y="0" name="bottom"/>
  <anchor x="960" y="1400" name="top"/>
  <outline>
    <contour>
      <point x="856" y="-30" type="curve" smooth="yes"/>
      <point x="994" y="-30"/>
      <point x="1166" y="-4"/>
      <point x="1294" y="44" type="curve"/>
      <point x="1464" y="838" type="line"/>
      <point x="888" y="838" type="line"/>
      <point x="740" y="522" type="line"/>
      <point x="1046" y="522" type="line"/>
      <point x="1004" y="328" type="line"/>
      <point x="972" y="322"/>
      <point x="942" y="320"/>
      <point x="912" y="320" type="curve" smooth="yes"/>
      <point x="706" y="320"/>
      <point x="538" y="428"/>
      <point x="538" y="642" type="curve" smooth="yes"/>
      <point x="538" y="892"/>
      <point x="702" y="1068"/>
      <point x="966" y="1068" type="curve" smooth="yes"/>
      <point x="1118" y="1068"/>
      <point x="1236" y="1034"/>
      <point x="1336" y="962" type="curve"/>
      <point x="1414" y="1325" type="line"/>
      <point x="1258" y="1412"/>
      <point x="1099" y="1430"/>
      <point x="970" y="1430" type="curve" smooth="yes"/>
      <point x="494" y="1430"/>
      <point x="120" y="1084"/>
      <point x="120" y="618" type="curve" smooth="yes"/>
      <point x="120" y="216"/>
      <point x="446" y="-30"/>
    </contour>
  </outline>
</glyph>
<glyph name="J" format="2">
  <advance width="1094"/>
  <unicode hex="004A"/>
  <guideline x="45" y="212" angle="78.0204"/>
  <anchor x="924" y="1400" name="top"/>
  <outline>
    <contour>
      <point x="358" y="-30" type="curve" smooth="yes"/>
      <point x="664" y="-30"/>
      <point x="860" y="154"/>
      <point x="924" y="448" type="curve" smooth="yes"/>
      <point x="1126" y="1400" type="line"/>
      <point x="722" y="1400" type="line"/>
      <point x="538" y="538" type="line" smooth="yes"/>
      <point x="508" y="398"/>
      <point x="430" y="338"/>
      <point x="328" y="338" type="curve" smooth="yes"/>
      <point x="240" y="338"/>
      <point x="150" y="368"/>
      <point x="50" y="424" type="curve"/>
      <point x="-25" y="69" type="line"/>
      <point x="73" y="8"/>
      <point x="204" y="-30"/>
    </contour>
  </outline>
</glyph>
<glyph name="M" format="2">
  <advance width="1912"/>
  <unicode hex="004D"/>
  <outline>
    <contour>
      <point x="48" y="0" type="line"/>
      <point x="418" y="0" type="line"/>
      <point x="602" y="904" type="line"/>
      <point x="524" y="896" type="line"/>
      <point x="766" y="238" type="line"/>
      <point x="1028" y="238" type="line"/>
      <point x="1502" y="830" type="line"/>
      <point x="1444" y="868" type="line"/>
      <point x="1254" y="0" type="line"/>
      <point x="1644" y="0" type="line"/>
      <point x="1940" y="1400" type="line"/>
      <point x="1552" y="1400" type="line"/>
      <point x="894" y="564" type="line"/>
      <point x="1050" y="534" type="line"/>
      <point x="736" y="1400" type="line"/>
      <point x="344" y="1400" type="line"/>
    </contour>
  </outline>
</glyph>
<glyph name="O" format="2">
  <advance width="1684"/>
  <unicode hex="004F"/>
  <guideline x="465" y="621" angle="85.1611"/>
  <anchor x="768" y="0" name="bottom"/>
  <anchor x="1396" y="1400" name="horn"/>
  <anchor x="1034" y="0" name="ogonek"/>
  <anchor x="992" y="1400" name="top"/>
  <anchor x="286" y="1400" name="topleft"/>
  <outline>
    <contour>
      <point x="812" y="-30" type="curve" smooth="yes"/>
      <point x="1268" y="-30"/>
      <point x="1642" y="332"/>
      <point x="1642" y="782" type="curve" smooth="yes"/>
      <point x="1642" y="1148"/>
      <point x="1366" y="1430"/>
      <point x="946" y="1430" type="curve" smooth="yes"/>
      <point x="490" y="1430"/>
      <point x="118" y="1070"/>
      <point x="118" y="614" type="curve" smooth="yes"/>
      <point x="118" y="244"/>
      <point x="394" y="-30"/>
    </contour>
    <contour>
      <point x="846" y="348" type="curve" smooth="yes"/>
      <point x="662" y="348"/>
      <point x="544" y="462"/>
      <point x="544" y="644" type="curve" smooth="yes"/>
      <point x="544" y="872"/>
      <point x="694" y="1052"/>
      <point x="914" y="1052" type="curve" smooth="yes"/>
      <point x="1098" y="1052"/>
      <point x="1216" y="938"/>
      <point x="1216" y="756" type="curve" smooth="yes"/>
      <point x="1216" y="528"/>
      <point x="1066" y="348"/>
    </contour>
  </outline>
</glyph>
<glyph name="Q" format="2">
  <advance width="1684"/>
  <unicode hex="0051"/>
  <outline>
    <contour>
      <point x="1238" y="-124" type="line"/>
      <point x="1494" y="64" type="line"/>
      <point x="1388" y="208" type="line"/>
      <point x="1546" y="356"/>
      <point x="1644" y="570"/>
      <point x="1644" y="784" type="curve" smooth="yes"/>
      <point x="1644" y="1154"/>
      <point x="1352" y="1430"/>
      <point x="948" y="1430" type="curve" smooth="yes"/>
      <point x="494" y="1430"/>
      <point x="118" y="1068"/>
      <point x="118" y="616" type="curve" smooth="yes"/>
      <point x="118" y="240"/>
      <point x="400" y="-30"/>
      <point x="796" y="-30" type="curve" smooth="yes"/>
      <point x="906" y="-30"/>
      <point x="1016" y="-6"/>
      <point x="1122" y="36" type="curve"/>
    </contour>
    <contour>
      <point x="834" y="306" type="curve" smooth="yes"/>
      <point x="644" y="306"/>
      <point x="520" y="442"/>
      <point x="520" y="636" type="curve" smooth="yes"/>
      <point x="520" y="882"/>
      <point x="680" y="1078"/>
      <point x="918" y="1078" type="curve" smooth="yes"/>
      <point x="1116" y="1078"/>
      <point x="1256" y="950"/>
      <point x="1256" y="754" type="curve" smooth="yes"/>
      <point x="1256" y="664"/>
      <point x="1226" y="562"/>
      <point x="1176" y="490" type="curve"/>
      <point x="1030" y="692" type="line"/>
      <point x="796" y="520" type="line"/>
      <point x="936" y="318" type="line"/>
      <point x="902" y="310"/>
      <point x="866" y="306"/>
    </contour>
  </outline>
</glyph>
<glyph name="W" format="2">
  <advance width="2100"/>
  <unicode hex="0057"/>
  <anchor x="1236" y="1400" name="top"/>
  <outline>
    <contour>
      <point x="336" y="0" type="line"/>
      <point x="718" y="0" type="line"/>
      <point x="1112" y="796" type="line"/>
      <point x="1160" y="0" type="line"/>
      <point x="1546" y="0" type="line"/>
      <point x="2268" y="1400" type="line"/>
      <point x="1846" y="1400" type="line"/>
      <point x="1492" y="636" type="line"/>
      <point x="1440" y="1400" type="line"/>
      <point x="1042" y="1400" type="line"/>
      <point x="650" y="628" type="line"/>
      <point x="618" y="1400" type="line"/>
      <point x="208" y="1400" type="line"/>
    </contour>
  </outline>
</glyph>
<glyph name="X" format="2">
  <advance width="1430"/>
  <unicode hex="0058"/>
  <outline>
    <contour>
      <point x="-96" y="0" type="line"/>
      <point x="408" y="0" type="line"/>
      <point x="696" y="402" type="line"/>
      <point x="830" y="0" type="line"/>
      <point x="1304" y="0" type="line"/>
      <point x="1040" y="684" type="line"/>
      <point x="1602" y="1400" type="line"/>
      <point x="1102" y="1400" type="line"/>
      <point x="824" y="1022" type="line"/>
      <point x="694" y="1400" type="line"/>
      <point x="222" y="1400" type="line"/>
      <point x="482" y="730" type="line"/>
    </contour>
  </outline>
</glyph>
<glyph name="Z" format="2">
  <advance width="1192"/>
  <unicode hex="005A"/>
  <anchor x="786" y="1400" name="top"/>
  <outline>
    <contour>
      <point x="-38" y="0" type="line"/>
      <point x="976" y="0" type="line"/>
      <point x="1134" y="368" type="line"/>
      <point x="550" y="368" type="line"/>
      <point x="1238" y="1062" type="line"/>
      <point x="1308" y="1400" type="line"/>
      <point x="282" y="1400" type="line"/>
      <point x="204" y="1032" type="line"/>
      <point x="722" y="1032" type="line"/>
      <point x="32" y="338" type="line"/>
    </contour>
  </outline>
</glyph>
<glyph name="bracketleft" format="2">
  <advance width="756"/>
  <unicode hex="005B"/>
  <outline>
    <contour>
      <point x="-50" y="-420" type="line"/>
      <point x="466" y="-420" type="line"/>
      <point x="524" y="-154" type="line"/>
      <point x="324" y="-154" type="line"/>
      <point x="596" y="1134" type="line"/>
      <point x="796" y="1134" type="line"/>
      <point x="854" y="1400" type="line"/>
      <point x="338" y="1400" type="line"/>
    </contour>
  </outline>
</glyph>
<glyph name="backslash" format="2">
  <advance width="996"/>
  <unicode hex="005C"/>
  <guideline x="252" y="706" angle="10.6398"/>
  <guideline x="239" y="-215" angle="10.6398"/>
  <outline>
    <contour>
      <point x="486" y="-430" type="line"/>
      <point x="838" y="-362" type="line"/>
      <point x="498" y="1410" type="line"/>
      <point x="146" y="1346" type="line"/>
    </contour>
  </outline>
</glyph>
<glyph name="bracketright" format="2">
  <advance width="758"/>
  <unicode hex="005D"/>
  <outline>
    <contour>
      <point x="408" y="-420" type="line"/>
      <point x="794" y="1400" type="line"/>
      <point x="278" y="1400" type="line"/>
      <point x="222" y="1134" type="line"/>
      <point x="422" y="1134" type="line"/>
      <point x="146" y="-154" type="line"/>
      <point x="-54" y="-154" type="line"/>
      <point x="-108" y="-420" type="line"/>
    </contour>
  </outline>
</glyph>
<glyph name="underscore" format="2">
  <advance width="1140"/>
  <unicode hex="005F"/>
  <outline>
    <contour>
      <point x="-178" y="-408" type="line"/>
      <point x="922" y="-408" type="line"/>
      <point x="990" y="-92" type="line"/>
      <point x="-110" y="-92" type="line"/>
    </contour>
  </outline>
</glyph>
<glyph name="c" format="2">
  <advance width="1058"/>
  <unicode hex="0063"/>
  <guideline x="457" y="205" angle="78.0016"/>
  <guideline x="459" y="309" angle="78.0016"/>
  <anchor x="516" y="0" name="bottom"/>
  <anchor x="696" y="1040" name="top"/>
  <outline>
    <contour>
      <point x="590" y="-30" type="curve" smooth="yes"/>
      <point x="682" y="-30"/>
      <point x="780" y="-12"/>
      <point x="870" y="20" type="curve"/>
      <point x="952" y="400" type="line"/>
      <point x="854" y="340"/>
      <point x="762" y="310"/>
      <point x="664" y="310" type="curve" smooth="yes"/>
      <point x="526" y="310"/>
      <point x="448" y="376"/>
      <point x="448" y="493" type="curve" smooth="yes"/>
      <point x="448" y="628"/>
      <point x="538" y="730"/>
      <point x="704" y="730" type="curve" smooth="yes"/>
      <point x="796" y="730"/>
      <point x="890" y="702"/>
      <point x="960" y="632" type="curve"/>
      <point x="1036" y="988" type="line"/>
      <point x="942" y="1042"/>
      <point x="828" y="1070"/>
      <point x="702" y="1070" type="curve" smooth="yes"/>
      <point x="350" y="1070"/>
      <point x="50" y="802"/>
      <point x="50" y="460" type="curve" smooth="yes"/>
      <point x="50" y="178"/>
      <point x="270" y="-30"/>
    </contour>
  </outline>
</glyph>
<glyph name="e" format="2">
  <advance width="1238"/>
  <unicode hex="0065"/>
  <guideline x="482" y="171" angle="78.0016"/>
  <anchor x="523" y="0" name="bottom"/>
  <anchor x="994" y="0" name="ogonek"/>
  <anchor x="711" y="1040" name="top"/>
  <outline>
    <contour>
      <point x="633" y="-30" type="curve" smooth="yes"/>
      <point x="743" y="-30"/>
      <point x="873" y="-8"/>
      <point x="973" y="26" type="curve"/>
      <point x="1041" y="342" type="line"/>
      <point x="923" y="292"/>
      <point x="813" y="270"/>
      <point x="689" y="270" type="curve" smooth="yes"/>
      <point x="543" y="270"/>
      <point x="405" y="312"/>
      <point x="403" y="408" type="curve"/>
      <point x="1159" y="408" type="line"/>
      <point x="1281" y="774"/>
      <point x="1075" y="1070"/>
      <point x="677" y="1070" type="curve" smooth="yes"/>
      <point x="319" y="1070"/>
      <point x="53" y="816"/>
      <point x="53" y="460" type="curve" smooth="yes"/>
      <point x="53" y="172"/>
      <point x="277" y="-30"/>
    </contour>
    <contour>
      <point x="471" y="668" type="line"/>
      <point x="483" y="742"/>
      <point x="557" y="790"/>
      <point x="655" y="790" type="curve" smooth="yes"/>
      <point x="751" y="790"/>
      <point x="819" y="750"/>
      <point x="819" y="668" type="curve"/>
    </contour>
  </outline>
</glyph>
<glyph name="f" format="2">
  <advance width="860"/>
  <unicode hex="0066"/>
  <guideline x="467" y="556" angle="78.0422"/>
  <guideline x="385" y="364" angle="180"/>
  <outline>
    <contour>
      <point x="94" y="0" type="line"/>
      <point x="494" y="0" type="line"/>
      <point x="648" y="728" type="line"/>
      <point x="890" y="728" type="line"/>
      <point x="958" y="1040" type="line"/>
      <point x="714" y="1040" type="line"/>
      <point x="720" y="1064" type="line" smooth="yes"/>
      <point x="732" y="1116"/>
      <point x="770" y="1144"/>
      <point x="830" y="1144" type="curve" smooth="yes"/>
      <point x="874" y="1144"/>
      <point x="926" y="1138"/>
      <point x="974" y="1112" type="curve"/>
      <point x="1036" y="1408" type="line"/>
      <point x="952" y="1456"/>
      <point x="860" y="1470"/>
      <point x="770" y="1470" type="curve" smooth="yes"/>
      <point x="524" y="1470"/>
      <point x="376" y="1328"/>
      <point x="324" y="1086" type="curve" smooth="yes"/>
    </contour>
    <contour>
      <point x="44" y="728" type="line"/>
      <point x="288" y="728" type="line"/>
      <point x="356" y="1060" type="line"/>
      <point x="60" y="808" type="line"/>
    </contour>
  </outline>
</glyph>
<glyph name="h" format="2">
  <advance width="1368"/>
  <unicode hex="0068"/>
  <anchor x="556" y="1224" name="bar"/>
  <anchor x="526" y="1440" name="top"/>
  <outline>
    <contour>
      <point x="18" y="0" type="line"/>
      <point x="418" y="0" type="line"/>
      <point x="532" y="534" type="line" smooth="yes"/>
      <point x="558" y="650"/>
      <point x="622" y="710"/>
      <point x="720" y="710" type="curve" smooth="yes"/>
      <point x="834" y="710"/>
      <point x="876" y="644"/>
      <point x="852" y="534" type="curve" smooth="yes"/>
      <point x="738" y="0" type="line"/>
      <point x="1138" y="0" type="line"/>
      <point x="1276" y="646" type="line" smooth="yes"/>
      <point x="1324" y="894"/>
      <point x="1172" y="1070"/>
      <point x="928" y="1070" type="curve" smooth="yes"/>
      <point x="786" y="1070"/>
      <point x="664" y="1004"/>
      <point x="566" y="914" type="curve"/>
      <point x="588" y="794" type="line"/>
      <point x="734" y="1480" type="line"/>
      <point x="294" y="1294" type="line"/>
    </contour>
  </outline>
</glyph>
<glyph name="q" format="2">
  <advance width="1373"/>
  <unicode hex="0071"/>
  <outline>
    <contour>
      <point x="645" y="-420" type="line"/>
      <point x="1043" y="-420" type="line"/>
      <point x="1367" y="1100" type="line"/>
      <point x="929" y="914" type="line"/>
      <point x="895" y="758" type="line"/>
      <point x="1029" y="822" type="line"/>
      <point x="997" y="966"/>
      <point x="827" y="1070"/>
      <point x="627" y="1070" type="curve" smooth="yes"/>
      <point x="291" y="1070"/>
      <point x="51" y="788"/>
      <point x="51" y="448" type="curve" smooth="yes"/>
      <point x="51" y="174"/>
      <point x="233" y="-30"/>
      <point x="501" y="-30" type="curve" smooth="yes"/>
      <point x="649" y="-30"/>
      <point x="751" y="22"/>
      <point x="857" y="130" type="curve"/>
      <point x="783" y="232" type="line"/>
    </contour>
    <contour>
      <point x="623" y="310" type="curve" smooth="yes"/>
      <point x="517" y="310"/>
      <point x="441" y="378"/>
      <point x="441" y="486" type="curve" smooth="yes"/>
      <point x="441" y="614"/>
      <point x="529" y="730"/>
      <point x="667" y="730" type="curve" smooth="yes"/>
      <point x="771" y="730"/>
      <point x="849" y="660"/>
      <point x="849" y="548" type="curve" smooth="yes"/>
      <point x="849" y="424"/>
      <point x="761" y="310"/>
    </contour>
  </outline>
</glyph>
<glyph name="s" format="2">
  <advance width="1070"/>
  <unicode hex="0073"/>
  <guideline x="471" y="333" angle="78.0016"/>
  <guideline x="45" y="198" angle="78.0016"/>
  <anchor x="448" y="0" name="bottom"/>
  <anchor x="620" y="1040" name="top"/>
  <outline>
    <contour>
      <point x="466" y="-28" type="curve" smooth="yes"/>
      <point x="750" y="-28"/>
      <point x="962" y="128"/>
      <point x="962" y="370" type="curve" smooth="yes"/>
      <point x="962" y="518"/>
      <point x="852" y="602"/>
      <point x="604" y="672" type="curve" smooth="yes"/>
      <point x="506" y="702"/>
      <point x="482" y="712"/>
      <point x="482" y="736" type="curve" smooth="yes"/>
      <point x="482" y="768"/>
      <point x="524" y="788"/>
      <point x="592" y="788" type="curve" smooth="yes"/>
      <point x="714" y="788"/>
      <point x="866" y="738"/>
      <point x="942" y="666" type="curve"/>
      <point x="1021" y="969" type="line"/>
      <point x="914" y="1037"/>
      <point x="766" y="1080"/>
      <point x="606" y="1080" type="curve" smooth="yes"/>
      <point x="340" y="1080"/>
      <point x="122" y="934"/>
      <point x="122" y="688" type="curve" smooth="yes"/>
      <point x="122" y="526"/>
      <point x="242" y="428"/>
      <point x="476" y="376" type="curve" smooth="yes"/>
      <point x="580" y="350"/>
      <point x="606" y="344"/>
      <point x="606" y="322" type="curve" smooth="yes"/>
      <point x="606" y="284"/>
      <point x="566" y="264"/>
      <point x="490" y="264" type="curve" smooth="yes"/>
      <point x="362" y="264"/>
      <point x="202" y="316"/>
      <point x="70" y="396" type="curve"/>
      <point x="6" y="95" type="line"/>
      <point x="136" y="9"/>
      <point x="304" y="-28"/>
    </contour>
  </outline>
</glyph>
<glyph name="t" format="2">
  <advance width="934"/>
  <unicode hex="0074"/>
  <guideline x="224" y="330" angle="90"/>
  <guideline x="399" y="173" angle="78.0016"/>
  <anchor x="422" y="534" name="bar"/>
  <anchor x="448" y="0" name="bottom"/>
  <anchor x="800" y="1440" name="caron"/>
  <outline>
    <contour>
      <point x="526" y="-30" type="curve" smooth="yes"/>
      <point x="598" y="-30"/>
      <point x="668" y="-16"/>
      <point x="726" y="2" type="curve"/>
      <point x="798" y="346" type="line"/>
      <point x="760" y="328"/>
      <point x="720" y="320"/>
      <point x="682" y="320" type="curve" smooth="yes"/>
      <point x="598" y="320"/>
      <point x="570" y="362"/>
      <point x="586" y="440" type="curve" smooth="yes"/>
      <point x="648" y="728" type="line"/>
      <point x="864" y="728" type="line"/>
      <point x="932" y="1040" type="line"/>
      <point x="714" y="1040" type="line"/>
      <point x="776" y="1334" type="line"/>
      <point x="376" y="1334" type="line"/>
      <point x="174" y="378" type="line" smooth="yes"/>
      <point x="120" y="118"/>
      <point x="260" y="-30"/>
    </contour>
    <contour>
      <point x="24" y="728" type="line"/>
      <point x="268" y="728" type="line"/>
      <point x="336" y="1060" type="line"/>
      <point x="40" y="808" type="line"/>
    </contour>
  </outline>
</glyph>
<glyph name="u" format="2">
  <advance width="1327"/>
  <unicode hex="0075"/>
  <anchor x="545" y="0" name="bottom"/>
  <anchor x="1087" y="0" name="descender"/>
  <anchor x="1309" y="1040" name="horn"/>
  <anchor x="1087" y="0" name="ogonek"/>
  <anchor x="779" y="1040" name="top"/>
  <outline>
    <contour>
      <point x="425" y="-30" type="curve" smooth="yes"/>
      <point x="601" y="-30"/>
      <point x="709" y="50"/>
      <point x="777" y="136" type="curve"/>
      <point x="747" y="0" type="line"/>
      <point x="1087" y="0" type="line"/>
      <point x="1321" y="1100" type="line"/>
      <point x="883" y="914" type="line"/>
      <point x="791" y="482" type="line" smooth="yes"/>
      <point x="771" y="384"/>
      <point x="705" y="330"/>
      <point x="608" y="330" type="curve" smooth="yes"/>
      <point x="513" y="330"/>
      <point x="489" y="382"/>
      <point x="511" y="482" type="curve" smooth="yes"/>
      <point x="641" y="1100" type="line"/>
      <point x="203" y="914" type="line"/>
      <point x="99" y="428" type="line" smooth="yes"/>
      <point x="37" y="140"/>
      <point x="165" y="-30"/>
    </contour>
  </outline>
</glyph>
<glyph name="y" format="2">
  <advance width="1222"/>
  <unicode hex="0079"/>
  <guideline x="-10" y="-24" angle="77.9504"/>
  <anchor x="994" y="0" name="bottom"/>
  <anchor x="718" y="1040" name="top"/>
  <outline>
    <contour>
      <point x="156" y="-450" type="curve" smooth="yes"/>
      <point x="342" y="-450"/>
      <point x="528" y="-364"/>
      <point x="670" y="-116" type="curve" smooth="yes"/>
      <point x="1334" y="1040" type="line"/>
      <point x="890" y="1040" type="line"/>
      <point x="582" y="398" type="line"/>
      <point x="526" y="1040" type="line"/>
      <point x="100" y="1040" type="line"/>
      <point x="282" y="22" type="line"/>
      <point x="260" y="-26" type="line" smooth="yes"/>
      <point x="236" y="-74"/>
      <point x="188" y="-88"/>
      <point x="134" y="-88" type="curve" smooth="yes"/>
      <point x="84" y="-88"/>
      <point x="26" y="-72"/>
      <point x="-20" y="-48" type="curve"/>
      <point x="-96" y="-406" type="line"/>
      <point x="-24" y="-435"/>
      <point x="66" y="-450"/>
    </contour>
  </outline>
</glyph>
<glyph name="z" format="2">
  <advance width="1072"/>
  <unicode hex="007A"/>
  <anchor x="648" y="1040" name="top"/>
  <outline>
    <contour>
      <point x="-28" y="0" type="line"/>
      <point x="842" y="0" type="line"/>
      <point x="996" y="350" type="line"/>
      <point x="586" y="350" type="line"/>
      <point x="1040" y="780" type="line"/>
      <point x="1094" y="1040" type="line"/>
      <point x="210" y="1040" type="line"/>
      <point x="136" y="690" type="line"/>
      <point x="510" y="690" type="line"/>
      <point x="26" y="262" type="line"/>
    </contour>
  </outline>
</glyph>
<glyph name="asciitilde" format="2">
  <advance width="1297"/>
  <unicode hex="007E"/>
  <outline>
    <contour>
      <point x="914" y="460" type="curve" smooth="yes"/>
      <point x="1036" y="460"/>
      <point x="1123" y="487"/>
      <point x="1236" y="554" type="curve"/>
      <point x="1294" y="834" type="line"/>
      <point x="1175" y="765"/>
      <point x="1091" y="732"/>
      <point x="971" y="732" type="curve" smooth="yes"/>
      <point x="809" y="732"/>
      <point x="653" y="880"/>
      <point x="447" y="880" type="curve" smooth="yes"/>
      <point x="325" y="880"/>
      <point x="238" y="853"/>
      <point x="125" y="786" type="curve"/>
      <point x="67" y="506" type="line"/>
      <point x="183" y="574"/>
      <point x="268" y="608"/>
      <point x="390" y="608" type="curve" smooth="yes"/>
      <point x="552" y="608"/>
      <point x="708" y="460"/>
    </contour>
  </outline>
</glyph>
<glyph name="cent" format="2">
  <advance width="1297"/>
  <unicode hex="00A2"/>
  <guideline x="488" y="182" angle="78.0031"/>
  <guideline x="498" y="328" angle="78.0031"/>
  <outline>
    <contour>
      <point x="474" y="-160" type="line"/>
      <point x="734" y="-160" type="line"/>
      <point x="768" y="2" type="line"/>
      <point x="840" y="6"/>
      <point x="912" y="18"/>
      <point x="978" y="42" type="curve"/>
      <point x="1046" y="364" type="line"/>
      <point x="974" y="336"/>
      <point x="906" y="324"/>
      <point x="836" y="322" type="curve"/>
      <point x="916" y="700" type="line"/>
      <point x="968" y="692"/>
      <point x="1020" y="678"/>
      <point x="1066" y="656" type="curve"/>
      <point x="1128" y="954" type="line"/>
      <point x="1086" y="978"/>
      <point x="1034" y="998"/>
      <point x="982" y="1012" type="curve"/>
      <point x="1022" y="1200" type="line"/>
      <point x="762" y="1200" type="line"/>
      <point x="726" y="1034" type="line"/>
      <point x="420" y="1004"/>
      <point x="190" y="756"/>
      <point x="190" y="456" type="curve" smooth="yes"/>
      <point x="190" y="252"/>
      <point x="308" y="84"/>
      <point x="514" y="26" type="curve"/>
    </contour>
    <contour>
      <point x="582" y="348" type="line"/>
      <point x="528" y="368"/>
      <point x="496" y="422"/>
      <point x="496" y="494" type="curve" smooth="yes"/>
      <point x="496" y="602"/>
      <point x="574" y="704"/>
      <point x="658" y="706" type="curve"/>
    </contour>
  </outline>
</glyph>
<glyph name="brokenbar" format="2">
  <advance width="721"/>
  <unicode hex="00A6"/>
  <outline>
    <contour>
      <point x="220" y="610" type="line"/>
      <point x="540" y="610" type="line"/>
      <point x="682" y="1280" type="line"/>
      <point x="362" y="1280" type="line"/>
    </contour>
    <contour>
      <point x="26" y="-300" type="line"/>
      <point x="346" y="-300" type="line"/>
      <point x="488" y="370" type="line"/>
      <point x="168" y="370" type="line"/>
    </contour>
  </outline>
</glyph>
<glyph name="section" format="2">
  <advance width="1386"/>
  <unicode hex="00A7"/>
  <outline>
    <contour>
      <point x="549" y="-450" type="curve" smooth="yes"/>
      <point x="849" y="-450"/>
      <point x="1101" y="-288"/>
      <point x="1101" y="-8" type="curve" smooth="yes"/>
      <point x="1101" y="168"/>
      <point x="983" y="270"/>
      <point x="733" y="338" type="curve" smooth="yes"/>
      <point x="585" y="378"/>
      <point x="497" y="420"/>
      <point x="497" y="494" type="curve" smooth="yes"/>
      <point x="497" y="602"/>
      <point x="617" y="658"/>
      <point x="751" y="652" type="curve"/>
      <point x="783" y="858" type="line"/>
      <point x="437" y="858"/>
      <point x="145" y="726"/>
      <point x="145" y="444" type="curve" smooth="yes"/>
      <point x="145" y="258"/>
      <point x="303" y="166"/>
      <point x="597" y="86" type="curve" smooth="yes"/>
      <point x="731" y="50"/>
      <point x="773" y="16"/>
      <point x="773" y="-36" type="curve" smooth="yes"/>
      <point x="773" y="-104"/>
      <point x="689" y="-142"/>
      <point x="589" y="-142" type="curve" smooth="yes"/>
      <point x="435" y="-142"/>
      <point x="267" y="-84"/>
      <point x="153" y="-2" type="curve"/>
      <point x="85" y="-322" type="line"/>
      <point x="203" y="-398"/>
      <point x="369" y="-450"/>
    </contour>
    <contour>
      <point x="653" y="128" type="line"/>
      <point x="997" y="128"/>
      <point x="1291" y="256"/>
      <point x="1291" y="544" type="curve" smooth="yes"/>
      <point x="1291" y="722"/>
      <point x="1137" y="820"/>
      <point x="861" y="894" type="curve" smooth="yes"/>
      <point x="709" y="936"/>
      <point x="665" y="964"/>
      <point x="665" y="1016" type="curve" smooth="yes"/>
      <point x="665" y="1092"/>
      <point x="747" y="1122"/>
      <point x="837" y="1122" type="curve" smooth="yes"/>
      <point x="969" y="1122"/>
      <point x="1145" y="1068"/>
      <point x="1253" y="982" type="curve"/>
      <point x="1321" y="1302" type="line"/>
      <point x="1201" y="1384"/>
      <point x="1037" y="1430"/>
      <point x="875" y="1430" type="curve" smooth="yes"/>
      <point x="579" y="1430"/>
      <point x="339" y="1268"/>
      <point x="339" y="990" type="curve" smooth="yes"/>
      <point x="339" y="814"/>
      <point x="455" y="710"/>
      <point x="695" y="650" type="curve" smooth="yes"/>
      <point x="861" y="608"/>
      <point x="941" y="566"/>
      <point x="941" y="494" type="curve" smooth="yes"/>
      <point x="941" y="380"/>
      <point x="817" y="324"/>
      <point x="683" y="332" type="curve"/>
    </contour>
  </outline>
</glyph>
<glyph name="twosuperior" format="2">
  <advance width="856"/>
  <unicode hex="00B2"/>
  <guideline x="211" y="450" angle="0"/>
  <outline>
    <contour>
      <point x="136" y="722" type="line"/>
      <point x="798" y="722" type="line"/>
      <point x="894" y="934" type="line"/>
      <point x="536" y="934" type="line"/>
      <point x="610" y="990" type="line" smooth="yes"/>
      <point x="798" y="1132"/>
      <point x="930" y="1238"/>
      <point x="930" y="1396" type="curve" smooth="yes"/>
      <point x="930" y="1546"/>
      <point x="808" y="1652"/>
      <point x="602" y="1652" type="curve" smooth="yes"/>
      <point x="519" y="1652"/>
      <point x="433" y="1633"/>
      <point x="354" y="1597" type="curve"/>
      <point x="304" y="1350" type="line"/>
      <point x="376" y="1406"/>
      <point x="450" y="1434"/>
      <point x="540" y="1434" type="curve" smooth="yes"/>
      <point x="630" y="1434"/>
      <point x="682" y="1404"/>
      <point x="682" y="1350" type="curve" smooth="yes"/>
      <point x="682" y="1248"/>
      <point x="568" y="1178"/>
      <point x="414" y="1066" type="curve" smooth="yes"/>
      <point x="170" y="890" type="line"/>
    </contour>
  </outline>
</glyph>
<glyph name="threesuperior" format="2">
  <advance width="826"/>
  <unicode hex="00B3"/>
  <outline>
    <contour>
      <point x="454" y="702" type="curve" smooth="yes"/>
      <point x="662" y="702"/>
      <point x="840" y="828"/>
      <point x="840" y="1022" type="curve" smooth="yes"/>
      <point x="840" y="1148"/>
      <point x="752" y="1228"/>
      <point x="656" y="1252" type="curve"/>
      <point x="896" y="1442" type="line"/>
      <point x="934" y="1632" type="line"/>
      <point x="334" y="1632" type="line"/>
      <point x="240" y="1422" type="line"/>
      <point x="592" y="1422" type="line"/>
      <point x="346" y="1256" type="line"/>
      <point x="378" y="1102" type="line"/>
      <point x="412" y="1110"/>
      <point x="444" y="1112"/>
      <point x="468" y="1112" type="curve" smooth="yes"/>
      <point x="548" y="1112"/>
      <point x="600" y="1080"/>
      <point x="600" y="1022" type="curve" smooth="yes"/>
      <point x="600" y="960"/>
      <point x="540" y="918"/>
      <point x="456" y="918" type="curve" smooth="yes"/>
      <point x="360" y="918"/>
      <point x="260" y="958"/>
      <point x="216" y="1018" type="curve"/>
      <point x="167" y="785" type="line"/>
      <point x="232" y="736"/>
      <point x="344" y="702"/>
    </contour>
  </outline>
</glyph>
<glyph name="onesuperior" format="2">
  <advance width="672"/>
  <unicode hex="00B9"/>
  <outline>
    <contour>
      <point x="356" y="722" type="line"/>
      <point x="594" y="722" type="line"/>
      <point x="792" y="1652" type="line"/>
      <point x="774" y="1652" type="line"/>
      <point x="330" y="1516" type="line"/>
      <point x="280" y="1280" type="line"/>
      <point x="490" y="1340" type="line"/>
    </contour>
  </outline>
</glyph>
<glyph name="questiondown" format="2">
  <advance width="1066"/>
  <unicode hex="00BF"/>
  <outline>
    <contour>
      <point x="440" y="-390" type="curve" smooth="yes"/>
      <point x="576" y="-390"/>
      <point x="700" y="-358"/>
      <point x="792" y="-320" type="curve"/>
      <point x="866" y="30" type="line"/>
      <point x="762" y="-12"/>
      <point x="676" y="-24"/>
      <point x="582" y="-24" type="curve" smooth="yes"/>
      <point x="486" y="-24"/>
      <point x="442" y="10"/>
      <point x="442" y="58" type="curve" smooth="yes"/>
      <point x="442" y="102"/>
      <point x="476" y="126"/>
      <point x="590" y="198" type="curve" smooth="yes"/>
      <point x="678" y="254"/>
      <point x="758" y="306"/>
      <point x="760" y="516" type="curve"/>
      <point x="404" y="516" type="line"/>
      <point x="382" y="392"/>
      <point x="340" y="342"/>
      <point x="240" y="288" type="curve" smooth="yes"/>
      <point x="66" y="194"/>
      <point x="-40" y="118"/>
      <point x="-40" y="-48" type="curve" smooth="yes"/>
      <point x="-40" y="-242"/>
      <point x="164" y="-390"/>
    </contour>
    <contour>
      <point x="608" y="624" type="curve" smooth="yes"/>
      <point x="748" y="624"/>
      <point x="866" y="730"/>
      <point x="866" y="870" type="curve" smooth="yes"/>
      <point x="866" y="996"/>
      <point x="780" y="1070"/>
      <point x="652" y="1070" type="curve" smooth="yes"/>
      <point x="512" y="1070"/>
      <point x="394" y="964"/>
      <point x="394" y="826" type="curve" smooth="yes"/>
      <point x="394" y="700"/>
      <point x="478" y="624"/>
    </contour>
  </outline>
</glyph>
<glyph name="Oslash" format="2">
  <advance width="1664"/>
  <unicode hex="00D8"/>
  <guideline x="671" y="820" angle="134.042"/>
  <guideline x="176" y="-112" angle="134.042"/>
  <anchor x="981" y="1400" name="top"/>
  <outline>
    <contour>
      <point x="239" y="-94" type="line"/>
      <point x="415" y="76" type="line"/>
      <point x="521" y="10"/>
      <point x="651" y="-30"/>
      <point x="797" y="-30" type="curve" smooth="yes"/>
      <point x="1255" y="-30"/>
      <point x="1633" y="332"/>
      <point x="1633" y="786" type="curve" smooth="yes"/>
      <point x="1633" y="920"/>
      <point x="1597" y="1048"/>
      <point x="1527" y="1150" type="curve"/>
      <point x="1683" y="1298" type="line"/>
      <point x="1477" y="1510" type="line"/>
      <point x="1297" y="1336" type="line"/>
      <point x="1205" y="1392"/>
      <point x="1089" y="1430"/>
      <point x="943" y="1430" type="curve" smooth="yes"/>
      <point x="489" y="1430"/>
      <point x="107" y="1074"/>
      <point x="107" y="608" type="curve" smooth="yes"/>
      <point x="107" y="484"/>
      <point x="137" y="372"/>
      <point x="195" y="274" type="curve"/>
      <point x="33" y="118" type="line"/>
    </contour>
    <contour>
      <point x="531" y="588" type="line"/>
      <point x="527" y="608"/>
      <point x="525" y="628"/>
      <point x="525" y="650" type="curve" smooth="yes"/>
      <point x="525" y="874"/>
      <point x="679" y="1066"/>
      <point x="905" y="1066" type="curve" smooth="yes"/>
      <point x="939" y="1066"/>
      <point x="969" y="1064"/>
      <point x="1007" y="1046" type="curve"/>
    </contour>
    <contour>
      <point x="831" y="334" type="curve" smooth="yes"/>
      <point x="779" y="334"/>
      <point x="737" y="344"/>
      <point x="697" y="362" type="curve"/>
      <point x="1205" y="850" type="line"/>
      <point x="1213" y="822"/>
      <point x="1217" y="792"/>
      <point x="1217" y="762" type="curve" smooth="yes"/>
      <point x="1217" y="534"/>
      <point x="1069" y="334"/>
    </contour>
  </outline>
</glyph>
<glyph name="Thorn" format="2">
  <advance width="1391"/>
  <unicode hex="00DE"/>
  <outline>
    <contour>
      <point x="48" y="0" type="line"/>
      <point x="452" y="0" type="line"/>
      <point x="502" y="236" type="line"/>
      <point x="774" y="236" type="line" smooth="yes"/>
      <point x="1128" y="236"/>
      <point x="1382" y="442"/>
      <point x="1382" y="776" type="curve" smooth="yes"/>
      <point x="1382" y="1040"/>
      <point x="1174" y="1204"/>
      <point x="848" y="1204" type="curve" smooth="yes"/>
      <point x="708" y="1204" type="line"/>
      <point x="748" y="1400" type="line"/>
      <point x="344" y="1400" type="line"/>
    </contour>
    <contour>
      <point x="572" y="570" type="line"/>
      <point x="634" y="860" type="line"/>
      <point x="788" y="860" type="line" smooth="yes"/>
      <point x="900" y="860"/>
      <point x="972" y="836"/>
      <point x="972" y="736" type="curve" smooth="yes"/>
      <point x="972" y="630"/>
      <point x="902" y="570"/>
      <point x="794" y="570" type="curve" smooth="yes"/>
    </contour>
  </outline>
</glyph>
<glyph name="ae" format="2">
  <advance width="1868"/>
  <unicode hex="00E6"/>
  <guideline x="793" y="173" angle="78.0016"/>
  <guideline x="126" y="351" angle="78.0016"/>
  <anchor x="1012" y="1040" name="top"/>
  <outline>
    <contour>
      <point x="400" y="-30" type="curve" smooth="yes"/>
      <point x="602" y="-30"/>
      <point x="824" y="46"/>
      <point x="942" y="286" type="curve"/>
      <point x="838" y="278" type="line"/>
      <point x="856" y="76"/>
      <point x="1022" y="-30"/>
      <point x="1272" y="-30" type="curve" smooth="yes"/>
      <point x="1382" y="-30"/>
      <point x="1506" y="-6"/>
      <point x="1604" y="26" type="curve"/>
      <point x="1672" y="342" type="line"/>
      <point x="1548" y="292"/>
      <point x="1438" y="270"/>
      <point x="1316" y="270" type="curve" smooth="yes"/>
      <point x="1182" y="270"/>
      <point x="1086" y="324"/>
      <point x="1080" y="408" type="curve"/>
      <point x="1790" y="408" type="line"/>
      <point x="1906" y="778"/>
      <point x="1726" y="1070"/>
      <point x="1358" y="1070" type="curve" smooth="yes"/>
      <point x="1180" y="1070"/>
      <point x="1028" y="1000"/>
      <point x="922" y="854" type="curve"/>
      <point x="1064" y="858" type="line"/>
      <point x="998" y="1000"/>
      <point x="854" y="1080"/>
      <point x="640" y="1080" type="curve" smooth="yes"/>
      <point x="510" y="1080"/>
      <point x="392" y="1060"/>
      <point x="288" y="1014" type="curve"/>
      <point x="222" y="702" type="line"/>
      <point x="298" y="750"/>
      <point x="428" y="782"/>
      <point x="542" y="782" type="curve" smooth="yes"/>
      <point x="702" y="782"/>
      <point x="770" y="732"/>
      <point x="750" y="620" type="curve" smooth="yes"/>
      <point x="702" y="402" type="line" smooth="yes"/>
      <point x="680" y="298"/>
      <point x="608" y="248"/>
      <point x="504" y="248" type="curve" smooth="yes"/>
      <point x="434" y="248"/>
      <point x="392" y="274"/>
      <point x="392" y="322" type="curve" smooth="yes"/>
      <point x="392" y="419"/>
      <point x="560" y="452"/>
      <point x="754" y="422" type="curve"/>
      <point x="802" y="648" type="line"/>
      <point x="314" y="690"/>
      <point x="22" y="558"/>
      <point x="22" y="286" type="curve" smooth="yes"/>
      <point x="22" y="92"/>
      <point x="164" y="-30"/>
    </contour>
    <contour>
      <point x="1126" y="668" type="line"/>
      <point x="1134" y="740"/>
      <point x="1208" y="790"/>
      <point x="1306" y="790" type="curve" smooth="yes"/>
      <point x="1404" y="790"/>
      <point x="1468" y="740"/>
      <point x="1460" y="668" type="curve"/>
    </contour>
  </outline>
</glyph>
<glyph name="eth" format="2">
  <advance width="1272"/>
  <unicode hex="00F0"/>
  <outline>
    <contour>
      <point x="570" y="-30" type="curve" smooth="yes"/>
      <point x="934" y="-30"/>
      <point x="1226" y="262"/>
      <point x="1226" y="638" type="curve" smooth="yes"/>
      <point x="1226" y="956"/>
      <point x="1020" y="1244"/>
      <point x="750" y="1440" type="curve"/>
      <point x="294" y="1440" type="line"/>
      <point x="556" y="1274"/>
      <point x="754" y="1028"/>
      <point x="820" y="816" type="curve"/>
      <point x="902" y="828" type="line"/>
      <point x="810" y="918"/>
      <point x="686" y="930"/>
      <point x="608" y="930" type="curve" smooth="yes"/>
      <point x="308" y="930"/>
      <point x="38" y="708"/>
      <point x="38" y="414" type="curve" smooth="yes"/>
      <point x="38" y="164"/>
      <point x="248" y="-30"/>
    </contour>
    <contour>
      <point x="596" y="300" type="curve" smooth="yes"/>
      <point x="496" y="300"/>
      <point x="432" y="366"/>
      <point x="432" y="458" type="curve" smooth="yes"/>
      <point x="432" y="578"/>
      <point x="522" y="660"/>
      <point x="632" y="660" type="curve" smooth="yes"/>
      <point x="732" y="660"/>
      <point x="798" y="596"/>
      <point x="798" y="504" type="curve" smooth="yes"/>
      <point x="798" y="398"/>
      <point x="718" y="300"/>
    </contour>
    <contour>
      <point x="288" y="932" type="line"/>
      <point x="706" y="1068" type="line"/>
      <point x="706" y="1082" type="line"/>
      <point x="1104" y="1214" type="line"/>
      <point x="1152" y="1438" type="line"/>
      <point x="738" y="1300" type="line"/>
      <point x="734" y="1286" type="line"/>
      <point x="338" y="1158" type="line"/>
    </contour>
  </outline>
</glyph>
<glyph name="divide" format="2">
  <advance width="1297"/>
  <unicode hex="00F7"/>
  <outline>
    <contour>
      <point x="72" y="536" type="line"/>
      <point x="1272" y="536" type="line"/>
      <point x="1328" y="804" type="line"/>
      <point x="128" y="804" type="line"/>
    </contour>
    <contour>
      <point x="596" y="90" type="curve" smooth="yes"/>
      <point x="704" y="90"/>
      <point x="800" y="184"/>
      <point x="800" y="288" type="curve" smooth="yes"/>
      <point x="800" y="378"/>
      <point x="732" y="452"/>
      <point x="634" y="452" type="curve" smooth="yes"/>
      <point x="528" y="452"/>
      <point x="430" y="358"/>
      <point x="430" y="252" type="curve" smooth="yes"/>
      <point x="430" y="164"/>
      <point x="502" y="90"/>
    </contour>
    <contour>
      <point x="766" y="886" type="curve" smooth="yes"/>
      <point x="874" y="886"/>
      <point x="970" y="980"/>
      <point x="970" y="1084" type="curve" smooth="yes"/>
      <point x="970" y="1174"/>
      <point x="902" y="1248"/>
      <point x="804" y="1248" type="curve" smooth="yes"/>
      <point x="700" y="1248"/>
      <point x="598" y="1156"/>
      <point x="598" y="1052" type="curve" smooth="yes"/>
      <point x="598" y="962"/>
      <point x="670" y="886"/>
    </contour>
  </outline>
</glyph>
<glyph name="oslash" format="2">
  <advance width="1292"/>
  <unicode hex="00F8"/>
  <guideline x="560" y="578" angle="133.8466"/>
  <anchor x="754" y="1040" name="top"/>
  <outline>
    <contour>
      <point x="284" y="0" type="line"/>
      <point x="318" y="32" type="line"/>
      <point x="392" y="-10"/>
      <point x="488" y="-30"/>
      <point x="592" y="-30" type="curve" smooth="yes"/>
      <point x="934" y="-30"/>
      <point x="1238" y="242"/>
      <point x="1238" y="572" type="curve" smooth="yes"/>
      <point x="1238" y="674"/>
      <point x="1210" y="770"/>
      <point x="1156" y="848" type="curve"/>
      <point x="1357" y="1040" type="line"/>
      <point x="1001" y="1040" type="line"/>
      <point x="968" y="1008" type="line"/>
      <point x="894" y="1050"/>
      <point x="800" y="1070"/>
      <point x="696" y="1070" type="curve" smooth="yes"/>
      <point x="354" y="1070"/>
      <point x="50" y="802"/>
      <point x="50" y="466" type="curve" smooth="yes"/>
      <point x="50" y="366"/>
      <point x="78" y="272"/>
      <point x="130" y="194" type="curve"/>
      <point x="-73" y="0" type="line"/>
    </contour>
    <contour>
      <point x="414" y="450" type="line"/>
      <point x="412" y="458"/>
      <point x="412" y="468"/>
      <point x="412" y="476" type="curve" smooth="yes"/>
      <point x="412" y="628"/>
      <point x="520" y="758"/>
      <point x="682" y="758" type="curve" smooth="yes"/>
      <point x="694" y="758"/>
      <point x="712" y="756"/>
      <point x="726" y="752" type="curve"/>
    </contour>
    <contour>
      <point x="590" y="282" type="curve" smooth="yes"/>
      <point x="578" y="282"/>
      <point x="566" y="284"/>
      <point x="554" y="286" type="curve"/>
      <point x="876" y="594" type="line"/>
      <point x="878" y="588"/>
      <point x="878" y="580"/>
      <point x="878" y="574" type="curve" smooth="yes"/>
      <point x="878" y="406"/>
      <point x="756" y="282"/>
    </contour>
  </outline>
</glyph>
<glyph name="thorn" format="2">
  <advance width="1373"/>
  <unicode hex="00FE"/>
  <outline>
    <contour>
      <point x="-68" y="-420" type="line"/>
      <point x="330" y="-420" type="line"/>
      <point x="436" y="76" type="line"/>
      <point x="516" y="4"/>
      <point x="622" y="-30"/>
      <point x="732" y="-30" type="curve" smooth="yes"/>
      <point x="1076" y="-30"/>
      <point x="1326" y="260"/>
      <point x="1326" y="608" type="curve" smooth="yes"/>
      <point x="1326" y="876"/>
      <point x="1142" y="1070"/>
      <point x="852" y="1070" type="curve" smooth="yes"/>
      <point x="770" y="1070"/>
      <point x="700" y="1052"/>
      <point x="634" y="1012" type="curve"/>
      <point x="736" y="1480" type="line"/>
      <point x="294" y="1294" type="line"/>
    </contour>
    <contour>
      <point x="706" y="310" type="curve" smooth="yes"/>
      <point x="598" y="310"/>
      <point x="524" y="382"/>
      <point x="524" y="496" type="curve" smooth="yes"/>
      <point x="524" y="618"/>
      <point x="614" y="730"/>
      <point x="750" y="730" type="curve" smooth="yes"/>
      <point x="856" y="730"/>
      <point x="932" y="664"/>
      <point x="932" y="556" type="curve" smooth="yes"/>
      <point x="932" y="404"/>
      <point x="828" y="310"/>
    </contour>
  </outline>
</glyph>
<glyph name="Lslash" format="2">
  <advance width="1192"/>
  <unicode hex="0141"/>
  <anchor x="555.0" y="0" name="bottom"/>
  <anchor x="800.384" y="1440" name="caron"/>
  <anchor x="588.29" y="1400" name="top"/>
  <outline>
    <contour>
      <point x="-53" y="356" type="line"/>
      <point x="379" y="538" type="line"/>
      <point x="371" y="498" type="line"/>
      <point x="1089" y="804" type="line"/>
      <point x="1163" y="1152" type="line"/>
      <point x="445" y="846" type="line"/>
      <point x="453" y="886" type="line"/>
      <point x="21" y="704" type="line"/>
    </contour>
    <component base="L" yxScale="0.00235" xOffset="39"/>
  </outline>
</glyph>
<glyph name="lslash" format="2">
  <advance width="776"/>
  <unicode hex="0142"/>
  <anchor x="274.0" y="0" name="bottom"/>
  <anchor x="785.384" y="1440" name="caron"/>
  <anchor x="585.384" y="1440" name="top"/>
  <outline>
    <contour>
      <point x="-42" y="340" type="line"/>
      <point x="402" y="530" type="line"/>
      <point x="396" y="490" type="line"/>
      <point x="810" y="660" type="line"/>
      <point x="886" y="1020" type="line"/>
      <point x="444" y="838" type="line"/>
      <point x="448" y="878" type="line"/>
      <point x="34" y="700" type="line"/>
    </contour>
    <component base="l" yxScale="0.00235" xOffset="56"/>
  </outline>
</glyph>
<glyph name="Eng" format="2">
  <advance width="1599"/>
  <unicode hex="014A"/>
  <guideline x="352" y="-49" angle="78.0619"/>
  <outline>
    <contour>
      <point x="962" y="-66" type="line"/>
      <point x="1092" y="596" type="line"/>
      <point x="740" y="1400" type="line"/>
      <point x="344" y="1400" type="line"/>
      <point x="48" y="0" type="line"/>
      <point x="438" y="0" type="line"/>
      <point x="604" y="776" type="line"/>
    </contour>
    <contour>
      <point x="864" y="-450" type="curve" smooth="yes"/>
      <point x="1094" y="-450"/>
      <point x="1270" y="-290"/>
      <point x="1324" y="-36" type="curve" smooth="yes"/>
      <point x="1628" y="1400" type="line"/>
      <point x="1238" y="1400" type="line"/>
      <point x="932" y="-40" type="line" smooth="yes"/>
      <point x="920" y="-96"/>
      <point x="878" y="-126"/>
      <point x="814" y="-126" type="curve" smooth="yes"/>
      <point x="756" y="-126"/>
      <point x="710" y="-118"/>
      <point x="664" y="-98" type="curve"/>
      <point x="602" y="-390" type="line"/>
      <point x="674" y="-432"/>
      <point x="748" y="-450"/>
    </contour>
  </outline>
</glyph>
<glyph name="OE" format="2">
  <advance width="2325"/>
  <unicode hex="0152"/>
  <outline>
    <contour>
      <point x="749" y="-30" type="curve" smooth="yes"/>
      <point x="969" y="-30"/>
      <point x="1137" y="48"/>
      <point x="1237" y="176" type="curve"/>
      <point x="1205" y="246" type="line"/>
      <point x="1155" y="0" type="line"/>
      <point x="2071" y="0" type="line"/>
      <point x="2225" y="352" type="line"/>
      <point x="1543" y="352" type="line"/>
      <point x="1585" y="552" type="line"/>
      <point x="2105" y="552" type="line"/>
      <point x="2173" y="870" type="line"/>
      <point x="1653" y="870" type="line"/>
      <point x="1691" y="1052" type="line"/>
      <point x="2325" y="1052" type="line"/>
      <point x="2399" y="1400" type="line"/>
      <point x="1381" y="1400" type="line"/>
      <point x="1321" y="1120" type="line"/>
      <point x="1417" y="1214" type="line"/>
      <point x="1299" y="1368"/>
      <point x="1133" y="1430"/>
      <point x="897" y="1430" type="curve" smooth="yes"/>
      <point x="463" y="1430"/>
      <point x="119" y="1064"/>
      <point x="119" y="612" type="curve" smooth="yes"/>
      <point x="119" y="246"/>
      <point x="381" y="-30"/>
    </contour>
    <contour>
      <point x="849" y="348" type="curve" smooth="yes"/>
      <point x="665" y="348"/>
      <point x="547" y="460"/>
      <point x="547" y="642" type="curve" smooth="yes"/>
      <point x="547" y="870"/>
      <point x="697" y="1052"/>
      <point x="917" y="1052" type="curve" smooth="yes"/>
      <point x="1101" y="1052"/>
      <point x="1219" y="938"/>
      <point x="1219" y="754" type="curve" smooth="yes"/>
      <point x="1219" y="528"/>
      <point x="1069" y="348"/>
    </contour>
  </outline>
</glyph>
<glyph name="Uogonek" format="2">
  <advance width="1545"/>
  <unicode hex="0172"/>
  <anchor x="959" y="1400" name="top"/>
  <outline>
    <contour>
      <point x="785" y="-449" type="curve" smooth="yes"/>
      <point x="852" y="-449"/>
      <point x="913" y="-437"/>
      <point x="971" y="-407" type="curve"/>
      <point x="1020" y="-174" type="line"/>
      <point x="981" y="-213"/>
      <point x="930" y="-229"/>
      <point x="879" y="-229" type="curve" smooth="yes"/>
      <point x="836" y="-229"/>
      <point x="802" y="-205"/>
      <point x="802" y="-158" type="curve" smooth="yes"/>
      <point x="802" y="-63"/>
      <point x="868" y="-19"/>
      <point x="950" y="6" type="curve" smooth="yes"/>
      <point x="1192" y="87"/>
      <point x="1348" y="297"/>
      <point x="1411" y="596" type="curve" smooth="yes"/>
      <point x="1581" y="1400" type="line"/>
      <point x="1175" y="1400" type="line"/>
      <point x="999" y="574" type="line" smooth="yes"/>
      <point x="965" y="412"/>
      <point x="873" y="348"/>
      <point x="745" y="348" type="curve" smooth="yes"/>
      <point x="591" y="348"/>
      <point x="533" y="424"/>
      <point x="565" y="574" type="curve" smooth="yes"/>
      <point x="741" y="1400" type="line"/>
      <point x="337" y="1400" type="line"/>
      <point x="167" y="596" type="line" smooth="yes"/>
      <point x="88" y="226"/>
      <point x="282" y="-1"/>
      <point x="640" y="-27" type="curve"/>
      <point x="594" y="-83"/>
      <point x="566" y="-152"/>
      <point x="566" y="-235" type="curve" smooth="yes"/>
      <point x="566" y="-365"/>
      <point x="663" y="-449"/>
    </contour>
  </outline>
</glyph>
<glyph name="Schwa" format="2">
  <advance width="1623"/>
  <unicode hex="018F"/>
  <guideline x="207" y="473" angle="78.0239"/>
  <outline>
    <contour>
      <point x="761" y="-30" type="curve" smooth="yes"/>
      <point x="1231" y="-30"/>
      <point x="1593" y="332"/>
      <point x="1593" y="804" type="curve" smooth="yes"/>
      <point x="1593" y="1202"/>
      <point x="1301" y="1430"/>
      <point x="853" y="1430" type="curve" smooth="yes"/>
      <point x="707" y="1430"/>
      <point x="580" y="1401"/>
      <point x="473" y="1358" type="curve"/>
      <point x="385" y="946" type="line"/>
      <point x="493" y="1020"/>
      <point x="645" y="1056"/>
      <point x="789" y="1056" type="curve" smooth="yes"/>
      <point x="1049" y="1056"/>
      <point x="1175" y="940"/>
      <point x="1175" y="754" type="curve" smooth="yes"/>
      <point x="1175" y="508"/>
      <point x="1041" y="308"/>
      <point x="791" y="308" type="curve" smooth="yes"/>
      <point x="555" y="308"/>
      <point x="457" y="454"/>
      <point x="505" y="680" type="curve"/>
      <point x="317" y="526" type="line"/>
      <point x="1301" y="526" type="line"/>
      <point x="1369" y="822" type="line"/>
      <point x="135" y="822" type="line"/>
      <point x="3" y="308"/>
      <point x="245" y="-30"/>
    </contour>
  </outline>
</glyph>
<glyph name="Oogonek" format="2">
  <advance width="1684"/>
  <unicode hex="01EA"/>
  <anchor x="992" y="1400" name="top"/>
  <outline>
    <contour>
      <point x="759" y="-158" type="curve" smooth="yes"/>
      <point x="759" y="-66"/>
      <point x="850" y="-32"/>
      <point x="950" y="-18" type="curve"/>
      <point x="982" y="99" type="line"/>
      <point x="739" y="72"/>
      <point x="523" y="-38"/>
      <point x="523" y="-235" type="curve" smooth="yes"/>
      <point x="523" y="-365"/>
      <point x="620" y="-449"/>
      <point x="742" y="-449" type="curve" smooth="yes"/>
      <point x="809" y="-449"/>
      <point x="870" y="-437"/>
      <point x="928" y="-407" type="curve"/>
      <point x="977" y="-174" type="line"/>
      <point x="938" y="-213"/>
      <point x="887" y="-229"/>
      <point x="836" y="-229" type="curve" smooth="yes"/>
      <point x="793" y="-229"/>
      <point x="759" y="-205"/>
    </contour>
    <contour>
      <point x="812" y="-30" type="curve" smooth="yes"/>
      <point x="1268" y="-30"/>
      <point x="1642" y="332"/>
      <point x="1642" y="782" type="curve" smooth="yes"/>
      <point x="1642" y="1148"/>
      <point x="1366" y="1430"/>
      <point x="946" y="1430" type="curve" smooth="yes"/>
      <point x="490" y="1430"/>
      <point x="118" y="1070"/>
      <point x="118" y="614" type="curve" smooth="yes"/>
      <point x="118" y="244"/>
      <point x="394" y="-30"/>
    </contour>
    <contour>
      <point x="846" y="348" type="curve" smooth="yes"/>
      <point x="662" y="348"/>
      <point x="544" y="462"/>
      <point x="544" y="644" type="curve" smooth="yes"/>
      <point x="544" y="872"/>
      <point x="694" y="1052"/>
      <point x="914" y="1052" type="curve" smooth="yes"/>
      <point x="1098" y="1052"/>
      <point x="1216" y="938"/>
      <point x="1216" y="756" type="curve" smooth="yes"/>
      <point x="1216" y="528"/>
      <point x="1066" y="348"/>
    </contour>
  </outline>
</glyph>
<glyph name="oogonek" format="2">
  <advance width="1292"/>
  <unicode hex="01EB"/>
  <anchor x="730" y="1040" name="top"/>
  <outline>
    <contour>
      <point x="544" y="-449" type="curve" smooth="yes"/>
      <point x="611" y="-449"/>
      <point x="672" y="-437"/>
      <point x="730" y="-407" type="curve"/>
      <point x="779" y="-174" type="line"/>
      <point x="740" y="-213"/>
      <point x="689" y="-229"/>
      <point x="638" y="-229" type="curve" smooth="yes"/>
      <point x="590" y="-229"/>
      <point x="561" y="-202"/>
      <point x="561" y="-158" type="curve" smooth="yes"/>
      <point x="561" y="-76"/>
      <point x="630" y="-35"/>
      <point x="713" y="-19" type="curve" smooth="yes"/>
      <point x="1005" y="37"/>
      <point x="1242" y="282"/>
      <point x="1242" y="578" type="curve" smooth="yes"/>
      <point x="1242" y="848"/>
      <point x="1032" y="1070"/>
      <point x="698" y="1070" type="curve" smooth="yes"/>
      <point x="352" y="1070"/>
      <point x="50" y="796"/>
      <point x="50" y="464" type="curve" smooth="yes"/>
      <point x="50" y="240"/>
      <point x="191" y="50"/>
      <point x="428" y="-10" type="curve"/>
      <point x="364" y="-67"/>
      <point x="325" y="-141"/>
      <point x="325" y="-235" type="curve" smooth="yes"/>
      <point x="325" y="-365"/>
      <point x="422" y="-449"/>
    </contour>
    <contour>
      <point x="624" y="310" type="curve" smooth="yes"/>
      <point x="518" y="310"/>
      <point x="442" y="380"/>
      <point x="442" y="490" type="curve" smooth="yes"/>
      <point x="442" y="616"/>
      <point x="532" y="730"/>
      <point x="668" y="730" type="curve" smooth="yes"/>
      <point x="776" y="730"/>
      <point x="850" y="662"/>
      <point x="850" y="552" type="curve" smooth="yes"/>
      <point x="850" y="426"/>
      <point x="762" y="310"/>
    </contour>
  </outline>
</glyph>
<glyph name="acutecomb" format="2">
  <unicode hex="0301"/>
  <anchor x="-706" y="1040" name="_top"/>
  <outline>
    <contour>
      <point x="-878" y="1170" type="line"/>
      <point x="-508" y="1170" type="line"/>
      <point x="-206" y="1544" type="line"/>
      <point x="-614" y="1544" type="line"/>
    </contour>
  </outline>
</glyph>
<glyph name="tildecomb" format="2">
  <unicode hex="0303"/>
  <anchor x="-706" y="1040" name="_top"/>
  <anchor x="-616" y="1464" name="top"/>
  <outline>
    <contour>
      <point x="-1101" y="1178" type="line"/>
      <point x="-1033" y="1240"/>
      <point x="-952" y="1280"/>
      <point x="-872" y="1280" type="curve" smooth="yes"/>
      <point x="-752" y="1280"/>
      <point x="-622" y="1180"/>
      <point x="-468" y="1180" type="curve" smooth="yes"/>
      <point x="-377" y="1180"/>
      <point x="-300" y="1215"/>
      <point x="-231" y="1270" type="curve"/>
      <point x="-174" y="1536" type="line"/>
      <point x="-241" y="1474"/>
      <point x="-322" y="1434"/>
      <point x="-402" y="1434" type="curve" smooth="yes"/>
      <point x="-522" y="1434"/>
      <point x="-652" y="1534"/>
      <point x="-806" y="1534" type="curve" smooth="yes"/>
      <point x="-901" y="1534"/>
      <point x="-975" y="1499"/>
      <point x="-1044" y="1445" type="curve"/>
    </contour>
  </outline>
</glyph>
<glyph name="brevecomb" format="2">
  <unicode hex="0306"/>
  <anchor x="-704" y="1040" name="_top"/>
  <anchor x="-610" y="1484" name="top"/>
  <outline>
    <contour>
      <point x="-630" y="1160" type="curve" smooth="yes"/>
      <point x="-376" y="1160"/>
      <point x="-184" y="1314"/>
      <point x="-164" y="1544" type="curve"/>
      <point x="-484" y="1544" type="line"/>
      <point x="-490" y="1462"/>
      <point x="-542" y="1410"/>
      <point x="-616" y="1410" type="curve" smooth="yes"/>
      <point x="-698" y="1410"/>
      <point x="-736" y="1472"/>
      <point x="-722" y="1544" type="curve"/>
      <point x="-1044" y="1544" type="line"/>
      <point x="-1074" y="1310"/>
      <point x="-896" y="1160"/>
    </contour>
  </outline>
</glyph>
<glyph name="hookabovecomb" format="2">
  <unicode hex="0309"/>
  <guideline x="-272" y="817" angle="0"/>
  <guideline x="-432" y="700" angle="78.0239"/>
  <anchor x="-706" y="1040" name="_top"/>
  <outline>
    <contour>
      <point x="-794" y="1170" type="curve"/>
      <point x="-558" y="1170" type="line"/>
      <point x="-570" y="1214"/>
      <point x="-548" y="1232"/>
      <point x="-480" y="1262" type="curve" smooth="yes"/>
      <point x="-390" y="1302"/>
      <point x="-328" y="1354"/>
      <point x="-328" y="1454" type="curve" smooth="yes"/>
      <point x="-328" y="1564"/>
      <point x="-438" y="1634"/>
      <point x="-626" y="1634" type="curve" smooth="yes"/>
      <point x="-706" y="1634"/>
      <point x="-796" y="1620"/>
      <point x="-862" y="1594" type="curve"/>
      <point x="-904" y="1400" type="line"/>
      <point x="-850" y="1416"/>
      <point x="-798" y="1426"/>
      <point x="-732" y="1426" type="curve" smooth="yes"/>
      <point x="-682" y="1426"/>
      <point x="-642" y="1416"/>
      <point x="-642" y="1396" type="curve" smooth="yes"/>
      <point x="-642" y="1370"/>
      <point x="-660" y="1362"/>
      <point x="-710" y="1348" type="curve" smooth="yes"/>
      <point x="-808" y="1322"/>
      <point x="-834" y="1262"/>
    </contour>
  </outline>
</glyph>
<glyph name="ringcomb" format="2">
  <unicode hex="030A"/>
  <anchor x="-712" y="1040" name="_top"/>
  <anchor x="-596" y="1584" name="top"/>
  <outline>
    <contour>
      <point x="-666" y="1110" type="curve" smooth="yes"/>
      <point x="-492" y="1110"/>
      <point x="-336" y="1242"/>
      <point x="-336" y="1412" type="curve" smooth="yes"/>
      <point x="-336" y="1556"/>
      <point x="-450" y="1666"/>
      <point x="-610" y="1666" type="curve" smooth="yes"/>
      <point x="-786" y="1666"/>
      <point x="-940" y="1534"/>
      <point x="-940" y="1362" type="curve" smooth="yes"/>
      <point x="-940" y="1220"/>
      <point x="-826" y="1110"/>
    </contour>
    <contour>
      <point x="-650" y="1288" type="curve" smooth="yes"/>
      <point x="-706" y="1288"/>
      <point x="-740" y="1324"/>
      <point x="-740" y="1374" type="curve" smooth="yes"/>
      <point x="-740" y="1438"/>
      <point x="-690" y="1488"/>
      <point x="-626" y="1488" type="curve" smooth="yes"/>
      <point x="-570" y="1488"/>
      <point x="-536" y="1452"/>
      <point x="-536" y="1402" type="curve" smooth="yes"/>
      <point x="-536" y="1338"/>
      <point x="-586" y="1288"/>
    </contour>
  </outline>
</glyph>
<glyph name="hungarumlautcomb" format="2">
  <unicode hex="030B"/>
  <anchor x="-706" y="1040" name="_top"/>
  <outline>
    <contour>
      <point x="-606" y="1170" type="line"/>
      <point x="-236" y="1170" type="line"/>
      <point x="66" y="1544" type="line"/>
      <point x="-342" y="1544" type="line"/>
    </contour>
    <contour>
      <point x="-1146" y="1170" type="line"/>
      <point x="-776" y="1170" type="line"/>
      <point x="-474" y="1544" type="line"/>
      <point x="-882" y="1544" type="line"/>
    </contour>
  </outline>
</glyph>
<glyph name="caroncomb" format="2">
  <unicode hex="030C"/>
  <anchor x="-706" y="1040" name="_top"/>
  <outline>
    <contour>
      <point x="-846" y="1170" type="line"/>
      <point x="-508" y="1170" type="line"/>
      <point x="-110" y="1544" type="line"/>
      <point x="-490" y="1544" type="line"/>
      <point x="-638" y="1386" type="line"/>
      <point x="-716" y="1544" type="line"/>
      <point x="-1068" y="1544" type="line"/>
    </contour>
  </outline>
</glyph>
<glyph name="dblgravecomb" format="2">
  <unicode hex="030F"/>
  <anchor x="-706" y="1040" name="_top"/>
  <outline>
    <contour>
      <point x="-558" y="1170" type="line"/>
      <point x="-208" y="1170" type="line"/>
      <point x="-338" y="1544" type="line"/>
      <point x="-722" y="1544" type="line"/>
    </contour>
    <contour>
      <point x="-1098" y="1170" type="line"/>
      <point x="-748" y="1170" type="line"/>
      <point x="-878" y="1544" type="line"/>
      <point x="-1262" y="1544" type="line"/>
    </contour>
  </outline>
</glyph>
<glyph name="commaturnedabovecomb" format="2">
  <unicode hex="0312"/>
  <anchor x="-732" y="1040" name="_top"/>
  <outline>
    <contour>
      <point x="-650" y="1174" type="curve" smooth="yes"/>
      <point x="-517" y="1174"/>
      <point x="-417" y="1272"/>
      <point x="-417" y="1394" type="curve" smooth="yes"/>
      <point x="-417" y="1509"/>
      <point x="-522" y="1589"/>
      <point x="-638" y="1578" type="curve"/>
      <point x="-595" y="1673"/>
      <point x="-473" y="1727"/>
      <point x="-338" y="1733" type="curve"/>
      <point x="-301" y="1935" type="line"/>
      <point x="-632" y="1909"/>
      <point x="-908" y="1724"/>
      <point x="-908" y="1436" type="curve" smooth="yes"/>
      <point x="-908" y="1274"/>
      <point x="-801" y="1174"/>
    </contour>
  </outline>
</glyph>
<glyph name="horncomb" format="2">
  <unicode hex="031B"/>
  <anchor x="-242" y="1040" name="_horn"/>
  <outline>
    <contour>
      <point x="-176" y="752" type="curve" smooth="yes"/>
      <point x="6" y="752"/>
      <point x="138" y="884"/>
      <point x="138" y="1046" type="curve" smooth="yes"/>
      <point x="138" y="1128"/>
      <point x="104" y="1220"/>
      <point x="32" y="1296" type="curve"/>
      <point x="-200" y="1180" type="line"/>
      <point x="-160" y="1132"/>
      <point x="-144" y="1088"/>
      <point x="-144" y="1052" type="curve" smooth="yes"/>
      <point x="-144" y="1010"/>
      <point x="-172" y="978"/>
      <point x="-226" y="978" type="curve" smooth="yes"/>
      <point x="-320" y="978"/>
      <point x="-444" y="1070"/>
      <point x="-674" y="1070" type="curve"/>
      <point x="-716" y="860" type="line"/>
      <point x="-528" y="874"/>
      <point x="-356" y="752"/>
    </contour>
  </outline>
</glyph>
<glyph name="commaaccentcomb" format="2">
  <unicode hex="0326"/>
  <anchor x="-544" y="0" name="_bottom"/>
  <outline>
    <contour>
      <point x="-975" y="-895" type="line"/>
      <point x="-644" y="-869"/>
      <point x="-368" y="-684"/>
      <point x="-368" y="-396" type="curve" smooth="yes"/>
      <point x="-368" y="-234"/>
      <point x="-475" y="-134"/>
      <point x="-626" y="-134" type="curve" smooth="yes"/>
      <point x="-759" y="-134"/>
      <point x="-859" y="-232"/>
      <point x="-859" y="-354" type="curve" smooth="yes"/>
      <point x="-859" y="-469"/>
      <point x="-754" y="-549"/>
      <point x="-638" y="-538" type="curve"/>
      <point x="-681" y="-633"/>
      <point x="-803" y="-687"/>
      <point x="-938" y="-693" type="curve"/>
    </contour>
  </outline>
</glyph>
<glyph name="cedillacomb" format="2">
  <unicode hex="0327"/>
  <guideline x="-433" y="-115" angle="78"/>
  <anchor x="-614" y="0" name="_bottom"/>
  <outline>
    <contour>
      <point x="-696" y="-450" type="curve" smooth="yes"/>
      <point x="-488" y="-450"/>
      <point x="-352" y="-368"/>
      <point x="-352" y="-234" type="curve" smooth="yes"/>
      <point x="-352" y="-152"/>
      <point x="-422" y="-86"/>
      <point x="-562" y="-60" type="curve"/>
      <point x="-506" y="40" type="line"/>
      <point x="-710" y="40" type="line"/>
      <point x="-802" y="-76" type="line"/>
      <point x="-750" y="-218" type="line"/>
      <point x="-688" y="-206"/>
      <point x="-620" y="-218"/>
      <point x="-620" y="-242" type="curve" smooth="yes"/>
      <point x="-620" y="-258"/>
      <point x="-646" y="-268"/>
      <point x="-698" y="-268" type="curve" smooth="yes"/>
      <point x="-802" y="-268"/>
      <point x="-886" y="-244"/>
      <point x="-940" y="-202" type="curve"/>
      <point x="-978" y="-370" type="line"/>
      <point x="-900" y="-424"/>
      <point x="-786" y="-450"/>
    </contour>
  </outline>
</glyph>
<glyph name="strokeshortcomb" format="2">
  <unicode hex="0335"/>
  <anchor x="-642" y="534" name="_bar"/>
  <outline>
    <contour>
      <point x="-1064" y="428" type="line"/>
      <point x="-264" y="428" type="line"/>
      <point x="-218" y="640" type="line"/>
      <point x="-1018" y="640" type="line"/>
    </contour>
  </outline>
</glyph>
<glyph name="lowernumeral-greek" format="2">
  <advance width="514"/>
  <unicode hex="0375"/>
  <outline>
    <contour>
      <point x="-192" y="-420" type="line"/>
      <point x="178" y="-420" type="line"/>
      <point x="374" y="118" type="line"/>
      <point x="84" y="118" type="line"/>
    </contour>
  </outline>
</glyph>
<glyph name="tonos" format="2">
  <advance width="559"/>
  <unicode hex="0384"/>
  <anchor x="360" y="1040" name="_top"/>
  <outline>
    <contour>
      <point x="180" y="1170" type="line"/>
      <point x="540" y="1170" type="line"/>
      <point x="796" y="1544" type="line"/>
      <point x="400" y="1544" type="line"/>
    </contour>
  </outline>
</glyph>
<glyph name="dieresistonos" format="2">
  <unicode hex="0385"/>
  <anchor x="-642" y="1040" name="_top"/>
  <outline>
    <contour>
      <point x="-726" y="1330" type="line"/>
      <point x="-486" y="1330" type="line"/>
      <point x="-284" y="1704" type="line"/>
      <point x="-600" y="1704" type="line"/>
    </contour>
    <contour>
      <point x="-986" y="1186" type="curve" smooth="yes"/>
      <point x="-882" y="1186"/>
      <point x="-786" y="1260"/>
      <point x="-762" y="1374" type="curve" smooth="yes"/>
      <point x="-739" y="1484"/>
      <point x="-804" y="1562"/>
      <point x="-906" y="1562" type="curve" smooth="yes"/>
      <point x="-1010" y="1562"/>
      <point x="-1104" y="1488"/>
      <point x="-1130" y="1374" type="curve" smooth="yes"/>
      <point x="-1156" y="1260"/>
      <point x="-1090" y="1186"/>
    </contour>
    <contour>
      <point x="-238" y="1186" type="curve" smooth="yes"/>
      <point x="-134" y="1186"/>
      <point x="-38" y="1260"/>
      <point x="-14" y="1374" type="curve" smooth="yes"/>
      <point x="10" y="1488"/>
      <point x="-54" y="1562"/>
      <point x="-158" y="1562" type="curve" smooth="yes"/>
      <point x="-262" y="1562"/>
      <point x="-357" y="1490"/>
      <point x="-382" y="1374" type="curve" smooth="yes"/>
      <point x="-407" y="1260"/>
      <point x="-342" y="1186"/>
    </contour>
  </outline>
</glyph>
<glyph name="Theta" format="2">
  <advance width="1684"/>
  <unicode hex="0398"/>
  <outline>
    <contour>
      <point x="812" y="-30" type="curve" smooth="yes"/>
      <point x="1268" y="-30"/>
      <point x="1642" y="332"/>
      <point x="1642" y="782" type="curve" smooth="yes"/>
      <point x="1642" y="1148"/>
      <point x="1366" y="1430"/>
      <point x="946" y="1430" type="curve" smooth="yes"/>
      <point x="490" y="1430"/>
      <point x="118" y="1070"/>
      <point x="118" y="614" type="curve" smooth="yes"/>
      <point x="118" y="244"/>
      <point x="394" y="-30"/>
    </contour>
    <contour>
      <point x="612" y="556" type="line"/>
      <point x="1042" y="556" type="line"/>
      <point x="1100" y="836" type="line"/>
      <point x="730" y="836" type="line"/>
    </contour>
    <contour>
      <point x="846" y="348" type="curve" smooth="yes"/>
      <point x="662" y="348"/>
      <point x="544" y="462"/>
      <point x="544" y="644" type="curve" smooth="yes"/>
      <point x="544" y="872"/>
      <point x="694" y="1052"/>
      <point x="914" y="1052" type="curve" smooth="yes"/>
      <point x="1098" y="1052"/>
      <point x="1216" y="938"/>
      <point x="1216" y="756" type="curve" smooth="yes"/>
      <point x="1216" y="528"/>
      <point x="1066" y="348"/>
    </contour>
  </outline>
</glyph>
<glyph name="Xi" format="2">
  <advance width="1281"/>
  <unicode hex="039E"/>
  <outline>
    <contour>
      <point x="-25" y="0" type="line"/>
      <point x="1027" y="0" type="line"/>
      <point x="1181" y="352" type="line"/>
      <point x="49" y="352" type="line"/>
    </contour>
    <contour>
      <point x="199" y="548" type="line"/>
      <point x="1041" y="548" type="line"/>
      <point x="1109" y="866" type="line"/>
      <point x="337" y="866" type="line"/>
    </contour>
    <contour>
      <point x="177" y="1052" type="line"/>
      <point x="1269" y="1052" type="line"/>
      <point x="1343" y="1400" type="line"/>
      <point x="331" y="1400" type="line"/>
    </contour>
  </outline>
</glyph>
<glyph name="Sigma" format="2">
  <advance width="1199"/>
  <unicode hex="03A3"/>
  <outline>
    <contour>
      <point x="-83" y="0" type="line"/>
      <point x="939" y="0" type="line"/>
      <point x="1093" y="356" type="line"/>
      <point x="509" y="356" type="line"/>
      <point x="857" y="716" type="line"/>
      <point x="627" y="1044" type="line"/>
      <point x="1185" y="1044" type="line"/>
      <point x="1259" y="1400" type="line"/>
      <point x="231" y="1400" type="line"/>
      <point x="163" y="1074" type="line"/>
      <point x="407" y="710" type="line"/>
      <point x="-15" y="328" type="line"/>
    </contour>
  </outline>
</glyph>
<glyph name="Omega" format="2">
  <advance width="1632"/>
  <unicode hex="03A9"/>
  <anchor x="724" y="0" name="bottom"/>
  <anchor x="290" y="1400" name="topleft"/>
  <outline>
    <contour>
      <point x="-56" y="0" type="line"/>
      <point x="648" y="0" type="line"/>
      <point x="722" y="344" type="line"/>
      <point x="598" y="424"/>
      <point x="540" y="534"/>
      <point x="540" y="676" type="curve" smooth="yes"/>
      <point x="540" y="890"/>
      <point x="674" y="1052"/>
      <point x="898" y="1052" type="curve" smooth="yes"/>
      <point x="1090" y="1052"/>
      <point x="1202" y="934"/>
      <point x="1202" y="758" type="curve" smooth="yes"/>
      <point x="1202" y="570"/>
      <point x="1074" y="432"/>
      <point x="862" y="344" type="curve"/>
      <point x="788" y="0" type="line"/>
      <point x="1432" y="0" type="line"/>
      <point x="1586" y="350" type="line"/>
      <point x="1232" y="350" type="line"/>
      <point x="1478" y="456"/>
      <point x="1624" y="636"/>
      <point x="1624" y="884" type="curve" smooth="yes"/>
      <point x="1624" y="1216"/>
      <point x="1328" y="1430"/>
      <point x="932" y="1430" type="curve" smooth="yes"/>
      <point x="470" y="1430"/>
      <point x="118" y="1176"/>
      <point x="118" y="770" type="curve" smooth="yes"/>
      <point x="118" y="544"/>
      <point x="240" y="402"/>
      <point x="352" y="350" type="curve"/>
      <point x="18" y="350" type="line"/>
    </contour>
  </outline>
</glyph>
<glyph name="alpha" format="2">
  <advance width="1412"/>
  <unicode hex="03B1"/>
  <anchor x="836" y="1040" name="top"/>
  <outline>
    <contour>
      <point x="438" y="-30" type="curve" smooth="yes"/>
      <point x="584" y="-30"/>
      <point x="736" y="30"/>
      <point x="832" y="150" type="curve"/>
      <point x="852" y="-22"/>
      <point x="1058" y="-78"/>
      <point x="1220" y="0" type="curve"/>
      <point x="1288" y="322" type="line"/>
      <point x="1116" y="276"/>
      <point x="1120" y="358"/>
      <point x="1186" y="520" type="curve" smooth="yes"/>
      <point x="1396" y="1040" type="line"/>
      <point x="1030" y="1040" type="line"/>
      <point x="974" y="890" type="line"/>
      <point x="908" y="1016"/>
      <point x="780" y="1070"/>
      <point x="640" y="1070" type="curve" smooth="yes"/>
      <point x="294" y="1070"/>
      <point x="42" y="754"/>
      <point x="42" y="408" type="curve" smooth="yes"/>
      <point x="42" y="114"/>
      <point x="212" y="-30"/>
    </contour>
    <contour>
      <point x="572" y="310" type="curve" smooth="yes"/>
      <point x="496" y="310"/>
      <point x="430" y="362"/>
      <point x="430" y="472" type="curve" smooth="yes"/>
      <point x="430" y="588"/>
      <point x="504" y="730"/>
      <point x="632" y="730" type="curve" smooth="yes"/>
      <point x="736" y="730"/>
      <point x="782" y="638"/>
      <point x="782" y="514" type="curve"/>
      <point x="754" y="378"/>
      <point x="658" y="310"/>
    </contour>
  </outline>
</glyph>
<glyph name="beta" format="2">
  <advance width="1331"/>
  <unicode hex="03B2"/>
  <outline>
    <contour>
      <point x="-71" y="-420" type="line"/>
      <point x="329" y="-420" type="line"/>
      <point x="433" y="78" type="line"/>
      <point x="499" y="2"/>
      <point x="629" y="-24"/>
      <point x="745" y="-24" type="curve" smooth="yes"/>
      <point x="1061" y="-24"/>
      <point x="1253" y="162"/>
      <point x="1253" y="450" type="curve" smooth="yes"/>
      <point x="1253" y="616"/>
      <point x="1185" y="718"/>
      <point x="1065" y="764" type="curve"/>
      <point x="1235" y="822"/>
      <point x="1323" y="932"/>
      <point x="1323" y="1088" type="curve" smooth="yes"/>
      <point x="1323" y="1310"/>
      <point x="1149" y="1466"/>
      <point x="835" y="1466" type="curve" smooth="yes"/>
      <point x="403" y="1466"/>
      <point x="269" y="1178"/>
      <point x="217" y="936" type="curve" smooth="yes"/>
    </contour>
    <contour>
      <point x="687" y="318" type="curve"/>
      <point x="555" y="318"/>
      <point x="501" y="392"/>
      <point x="527" y="520" type="curve" smooth="yes"/>
      <point x="619" y="958" type="line" smooth="yes"/>
      <point x="649" y="1102"/>
      <point x="725" y="1142"/>
      <point x="811" y="1142" type="curve" smooth="yes"/>
      <point x="895" y="1142"/>
      <point x="949" y="1104"/>
      <point x="949" y="1020" type="curve" smooth="yes"/>
      <point x="949" y="940"/>
      <point x="899" y="892"/>
      <point x="809" y="892" type="curve" smooth="yes"/>
      <point x="723" y="892" type="line"/>
      <point x="657" y="580" type="line"/>
      <point x="743" y="580" type="line" smooth="yes"/>
      <point x="831" y="580"/>
      <point x="877" y="528"/>
      <point x="877" y="454" type="curve" smooth="yes"/>
      <point x="877" y="360"/>
      <point x="803" y="318"/>
    </contour>
  </outline>
</glyph>
<glyph name="gamma" format="2">
  <advance width="1267"/>
  <unicode hex="03B3"/>
  <outline>
    <contour>
      <point x="196" y="-420" type="line"/>
      <point x="596" y="-420" type="line"/>
      <point x="682" y="-20" type="line"/>
      <point x="973" y="304"/>
      <point x="1184" y="692"/>
      <point x="1314" y="1040" type="curve"/>
      <point x="888" y="1040" type="line"/>
      <point x="796" y="786"/>
      <point x="659" y="456"/>
      <point x="496" y="276" type="curve"/>
      <point x="590" y="190" type="line"/>
      <point x="536" y="1040" type="line"/>
      <point x="120" y="1040" type="line"/>
      <point x="276" y="-52" type="line"/>
    </contour>
  </outline>
</glyph>
<glyph name="epsilon" format="2">
  <advance width="1059"/>
  <unicode hex="03B5"/>
  <anchor x="670" y="1040" name="top"/>
  <outline>
    <contour>
      <point x="498" y="-30" type="curve" smooth="yes"/>
      <point x="648" y="-30"/>
      <point x="768" y="-6"/>
      <point x="880" y="32" type="curve"/>
      <point x="948" y="354" type="line"/>
      <point x="798" y="300"/>
      <point x="684" y="276"/>
      <point x="564" y="276" type="curve" smooth="yes"/>
      <point x="442" y="276"/>
      <point x="422" y="304"/>
      <point x="422" y="334" type="curve" smooth="yes"/>
      <point x="422" y="390"/>
      <point x="490" y="404"/>
      <point x="562" y="404" type="curve" smooth="yes"/>
      <point x="720" y="404" type="line"/>
      <point x="772" y="652" type="line"/>
      <point x="612" y="652" type="line" smooth="yes"/>
      <point x="532" y="652"/>
      <point x="498" y="662"/>
      <point x="498" y="698" type="curve" smooth="yes"/>
      <point x="498" y="752"/>
      <point x="572" y="772"/>
      <point x="668" y="772" type="curve" smooth="yes"/>
      <point x="776" y="772"/>
      <point x="892" y="750"/>
      <point x="984" y="688" type="curve"/>
      <point x="1052" y="1010" type="line"/>
      <point x="940" y="1054"/>
      <point x="818" y="1070"/>
      <point x="680" y="1070" type="curve" smooth="yes"/>
      <point x="398" y="1070"/>
      <point x="132" y="974"/>
      <point x="132" y="746" type="curve" smooth="yes"/>
      <point x="132" y="666"/>
      <point x="166" y="590"/>
      <point x="268" y="540" type="curve"/>
      <point x="118" y="504"/>
      <point x="12" y="406"/>
      <point x="12" y="270" type="curve" smooth="yes"/>
      <point x="12" y="74"/>
      <point x="212" y="-30"/>
    </contour>
  </outline>
</glyph>
<glyph name="zeta" format="2">
  <advance width="1051"/>
  <unicode hex="03B6"/>
  <outline>
    <contour>
      <point x="764" y="-420" type="line"/>
      <point x="840" y="-326"/>
      <point x="938" y="-158"/>
      <point x="938" y="-34" type="curve" smooth="yes"/>
      <point x="938" y="104"/>
      <point x="822" y="190"/>
      <point x="652" y="270" type="curve" smooth="yes"/>
      <point x="528" y="328"/>
      <point x="442" y="370"/>
      <point x="442" y="482" type="curve" smooth="yes"/>
      <point x="442" y="710"/>
      <point x="764" y="932"/>
      <point x="1164" y="1180" type="curve"/>
      <point x="1218" y="1440" type="line"/>
      <point x="313" y="1440" type="line"/>
      <point x="165" y="1112" type="line"/>
      <point x="612" y="1112" type="line"/>
      <point x="304" y="930"/>
      <point x="64" y="666"/>
      <point x="64" y="394" type="curve" smooth="yes"/>
      <point x="64" y="186"/>
      <point x="186" y="107"/>
      <point x="336" y="38" type="curve" smooth="yes"/>
      <point x="472" y="-24"/>
      <point x="514" y="-70"/>
      <point x="514" y="-142" type="curve" smooth="yes"/>
      <point x="514" y="-212"/>
      <point x="470" y="-294"/>
      <point x="378" y="-420" type="curve"/>
    </contour>
  </outline>
</glyph>
<glyph name="eta" format="2">
  <advance width="1370"/>
  <unicode hex="03B7"/>
  <anchor x="795" y="1040" name="top"/>
  <outline>
    <contour>
      <point x="651" y="-420" type="line"/>
      <point x="1051" y="-420" type="line"/>
      <point x="1279" y="662" type="line" smooth="yes"/>
      <point x="1331" y="904"/>
      <point x="1173" y="1070"/>
      <point x="941" y="1070" type="curve" smooth="yes"/>
      <point x="817" y="1070"/>
      <point x="701" y="1020"/>
      <point x="611" y="912" type="curve"/>
      <point x="653" y="1100" type="line"/>
      <point x="213" y="914" type="line"/>
      <point x="19" y="0" type="line"/>
      <point x="419" y="0" type="line"/>
      <point x="533" y="536" type="line" smooth="yes"/>
      <point x="557" y="650"/>
      <point x="631" y="710"/>
      <point x="727" y="710" type="curve" smooth="yes"/>
      <point x="839" y="710"/>
      <point x="879" y="660"/>
      <point x="853" y="536" type="curve" smooth="yes"/>
    </contour>
  </outline>
</glyph>
<glyph name="iota" format="2">
  <advance width="767"/>
  <unicode hex="03B9"/>
  <anchor x="431" y="1040" name="top"/>
  <outline>
    <contour>
      <point x="395" y="-28" type="curve" smooth="yes"/>
      <point x="453" y="-28"/>
      <point x="527" y="-22"/>
      <point x="599" y="0" type="curve"/>
      <point x="669" y="322" type="line"/>
      <point x="633" y="308"/>
      <point x="599" y="304"/>
      <point x="575" y="304" type="curve" smooth="yes"/>
      <point x="509" y="304"/>
      <point x="481" y="336"/>
      <point x="499" y="426" type="curve" smooth="yes"/>
      <point x="643" y="1100" type="line"/>
      <point x="203" y="914" type="line"/>
      <point x="89" y="378" type="line" smooth="yes"/>
      <point x="29" y="98"/>
      <point x="215" y="-28"/>
    </contour>
  </outline>
</glyph>
<glyph name="lambda" format="2">
  <advance width="1264"/>
  <unicode hex="03BB"/>
  <outline>
    <contour>
      <point x="-102" y="0" type="line"/>
      <point x="330" y="0" type="line"/>
      <point x="666" y="638" type="line"/>
      <point x="722" y="0" type="line"/>
      <point x="1144" y="0" type="line"/>
      <point x="958" y="1118" type="line" smooth="yes"/>
      <point x="911" y="1388"/>
      <point x="775" y="1470"/>
      <point x="540" y="1470" type="curve" smooth="yes"/>
      <point x="463" y="1470"/>
      <point x="356" y="1456"/>
      <point x="310" y="1440" type="curve"/>
      <point x="236" y="1106" type="line"/>
      <point x="310" y="1124"/>
      <point x="378" y="1132"/>
      <point x="432" y="1132" type="curve" smooth="yes"/>
      <point x="494" y="1132"/>
      <point x="548" y="1114"/>
      <point x="550" y="1056" type="curve" smooth="yes"/>
      <point x="550" y="1040" type="line"/>
    </contour>
  </outline>
</glyph>
<glyph name="nu" format="2">
  <advance width="1255"/>
  <unicode hex="03BD"/>
  <outline>
    <contour>
      <point x="248" y="0" type="line"/>
      <point x="688" y="0" type="line"/>
      <point x="955" y="324"/>
      <point x="1180" y="694"/>
      <point x="1302" y="1040" type="curve"/>
      <point x="886" y="1040" type="line"/>
      <point x="804" y="808"/>
      <point x="677" y="526"/>
      <point x="540" y="338" type="curve"/>
      <point x="580" y="346" type="line"/>
      <point x="546" y="1040" type="line"/>
      <point x="120" y="1040" type="line"/>
    </contour>
  </outline>
</glyph>
<glyph name="xi" format="2">
  <advance width="1090"/>
  <unicode hex="03BE"/>
  <outline>
    <contour>
      <point x="757" y="-420" type="line"/>
      <point x="831" y="-331"/>
      <point x="930" y="-202"/>
      <point x="930" y="-54" type="curve" smooth="yes"/>
      <point x="930" y="113"/>
      <point x="830" y="182"/>
      <point x="643" y="277" type="curve" smooth="yes"/>
      <point x="500" y="350"/>
      <point x="426" y="383"/>
      <point x="426" y="451" type="curve" smooth="yes"/>
      <point x="426" y="509"/>
      <point x="481" y="542"/>
      <point x="578" y="542" type="curve" smooth="yes"/>
      <point x="920" y="542" type="line"/>
      <point x="992" y="880" type="line"/>
      <point x="726" y="882" type="line" smooth="yes"/>
      <point x="632" y="882"/>
      <point x="584" y="940"/>
      <point x="584" y="1006" type="curve" smooth="yes"/>
      <point x="584" y="1080"/>
      <point x="644" y="1132"/>
      <point x="779" y="1132" type="curve" smooth="yes"/>
      <point x="903" y="1132"/>
      <point x="1007" y="1098"/>
      <point x="1127" y="1020" type="curve"/>
      <point x="1205" y="1382" type="line"/>
      <point x="1085" y="1442"/>
      <point x="917" y="1470"/>
      <point x="799" y="1470" type="curve" smooth="yes"/>
      <point x="503" y="1470"/>
      <point x="245" y="1333"/>
      <point x="245" y="1056" type="curve" smooth="yes"/>
      <point x="245" y="954"/>
      <point x="279" y="863"/>
      <point x="376" y="776" type="curve"/>
      <point x="159" y="739"/>
      <point x="36" y="605"/>
      <point x="36" y="412" type="curve" smooth="yes"/>
      <point x="36" y="210"/>
      <point x="198" y="122"/>
      <point x="366" y="34" type="curve" smooth="yes"/>
      <point x="490" y="-31"/>
      <point x="526" y="-70"/>
      <point x="526" y="-138" type="curve" smooth="yes"/>
      <point x="526" y="-212"/>
      <point x="475" y="-294"/>
      <point x="365" y="-420" type="curve"/>
    </contour>
  </outline>
</glyph>
<glyph name="pi" format="2">
  <advance width="1411"/>
  <unicode hex="03C0"/>
  <outline>
    <contour>
      <point x="1010" y="-30" type="curve" smooth="yes"/>
      <point x="1070" y="-30"/>
      <point x="1134" y="-28"/>
      <point x="1210" y="-10" type="curve"/>
      <point x="1280" y="320" type="line"/>
      <point x="1244" y="312"/>
      <point x="1212" y="306"/>
      <point x="1186" y="306" type="curve" smooth="yes"/>
      <point x="1132" y="306"/>
      <point x="1098" y="338"/>
      <point x="1114" y="412" type="curve" smooth="yes"/>
      <point x="1176" y="712" type="line"/>
      <point x="1362" y="712" type="line"/>
      <point x="1432" y="1040" type="line"/>
      <point x="190" y="1040" type="line"/>
      <point x="40" y="712" type="line"/>
      <point x="236" y="712" type="line"/>
      <point x="56" y="0" type="line"/>
      <point x="452" y="0" type="line"/>
      <point x="632" y="712" type="line"/>
      <point x="794" y="712" type="line"/>
      <point x="730" y="410" type="line" smooth="yes"/>
      <point x="662" y="90"/>
      <point x="850" y="-30"/>
    </contour>
  </outline>
</glyph>
<glyph name="rho" format="2">
  <advance width="1368"/>
  <unicode hex="03C1"/>
  <outline>
    <contour>
      <point x="-81" y="-420" type="line"/>
      <point x="317" y="-420" type="line"/>
      <point x="417" y="52" type="line"/>
      <point x="503" y="-16"/>
      <point x="611" y="-30"/>
      <point x="699" y="-30" type="curve" smooth="yes"/>
      <point x="1045" y="-30"/>
      <point x="1317" y="244"/>
      <point x="1317" y="578" type="curve" smooth="yes"/>
      <point x="1317" y="848"/>
      <point x="1107" y="1070"/>
      <point x="773" y="1070" type="curve" smooth="yes"/>
      <point x="427" y="1070"/>
      <point x="195" y="884"/>
      <point x="113" y="494" type="curve" smooth="yes"/>
    </contour>
    <contour>
      <point x="699" y="310" type="curve" smooth="yes"/>
      <point x="593" y="310"/>
      <point x="517" y="380"/>
      <point x="517" y="490" type="curve" smooth="yes"/>
      <point x="517" y="616"/>
      <point x="607" y="730"/>
      <point x="743" y="730" type="curve" smooth="yes"/>
      <point x="851" y="730"/>
      <point x="925" y="662"/>
      <point x="925" y="552" type="curve" smooth="yes"/>
      <point x="925" y="426"/>
      <point x="837" y="310"/>
    </contour>
  </outline>
</glyph>
<glyph name="sigmafinal" format="2">
  <advance width="1008"/>
  <unicode hex="03C2"/>
  <outline>
    <contour>
      <point x="795" y="-420" type="line"/>
      <point x="881" y="-327"/>
      <point x="947" y="-185"/>
      <point x="947" y="-85" type="curve" smooth="yes"/>
      <point x="947" y="246"/>
      <point x="458" y="312"/>
      <point x="456" y="547" type="curve" smooth="yes"/>
      <point x="455" y="655"/>
      <point x="535" y="730"/>
      <point x="670" y="730" type="curve" smooth="yes"/>
      <point x="786" y="730"/>
      <point x="893" y="700"/>
      <point x="974" y="628" type="curve"/>
      <point x="1049" y="980" type="line"/>
      <point x="942" y="1039"/>
      <point x="813" y="1070"/>
      <point x="670" y="1070" type="curve" smooth="yes"/>
      <point x="340" y="1070"/>
      <point x="58" y="829"/>
      <point x="58" y="498" type="curve" smooth="yes"/>
      <point x="58" y="90"/>
      <point x="547" y="32"/>
      <point x="547" y="-184" type="curve" smooth="yes"/>
      <point x="547" y="-237"/>
      <point x="503" y="-310"/>
      <point x="407" y="-420" type="curve"/>
    </contour>
  </outline>
</glyph>
<glyph name="sigma" format="2">
  <advance width="1384"/>
  <unicode hex="03C3"/>
  <outline>
    <contour>
      <point x="588" y="-30" type="curve" smooth="yes"/>
      <point x="944" y="-30"/>
      <point x="1212" y="190"/>
      <point x="1212" y="512" type="curve" smooth="yes"/>
      <point x="1212" y="594"/>
      <point x="1196" y="660"/>
      <point x="1162" y="716" type="curve"/>
      <point x="1395" y="716" type="line"/>
      <point x="1465" y="1040" type="line"/>
      <point x="772" y="1040" type="line" smooth="yes"/>
      <point x="324" y="1040"/>
      <point x="52" y="824"/>
      <point x="52" y="462" type="curve" smooth="yes"/>
      <point x="52" y="164"/>
      <point x="278" y="-30"/>
    </contour>
    <contour>
      <point x="620" y="310" type="curve" smooth="yes"/>
      <point x="512" y="310"/>
      <point x="440" y="380"/>
      <point x="440" y="502" type="curve" smooth="yes"/>
      <point x="440" y="616"/>
      <point x="526" y="710"/>
      <point x="664" y="710" type="curve" smooth="yes"/>
      <point x="770" y="710"/>
      <point x="844" y="652"/>
      <point x="844" y="532" type="curve" smooth="yes"/>
      <point x="844" y="416"/>
      <point x="756" y="310"/>
    </contour>
  </outline>
</glyph>
<glyph name="tau" format="2">
  <advance width="1009"/>
  <unicode hex="03C4"/>
  <outline>
    <contour>
      <point x="528" y="-28" type="curve" smooth="yes"/>
      <point x="592" y="-28"/>
      <point x="648" y="-20"/>
      <point x="732" y="2" type="curve"/>
      <point x="786" y="328" type="line"/>
      <point x="756" y="320"/>
      <point x="718" y="314"/>
      <point x="694" y="314" type="curve" smooth="yes"/>
      <point x="636" y="314"/>
      <point x="602" y="348"/>
      <point x="622" y="438" type="curve" smooth="yes"/>
      <point x="678" y="704" type="line"/>
      <point x="970" y="704" type="line"/>
      <point x="1042" y="1040" type="line"/>
      <point x="144" y="1040" type="line"/>
      <point x="-2" y="704" type="line"/>
      <point x="278" y="704" type="line"/>
      <point x="210" y="384" type="line" smooth="yes"/>
      <point x="150" y="104"/>
      <point x="284" y="-28"/>
    </contour>
  </outline>
</glyph>
<glyph name="upsilon" format="2">
  <advance width="1284"/>
  <unicode hex="03C5"/>
  <anchor x="726" y="1040" name="top"/>
  <outline>
    <contour>
      <point x="576" y="-30" type="curve" smooth="yes"/>
      <point x="996" y="-30"/>
      <point x="1222" y="307"/>
      <point x="1222" y="760" type="curve" smooth="yes"/>
      <point x="1222" y="853"/>
      <point x="1213" y="946"/>
      <point x="1193" y="1040" type="curve"/>
      <point x="805" y="1040" type="line"/>
      <point x="823" y="975"/>
      <point x="831" y="890"/>
      <point x="831" y="801" type="curve" smooth="yes"/>
      <point x="831" y="559"/>
      <point x="768" y="310"/>
      <point x="622" y="310" type="curve" smooth="yes"/>
      <point x="524" y="310"/>
      <point x="484" y="370"/>
      <point x="506" y="474" type="curve" smooth="yes"/>
      <point x="640" y="1102" type="line"/>
      <point x="194" y="914" type="line"/>
      <point x="114" y="542" type="line" smooth="yes"/>
      <point x="36" y="180"/>
      <point x="212" y="-30"/>
    </contour>
  </outline>
</glyph>
<glyph name="phi" format="2">
  <advance width="1612"/>
  <unicode hex="03C6"/>
  <outline>
    <contour>
      <point x="401" y="-420" type="line"/>
      <point x="789" y="-420" type="line"/>
      <point x="1006" y="600" type="line" smooth="yes"/>
      <point x="1024" y="686"/>
      <point x="1059" y="730"/>
      <point x="1109" y="730" type="curve" smooth="yes"/>
      <point x="1166" y="730"/>
      <point x="1197" y="692"/>
      <point x="1197" y="622" type="curve" smooth="yes"/>
      <point x="1197" y="415"/>
      <point x="1039" y="282"/>
      <point x="772" y="282" type="curve" smooth="yes"/>
      <point x="568" y="282"/>
      <point x="454" y="370"/>
      <point x="454" y="564" type="curve" smooth="yes"/>
      <point x="454" y="720"/>
      <point x="536" y="906"/>
      <point x="664" y="1040" type="curve"/>
      <point x="257" y="1040" type="line"/>
      <point x="139" y="889"/>
      <point x="68" y="702"/>
      <point x="68" y="541" type="curve" smooth="yes"/>
      <point x="68" y="175"/>
      <point x="275" y="-25"/>
      <point x="769" y="-25" type="curve" smooth="yes"/>
      <point x="1290" y="-25"/>
      <point x="1577" y="267"/>
      <point x="1577" y="676" type="curve" smooth="yes"/>
      <point x="1577" y="917"/>
      <point x="1421" y="1070"/>
      <point x="1153" y="1070" type="curve" smooth="yes"/>
      <point x="844" y="1070"/>
      <point x="677" y="876"/>
      <point x="604" y="534" type="curve" smooth="yes"/>
    </contour>
  </outline>
</glyph>
<glyph name="chi" format="2">
  <advance width="1300"/>
  <unicode hex="03C7"/>
  <outline>
    <contour>
      <point x="-148" y="-420" type="line"/>
      <point x="324" y="-420" type="line"/>
      <point x="658" y="154" type="line"/>
      <point x="534" y="154" type="line"/>
      <point x="660" y="-420" type="line"/>
      <point x="1100" y="-420" type="line"/>
      <point x="842" y="474" type="line"/>
      <point x="758" y="150" type="line"/>
      <point x="1390" y="1040" type="line"/>
      <point x="924" y="1040" type="line"/>
      <point x="586" y="492" type="line"/>
      <point x="726" y="456" type="line"/>
      <point x="636" y="854" type="line" smooth="yes"/>
      <point x="593" y="1046"/>
      <point x="438" y="1126"/>
      <point x="160" y="1050" type="curve"/>
      <point x="98" y="700" type="line"/>
      <point x="238" y="738"/>
      <point x="285" y="704"/>
      <point x="312" y="598" type="curve" smooth="yes"/>
      <point x="424" y="164" type="line"/>
      <point x="480" y="466" type="line"/>
    </contour>
  </outline>
</glyph>
<glyph name="psi" format="2">
  <advance width="1745"/>
  <unicode hex="03C8"/>
  <outline>
    <contour>
      <point x="466" y="-420" type="line"/>
      <point x="866" y="-420" type="line"/>
      <point x="948" y="-30" type="line"/>
      <point x="1417" y="-30"/>
      <point x="1670" y="316"/>
      <point x="1670" y="780" type="curve" smooth="yes"/>
      <point x="1670" y="866"/>
      <point x="1664" y="953"/>
      <point x="1651" y="1040" type="curve"/>
      <point x="1253" y="1040" type="line"/>
      <point x="1271" y="975"/>
      <point x="1279" y="890"/>
      <point x="1279" y="801" type="curve" smooth="yes"/>
      <point x="1279" y="559"/>
      <point x="1198" y="310"/>
      <point x="1012" y="310" type="curve"/>
      <point x="1218" y="1280" type="line"/>
      <point x="834" y="1280" type="line"/>
      <point x="628" y="310" type="line"/>
      <point x="524" y="310"/>
      <point x="470" y="358"/>
      <point x="512" y="550" type="curve" smooth="yes"/>
      <point x="630" y="1094" type="line"/>
      <point x="204" y="914" type="line"/>
      <point x="158" y="702" type="line" smooth="yes"/>
      <point x="42" y="170"/>
      <point x="192" y="-6"/>
      <point x="548" y="-30" type="curve"/>
    </contour>
  </outline>
</glyph>
<glyph name="omega" format="2">
  <advance width="1768"/>
  <unicode hex="03C9"/>
  <anchor x="773" y="0" name="bottom"/>
  <anchor x="993" y="1040" name="top"/>
  <outline>
    <contour>
      <point x="452" y="-29" type="curve" smooth="yes"/>
      <point x="581" y="-29"/>
      <point x="703" y="24"/>
      <point x="812" y="136" type="curve"/>
      <point x="891" y="26"/>
      <point x="1001" y="-29"/>
      <point x="1144" y="-29" type="curve" smooth="yes"/>
      <point x="1498" y="-29"/>
      <point x="1689" y="357"/>
      <point x="1689" y="780" type="curve" smooth="yes"/>
      <point x="1689" y="866"/>
      <point x="1683" y="953"/>
      <point x="1670" y="1040" type="curve"/>
      <point x="1272" y="1040" type="line"/>
      <point x="1290" y="975"/>
      <point x="1298" y="890"/>
      <point x="1298" y="801" type="curve" smooth="yes"/>
      <point x="1298" y="607"/>
      <point x="1242" y="330"/>
      <point x="1113" y="330" type="curve" smooth="yes"/>
      <point x="1034" y="330"/>
      <point x="1032" y="392"/>
      <point x="1054" y="500" type="curve" smooth="yes"/>
      <point x="1121" y="820" type="line"/>
      <point x="773" y="820" type="line"/>
      <point x="706" y="500" type="line" smooth="yes"/>
      <point x="679" y="370"/>
      <point x="637" y="330"/>
      <point x="580" y="330" type="curve" smooth="yes"/>
      <point x="521" y="330"/>
      <point x="500" y="382"/>
      <point x="500" y="457" type="curve" smooth="yes"/>
      <point x="500" y="619"/>
      <point x="617" y="891"/>
      <point x="718" y="1040" type="curve"/>
      <point x="320" y="1040" type="line"/>
      <point x="192" y="884"/>
      <point x="92" y="581"/>
      <point x="92" y="376" type="curve" smooth="yes"/>
      <point x="92" y="123"/>
      <point x="229" y="-29"/>
    </contour>
  </outline>
</glyph>
<glyph name="KaiSymbol" format="2">
  <advance width="1522"/>
  <unicode hex="03CF"/>
  <outline>
    <contour>
      <point x="582" y="-420" type="line"/>
      <point x="1062" y="-420" type="line"/>
      <point x="1422" y="0" type="line"/>
      <point x="1000" y="750" type="line"/>
      <point x="1660" y="1400" type="line"/>
      <point x="1154" y="1400" type="line"/>
      <point x="638" y="882" type="line"/>
      <point x="748" y="1400" type="line"/>
      <point x="344" y="1400" type="line"/>
      <point x="46" y="0" type="line"/>
      <point x="450" y="0" type="line"/>
      <point x="516" y="312" type="line"/>
      <point x="668" y="446" type="line"/>
      <point x="920" y="-32" type="line"/>
    </contour>
  </outline>
</glyph>
<glyph name="E-cy" format="2">
  <advance width="1367"/>
  <unicode hex="0404"/>
  <guideline x="629" y="461" angle="78.0016"/>
  <guideline x="610" y="217" angle="78.0016"/>
  <outline>
    <contour>
      <point x="826" y="-30" type="curve" smooth="yes"/>
      <point x="960" y="-30"/>
      <point x="1074" y="-8"/>
      <point x="1174" y="26" type="curve"/>
      <point x="1260" y="434" type="line"/>
      <point x="1134" y="364"/>
      <point x="998" y="334"/>
      <point x="876" y="334" type="curve" smooth="yes"/>
      <point x="640" y="334"/>
      <point x="510" y="452"/>
      <point x="510" y="644" type="curve" smooth="yes"/>
      <point x="510" y="888"/>
      <point x="670" y="1066"/>
      <point x="940" y="1066" type="curve" smooth="yes"/>
      <point x="1104" y="1066"/>
      <point x="1228" y="1018"/>
      <point x="1298" y="922" type="curve"/>
      <point x="1386" y="1334" type="line"/>
      <point x="1264" y="1402"/>
      <point x="1126" y="1430"/>
      <point x="946" y="1430" type="curve" smooth="yes"/>
      <point x="456" y="1430"/>
      <point x="120" y="1070"/>
      <point x="120" y="610" type="curve" smooth="yes"/>
      <point x="120" y="204"/>
      <point x="440" y="-30"/>
    </contour>
    <contour>
      <point x="428" y="562" type="line"/>
      <point x="1096" y="562" type="line"/>
      <point x="1160" y="864" type="line"/>
      <point x="490" y="864" type="line"/>
    </contour>
  </outline>
</glyph>
<glyph name="Lje-cy" format="2">
  <advance width="2169"/>
  <unicode hex="0409"/>
  <outline>
    <contour>
      <point x="-50" y="-20" type="line"/>
      <point x="270" y="-68"/>
      <point x="570" y="62"/>
      <point x="646" y="420" type="curve" smooth="yes"/>
      <point x="776" y="1032" type="line"/>
      <point x="1084" y="1032" type="line"/>
      <point x="1560" y="1400" type="line"/>
      <point x="474" y="1400" type="line"/>
      <point x="284" y="504" type="line" smooth="yes"/>
      <point x="250" y="340"/>
      <point x="122" y="304"/>
      <point x="20" y="312" type="curve"/>
    </contour>
    <contour>
      <point x="1330" y="294" type="line"/>
      <point x="1386" y="566" type="line"/>
      <point x="1514" y="566" type="line" smooth="yes"/>
      <point x="1628" y="566"/>
      <point x="1676" y="514"/>
      <point x="1678" y="442" type="curve" smooth="yes"/>
      <point x="1680" y="370"/>
      <point x="1628" y="294"/>
      <point x="1494" y="294" type="curve" smooth="yes"/>
    </contour>
    <contour>
      <point x="862" y="0" type="line"/>
      <point x="1496" y="0" type="line" smooth="yes"/>
      <point x="1912" y="0"/>
      <point x="2114" y="240"/>
      <point x="2112" y="494" type="curve" smooth="yes"/>
      <point x="2110" y="712"/>
      <point x="1948" y="908"/>
      <point x="1586" y="908" type="curve" smooth="yes"/>
      <point x="1458" y="908" type="line"/>
      <point x="1560" y="1400" type="line"/>
      <point x="1158" y="1400" type="line"/>
    </contour>
  </outline>
</glyph>
<glyph name="Be-cy" format="2">
  <advance width="1352"/>
  <unicode hex="0411"/>
  <outline>
    <contour>
      <point x="48" y="0" type="line"/>
      <point x="644" y="0" type="line" smooth="yes"/>
      <point x="1028" y="0"/>
      <point x="1272" y="192"/>
      <point x="1274" y="482" type="curve" smooth="yes"/>
      <point x="1276" y="734"/>
      <point x="1098" y="864"/>
      <point x="750" y="864" type="curve" smooth="yes"/>
      <point x="634" y="864" type="line"/>
      <point x="670" y="1032" type="line"/>
      <point x="1226" y="1032" type="line"/>
      <point x="1304" y="1400" type="line"/>
      <point x="344" y="1400" type="line"/>
    </contour>
    <contour>
      <point x="514" y="290" type="line"/>
      <point x="574" y="574" type="line"/>
      <point x="686" y="574" type="line" smooth="yes"/>
      <point x="794" y="574"/>
      <point x="848" y="530"/>
      <point x="848" y="444" type="curve" smooth="yes"/>
      <point x="848" y="346"/>
      <point x="782" y="290"/>
      <point x="666" y="290" type="curve" smooth="yes"/>
    </contour>
  </outline>
</glyph>
<glyph name="Ge-cy" format="2">
  <advance width="1088"/>
  <unicode hex="0413"/>
  <anchor x="468" y="644" name="bar"/>
  <anchor x="452" y="0" name="descender"/>
  <anchor x="794" y="1400" name="top"/>
  <outline>
    <contour>
      <point x="48" y="0" type="line"/>
      <point x="452" y="0" type="line"/>
      <point x="670" y="1032" type="line"/>
      <point x="1166" y="1032" type="line"/>
      <point x="1244" y="1400" type="line"/>
      <point x="344" y="1400" type="line"/>
    </contour>
  </outline>
</glyph>
<glyph name="De-cy" format="2">
  <advance width="1718"/>
  <unicode hex="0414"/>
  <outline>
    <contour>
      <point x="926" y="0" type="line"/>
      <point x="1330" y="0" type="line"/>
      <point x="1628" y="1400" type="line"/>
      <point x="478" y="1400" type="line"/>
      <point x="288" y="514" type="line" smooth="yes"/>
      <point x="254" y="352"/>
      <point x="128" y="316"/>
      <point x="26" y="324" type="curve"/>
      <point x="-34" y="40" type="line"/>
      <point x="286" y="-8"/>
      <point x="590" y="142"/>
      <point x="678" y="560" type="curve" smooth="yes"/>
      <point x="778" y="1032" type="line"/>
      <point x="1144" y="1032" type="line"/>
    </contour>
    <contour>
      <point x="-136" y="-440" type="line"/>
      <point x="286" y="-260" type="line"/>
      <point x="342" y="0" type="line"/>
      <point x="1174" y="0" type="line"/>
      <point x="1080" y="-440" type="line"/>
      <point x="1502" y="-260" type="line"/>
      <point x="1636" y="368" type="line"/>
      <point x="364" y="368" type="line"/>
      <point x="278" y="284" type="line"/>
      <point x="26" y="324" type="line"/>
    </contour>
  </outline>
</glyph>
<glyph name="Ze-cy" format="2">
  <advance width="1218"/>
  <unicode hex="0417"/>
  <guideline x="86" y="491" angle="78.0239"/>
  <guideline x="25" y="234" angle="78.0239"/>
  <anchor x="485" y="0" name="bottom"/>
  <anchor x="731" y="1400" name="top"/>
  <outline>
    <contour>
      <point x="491" y="-30" type="curve" smooth="yes"/>
      <point x="849" y="-30"/>
      <point x="1131" y="154"/>
      <point x="1131" y="438" type="curve" smooth="yes"/>
      <point x="1131" y="558"/>
      <point x="1063" y="672"/>
      <point x="935" y="732" type="curve"/>
      <point x="1087" y="792"/>
      <point x="1201" y="922"/>
      <point x="1201" y="1080" type="curve" smooth="yes"/>
      <point x="1201" y="1328"/>
      <point x="937" y="1430"/>
      <point x="659" y="1430" type="curve" smooth="yes"/>
      <point x="519" y="1430"/>
      <point x="395" y="1408"/>
      <point x="289" y="1364" type="curve"/>
      <point x="205" y="972" type="line"/>
      <point x="283" y="1024"/>
      <point x="417" y="1066"/>
      <point x="567" y="1066" type="curve" smooth="yes"/>
      <point x="681" y="1066"/>
      <point x="773" y="1044"/>
      <point x="773" y="965" type="curve" smooth="yes"/>
      <point x="773" y="888"/>
      <point x="691" y="864"/>
      <point x="571" y="864" type="curve" smooth="yes"/>
      <point x="347" y="864" type="line"/>
      <point x="219" y="562" type="line"/>
      <point x="537" y="562" type="line" smooth="yes"/>
      <point x="651" y="562"/>
      <point x="705" y="512"/>
      <point x="705" y="448" type="curve" smooth="yes"/>
      <point x="705" y="372"/>
      <point x="613" y="326"/>
      <point x="489" y="326" type="curve" smooth="yes"/>
      <point x="351" y="326"/>
      <point x="183" y="371"/>
      <point x="75" y="460" type="curve"/>
      <point x="-3" y="94" type="line"/>
      <point x="145" y="10"/>
      <point x="313" y="-30"/>
    </contour>
  </outline>
</glyph>
<glyph name="El-cy" format="2">
  <advance width="1612"/>
  <unicode hex="041B"/>
  <guideline x="11" y="180" angle="78.1113"/>
  <guideline x="789" y="-63" angle="257.8378"/>
  <outline>
    <contour>
      <point x="-10" y="-20" type="line"/>
      <point x="310" y="-68"/>
      <point x="610" y="62"/>
      <point x="686" y="420" type="curve" smooth="yes"/>
      <point x="816" y="1032" type="line"/>
      <point x="1162" y="1032" type="line"/>
      <point x="944" y="0" type="line"/>
      <point x="1344" y="0" type="line"/>
      <point x="1638" y="1400" type="line"/>
      <point x="514" y="1400" type="line"/>
      <point x="324" y="504" type="line" smooth="yes"/>
      <point x="290" y="340"/>
      <point x="162" y="304"/>
      <point x="60" y="312" type="curve"/>
    </contour>
  </outline>
</glyph>
<glyph name="U-cy" format="2">
  <advance width="1392"/>
  <unicode hex="0423"/>
  <anchor x="918" y="1400" name="top"/>
  <outline>
    <contour>
      <point x="12" y="-30" type="line"/>
      <point x="422" y="-56"/>
      <point x="696" y="88"/>
      <point x="1050" y="598" type="curve" smooth="yes"/>
      <point x="1606" y="1400" type="line"/>
      <point x="1122" y="1400" type="line"/>
      <point x="750" y="826" type="line" smooth="yes"/>
      <point x="540" y="500"/>
      <point x="342" y="328"/>
      <point x="96" y="368" type="curve"/>
    </contour>
    <contour>
      <point x="564" y="360" type="line"/>
      <point x="908" y="668" type="line"/>
      <point x="718" y="1400" type="line"/>
      <point x="232" y="1400" type="line"/>
    </contour>
  </outline>
</glyph>
<glyph name="Hardsign-cy" format="2">
  <advance width="1596"/>
  <unicode hex="042A"/>
  <anchor x="778" y="1400" name="top"/>
  <outline>
    <contour>
      <point x="500" y="1032" type="line"/>
      <point x="980" y="1400" type="line"/>
      <point x="258" y="1400" type="line"/>
      <point x="100" y="1032" type="line"/>
    </contour>
    <contour>
      <point x="282" y="0" type="line"/>
      <point x="916" y="0" type="line" smooth="yes"/>
      <point x="1332" y="0"/>
      <point x="1538" y="276"/>
      <point x="1538" y="534" type="curve" smooth="yes"/>
      <point x="1538" y="758"/>
      <point x="1380" y="968"/>
      <point x="1018" y="968" type="curve" smooth="yes"/>
      <point x="886" y="968" type="line"/>
      <point x="980" y="1400" type="line"/>
      <point x="578" y="1400" type="line"/>
    </contour>
    <contour>
      <point x="758" y="334" type="line"/>
      <point x="818" y="626" type="line"/>
      <point x="946" y="626" type="line" smooth="yes"/>
      <point x="1056" y="626"/>
      <point x="1108" y="558"/>
      <point x="1108" y="488" type="curve" smooth="yes"/>
      <point x="1108" y="412"/>
      <point x="1050" y="334"/>
      <point x="922" y="334" type="curve" smooth="yes"/>
    </contour>
  </outline>
</glyph>
<glyph name="Softsign-cy" format="2">
  <advance width="1352"/>
  <unicode hex="042C"/>
  <guideline x="273" y="700" angle="180"/>
  <anchor x="498" y="1170" name="bar"/>
  <outline>
    <contour>
      <point x="48" y="0" type="line"/>
      <point x="682" y="0" type="line" smooth="yes"/>
      <point x="1098" y="0"/>
      <point x="1304" y="276"/>
      <point x="1304" y="534" type="curve" smooth="yes"/>
      <point x="1304" y="758"/>
      <point x="1146" y="968"/>
      <point x="784" y="968" type="curve" smooth="yes"/>
      <point x="656" y="968" type="line"/>
      <point x="746" y="1400" type="line"/>
      <point x="344" y="1400" type="line"/>
    </contour>
    <contour>
      <point x="524" y="334" type="line"/>
      <point x="584" y="626" type="line"/>
      <point x="712" y="626" type="line" smooth="yes"/>
      <point x="822" y="626"/>
      <point x="874" y="558"/>
      <point x="874" y="488" type="curve" smooth="yes"/>
      <point x="874" y="412"/>
      <point x="816" y="334"/>
      <point x="688" y="334" type="curve" smooth="yes"/>
    </contour>
  </outline>
</glyph>
<glyph name="Ereversed-cy" format="2">
  <advance width="1321"/>
  <unicode hex="042D"/>
  <guideline x="95" y="492" angle="78.1288"/>
  <guideline x="46" y="246" angle="78.1288"/>
  <anchor x="435" y="0" name="bottom"/>
  <anchor x="727" y="1400" name="top"/>
  <outline>
    <contour>
      <point x="461" y="-30" type="curve" smooth="yes"/>
      <point x="939" y="-30"/>
      <point x="1277" y="336"/>
      <point x="1277" y="782" type="curve" smooth="yes"/>
      <point x="1277" y="1174"/>
      <point x="993" y="1430"/>
      <point x="595" y="1430" type="curve" smooth="yes"/>
      <point x="477" y="1430"/>
      <point x="367" y="1412"/>
      <point x="271" y="1380" type="curve"/>
      <point x="191" y="1002" type="line"/>
      <point x="285" y="1042"/>
      <point x="401" y="1066"/>
      <point x="541" y="1066" type="curve" smooth="yes"/>
      <point x="753" y="1066"/>
      <point x="887" y="968"/>
      <point x="887" y="738" type="curve" smooth="yes"/>
      <point x="887" y="510"/>
      <point x="731" y="336"/>
      <point x="479" y="336" type="curve" smooth="yes"/>
      <point x="347" y="336"/>
      <point x="205" y="382"/>
      <point x="85" y="476" type="curve"/>
      <point x="3" y="84" type="line"/>
      <point x="115" y="14"/>
      <point x="277" y="-30"/>
    </contour>
    <contour>
      <point x="255" y="562" type="line"/>
      <point x="955" y="562" type="line"/>
      <point x="1021" y="864" type="line"/>
      <point x="383" y="864" type="line"/>
    </contour>
  </outline>
</glyph>
<glyph name="Iu-cy" format="2">
  <advance width="2342"/>
  <unicode hex="042E"/>
  <anchor x="1388" y="1400" name="top"/>
  <outline>
    <contour>
      <point x="48" y="0" type="line"/>
      <point x="452" y="0" type="line"/>
      <point x="566" y="538" type="line"/>
      <point x="976" y="538" type="line"/>
      <point x="1054" y="906" type="line"/>
      <point x="644" y="906" type="line"/>
      <point x="748" y="1400" type="line"/>
      <point x="344" y="1400" type="line"/>
    </contour>
    <contour>
      <point x="1470" y="-30" type="curve" smooth="yes"/>
      <point x="1926" y="-30"/>
      <point x="2300" y="332"/>
      <point x="2300" y="782" type="curve" smooth="yes"/>
      <point x="2300" y="1148"/>
      <point x="2024" y="1430"/>
      <point x="1604" y="1430" type="curve" smooth="yes"/>
      <point x="1148" y="1430"/>
      <point x="776" y="1070"/>
      <point x="776" y="614" type="curve" smooth="yes"/>
      <point x="776" y="244"/>
      <point x="1052" y="-30"/>
    </contour>
    <contour>
      <point x="1504" y="348" type="curve" smooth="yes"/>
      <point x="1320" y="348"/>
      <point x="1202" y="462"/>
      <point x="1202" y="644" type="curve" smooth="yes"/>
      <point x="1202" y="872"/>
      <point x="1352" y="1052"/>
      <point x="1572" y="1052" type="curve" smooth="yes"/>
      <point x="1756" y="1052"/>
      <point x="1874" y="938"/>
      <point x="1874" y="756" type="curve" smooth="yes"/>
      <point x="1874" y="528"/>
      <point x="1724" y="348"/>
    </contour>
  </outline>
</glyph>
<glyph name="Ia-cy" format="2">
  <advance width="1410"/>
  <unicode hex="042F"/>
  <anchor x="926" y="1400" name="top"/>
  <outline>
    <contour>
      <point x="-78" y="0" type="line"/>
      <point x="398" y="0" type="line"/>
      <point x="760" y="482" type="line"/>
      <point x="840" y="482" type="line"/>
      <point x="738" y="0" type="line"/>
      <point x="1142" y="0" type="line"/>
      <point x="1438" y="1400" type="line"/>
      <point x="844" y="1400" type="line" smooth="yes"/>
      <point x="462" y="1400"/>
      <point x="198" y="1240"/>
      <point x="198" y="900" type="curve" smooth="yes"/>
      <point x="198" y="760"/>
      <point x="262" y="648"/>
      <point x="384" y="568" type="curve"/>
    </contour>
    <contour>
      <point x="788" y="800" type="line" smooth="yes"/>
      <point x="676" y="800"/>
      <point x="604" y="840"/>
      <point x="604" y="926" type="curve" smooth="yes"/>
      <point x="604" y="1034"/>
      <point x="692" y="1072"/>
      <point x="804" y="1072" type="curve" smooth="yes"/>
      <point x="964" y="1072" type="line"/>
      <point x="908" y="800" type="line"/>
    </contour>
  </outline>
</glyph>
<glyph name="be-cy" format="2">
  <advance width="1268"/>
  <unicode hex="0431"/>
  <guideline x="629" y="735" angle="78"/>
  <outline>
    <contour>
      <point x="620" y="-30" type="curve" smooth="yes"/>
      <point x="944" y="-30"/>
      <point x="1204" y="210"/>
      <point x="1204" y="510" type="curve" smooth="yes"/>
      <point x="1204" y="766"/>
      <point x="1036" y="942"/>
      <point x="772" y="942" type="curve" smooth="yes"/>
      <point x="682" y="942"/>
      <point x="590" y="922"/>
      <point x="498" y="872" type="curve"/>
      <point x="550" y="1014"/>
      <point x="654" y="1056"/>
      <point x="800" y="1078" type="curve" smooth="yes"/>
      <point x="1198" y="1138" type="line"/>
      <point x="1268" y="1470" type="line"/>
      <point x="816" y="1398" type="line" smooth="yes"/>
      <point x="526" y="1352"/>
      <point x="232" y="1248"/>
      <point x="118" y="790" type="curve" smooth="yes"/>
      <point x="4" y="342"/>
      <point x="230" y="-30"/>
    </contour>
    <contour>
      <point x="636" y="310" type="curve" smooth="yes"/>
      <point x="548" y="310"/>
      <point x="484" y="374"/>
      <point x="484" y="466" type="curve" smooth="yes"/>
      <point x="484" y="572"/>
      <point x="564" y="650"/>
      <point x="660" y="650" type="curve" smooth="yes"/>
      <point x="748" y="650"/>
      <point x="814" y="586"/>
      <point x="814" y="494" type="curve" smooth="yes"/>
      <point x="814" y="390"/>
      <point x="734" y="310"/>
    </contour>
  </outline>
</glyph>
<glyph name="ge-cy" format="2">
  <advance width="905"/>
  <unicode hex="0433"/>
  <anchor x="339" y="462" name="bar"/>
  <anchor x="421" y="0" name="descender"/>
  <anchor x="613" y="1040" name="top"/>
  <outline>
    <contour>
      <point x="22" y="0" type="line"/>
      <point x="422" y="0" type="line"/>
      <point x="576" y="728" type="line"/>
      <point x="908" y="728" type="line"/>
      <point x="974" y="1040" type="line"/>
      <point x="240" y="1040" type="line"/>
    </contour>
  </outline>
</glyph>
<glyph name="de-cy" format="2">
  <advance width="1488"/>
  <unicode hex="0434"/>
  <guideline x="300" y="679" angle="77.9885"/>
  <outline>
    <contour>
      <point x="748" y="0" type="line"/>
      <point x="1148" y="0" type="line"/>
      <point x="1368" y="1040" type="line"/>
      <point x="377" y="1040" type="line"/>
      <point x="250" y="444" type="line" smooth="yes"/>
      <point x="223" y="316"/>
      <point x="122" y="288"/>
      <point x="36" y="292" type="curve"/>
      <point x="-22" y="20" type="line"/>
      <point x="266" y="-26"/>
      <point x="534" y="86"/>
      <point x="600" y="400" type="curve" smooth="yes"/>
      <point x="670" y="728" type="line"/>
      <point x="902" y="728" type="line"/>
    </contour>
    <contour>
      <point x="-108" y="-384" type="line"/>
      <point x="292" y="-216" type="line"/>
      <point x="338" y="0" type="line"/>
      <point x="988" y="0" type="line"/>
      <point x="906" y="-384" type="line"/>
      <point x="1306" y="-216" type="line"/>
      <point x="1418" y="312" type="line"/>
      <point x="298" y="312" type="line"/>
      <point x="230" y="286" type="line"/>
      <point x="36" y="292" type="line"/>
    </contour>
  </outline>
</glyph>
<glyph name="zhe-cy" format="2">
  <advance width="1804"/>
  <unicode hex="0436"/>
  <anchor x="1560" y="0" name="descender"/>
  <anchor x="1006" y="1040" name="top"/>
  <outline>
    <contour>
      <point x="586" y="0" type="line"/>
      <point x="986" y="0" type="line"/>
      <point x="1060" y="370" type="line"/>
      <point x="1354" y="370" type="line"/>
      <point x="1426" y="682" type="line"/>
      <point x="1134" y="682" type="line"/>
      <point x="1222" y="1100" type="line"/>
      <point x="784" y="914" type="line"/>
      <point x="734" y="682" type="line"/>
      <point x="440" y="682" type="line"/>
      <point x="368" y="370" type="line"/>
      <point x="660" y="370" type="line"/>
    </contour>
    <contour>
      <point x="-94" y="0" type="line"/>
      <point x="366" y="0" type="line"/>
      <point x="748" y="540" type="line"/>
      <point x="544" y="1040" type="line"/>
      <point x="124" y="1040" type="line"/>
      <point x="328" y="564" type="line"/>
    </contour>
    <contour>
      <point x="1228" y="0" type="line"/>
      <point x="1680" y="0" type="line"/>
      <point x="1478" y="540" type="line"/>
      <point x="1894" y="1040" type="line"/>
      <point x="1460" y="1040" type="line"/>
      <point x="1054" y="540" type="line"/>
    </contour>
  </outline>
</glyph>
<glyph name="ze-cy" format="2">
  <advance width="1066"/>
  <unicode hex="0437"/>
  <anchor x="385" y="0" name="bottom"/>
  <anchor x="583" y="1040" name="top"/>
  <outline>
    <contour>
      <point x="451" y="-30" type="curve" smooth="yes"/>
      <point x="711" y="-30"/>
      <point x="945" y="92"/>
      <point x="945" y="312" type="curve" smooth="yes"/>
      <point x="945" y="420"/>
      <point x="887" y="492"/>
      <point x="779" y="542" type="curve"/>
      <point x="897" y="572"/>
      <point x="995" y="678"/>
      <point x="995" y="790" type="curve" smooth="yes"/>
      <point x="995" y="994"/>
      <point x="767" y="1076"/>
      <point x="551" y="1076" type="curve" smooth="yes"/>
      <point x="435" y="1076"/>
      <point x="311" y="1058"/>
      <point x="195" y="1016" type="curve"/>
      <point x="131" y="710" type="line"/>
      <point x="225" y="760"/>
      <point x="345" y="784"/>
      <point x="469" y="784" type="curve" smooth="yes"/>
      <point x="545" y="784"/>
      <point x="637" y="766"/>
      <point x="629" y="708" type="curve" smooth="yes"/>
      <point x="621" y="666"/>
      <point x="581" y="662"/>
      <point x="477" y="662" type="curve" smooth="yes"/>
      <point x="327" y="662" type="line"/>
      <point x="213" y="394" type="line"/>
      <point x="431" y="394" type="line" smooth="yes"/>
      <point x="533" y="394"/>
      <point x="583" y="370"/>
      <point x="583" y="330" type="curve" smooth="yes"/>
      <point x="583" y="275"/>
      <point x="529" y="252"/>
      <point x="434" y="252" type="curve" smooth="yes"/>
      <point x="312" y="252"/>
      <point x="158" y="290"/>
      <point x="76" y="372" type="curve"/>
      <point x="17" y="76" type="line"/>
      <point x="137" y="4"/>
      <point x="305" y="-30"/>
    </contour>
  </outline>
</glyph>
<glyph name="ii-cy" format="2">
  <advance width="1372"/>
  <unicode hex="0438"/>
  <anchor x="576" y="0" name="bottom"/>
  <anchor x="796" y="1040" name="top"/>
  <outline>
    <contour>
      <point x="18" y="0" type="line"/>
      <point x="378" y="0" type="line"/>
      <point x="848" y="460" type="line"/>
      <point x="750" y="0" type="line"/>
      <point x="1132" y="0" type="line"/>
      <point x="1354" y="1040" type="line"/>
      <point x="992" y="1040" type="line"/>
      <point x="522" y="590" type="line"/>
      <point x="630" y="1100" type="line"/>
      <point x="214" y="922" type="line"/>
    </contour>
  </outline>
</glyph>
<glyph name="ka-cy" format="2">
  <advance width="1272"/>
  <unicode hex="043A"/>
  <anchor x="1028" y="0" name="descender"/>
  <anchor x="756" y="1040" name="top"/>
  <outline>
    <contour>
      <point x="692" y="0" type="line"/>
      <point x="1148" y="0" type="line"/>
      <point x="906" y="538" type="line"/>
      <point x="1350" y="1040" type="line"/>
      <point x="914" y="1040" type="line"/>
      <point x="480" y="536" type="line"/>
    </contour>
    <contour>
      <point x="18" y="0" type="line"/>
      <point x="418" y="0" type="line"/>
      <point x="496" y="370" type="line"/>
      <point x="816" y="370" type="line"/>
      <point x="882" y="682" type="line"/>
      <point x="562" y="682" type="line"/>
      <point x="652" y="1100" type="line"/>
      <point x="214" y="914" type="line"/>
    </contour>
  </outline>
</glyph>
<glyph name="el-cy" format="2">
  <advance width="1356"/>
  <unicode hex="043B"/>
  <guideline x="378" y="364" angle="180"/>
  <guideline x="123" y="148" angle="0"/>
  <guideline x="18" y="156" angle="0"/>
  <guideline x="288" y="679" angle="77.9885"/>
  <outline>
    <contour>
      <point x="-40" y="-20" type="line"/>
      <point x="248" y="-66"/>
      <point x="512" y="46"/>
      <point x="580" y="360" type="curve" smooth="yes"/>
      <point x="660" y="728" type="line"/>
      <point x="872" y="728" type="line"/>
      <point x="716" y="0" type="line"/>
      <point x="1116" y="0" type="line"/>
      <point x="1338" y="1040" type="line"/>
      <point x="365" y="1040" type="line"/>
      <point x="238" y="444" type="line" smooth="yes"/>
      <point x="210" y="312"/>
      <point x="112" y="284"/>
      <point x="26" y="292" type="curve"/>
    </contour>
  </outline>
</glyph>
<glyph name="em-cy" format="2">
  <advance width="1538"/>
  <unicode hex="043C"/>
  <outline>
    <contour>
      <point x="20" y="0" type="line"/>
      <point x="346" y="0" type="line"/>
      <point x="478" y="622" type="line"/>
      <point x="392" y="612" type="line"/>
      <point x="580" y="156" type="line"/>
      <point x="808" y="156" type="line"/>
      <point x="1152" y="550" type="line"/>
      <point x="1092" y="594" type="line"/>
      <point x="952" y="0" type="line"/>
      <point x="1298" y="0" type="line"/>
      <point x="1518" y="1040" type="line"/>
      <point x="1172" y="1040" type="line"/>
      <point x="672" y="436" type="line"/>
      <point x="836" y="404" type="line"/>
      <point x="588" y="1040" type="line"/>
      <point x="576" y="1040" type="line"/>
      <point x="240" y="1040" type="line"/>
    </contour>
  </outline>
</glyph>
<glyph name="te-cy" format="2">
  <advance width="1036"/>
  <unicode hex="0442"/>
  <anchor x="506" y="452" name="bar"/>
  <anchor x="408" y="0" name="bottom"/>
  <anchor x="628" y="1040" name="top"/>
  <outline>
    <contour>
      <point x="208" y="0" type="line"/>
      <point x="608" y="0" type="line"/>
      <point x="762" y="728" type="line"/>
      <point x="1034" y="728" type="line"/>
      <point x="1100" y="1040" type="line"/>
      <point x="196" y="1040" type="line"/>
      <point x="50" y="728" type="line"/>
      <point x="362" y="728" type="line"/>
    </contour>
  </outline>
</glyph>
<glyph name="che-cy" format="2">
  <advance width="1236"/>
  <unicode hex="0447"/>
  <anchor x="564" y="486" name="center"/>
  <anchor x="996" y="0" name="descender"/>
  <anchor x="596" y="0" name="descender_alt"/>
  <anchor x="682" y="1040" name="top"/>
  <outline>
    <contour>
      <point x="596" y="0" type="line"/>
      <point x="996" y="0" type="line"/>
      <point x="1230" y="1100" type="line"/>
      <point x="790" y="914" type="line"/>
      <point x="730" y="638" type="line"/>
      <point x="692" y="632"/>
      <point x="654" y="626"/>
      <point x="594" y="626" type="curve" smooth="yes"/>
      <point x="498" y="626"/>
      <point x="474" y="680"/>
      <point x="496" y="782" type="curve" smooth="yes"/>
      <point x="564" y="1100" type="line"/>
      <point x="124" y="914" type="line"/>
      <point x="84" y="730" type="line" smooth="yes"/>
      <point x="16" y="420"/>
      <point x="184" y="302"/>
      <point x="436" y="302" type="curve" smooth="yes"/>
      <point x="506" y="302"/>
      <point x="578" y="314"/>
      <point x="668" y="336" type="curve"/>
    </contour>
  </outline>
</glyph>
<glyph name="yeru-cy" format="2">
  <advance width="1787"/>
  <unicode hex="044B"/>
  <anchor x="813" y="0" name="bottom"/>
  <anchor x="1003" y="1040" name="top"/>
  <outline>
    <contour>
      <point x="19" y="0" type="line"/>
      <point x="607" y="0" type="line" smooth="yes"/>
      <point x="907" y="0"/>
      <point x="1115" y="166"/>
      <point x="1115" y="404" type="curve" smooth="yes"/>
      <point x="1115" y="632"/>
      <point x="955" y="758"/>
      <point x="665" y="758" type="curve" smooth="yes"/>
      <point x="543" y="758" type="line"/>
      <point x="487" y="490" type="line"/>
      <point x="593" y="490" type="line" smooth="yes"/>
      <point x="663" y="490"/>
      <point x="701" y="450"/>
      <point x="701" y="388" type="curve" smooth="yes"/>
      <point x="701" y="316"/>
      <point x="649" y="272"/>
      <point x="581" y="272" type="curve" smooth="yes"/>
      <point x="475" y="272" type="line"/>
      <point x="651" y="1100" type="line"/>
      <point x="213" y="914" type="line"/>
    </contour>
    <contour>
      <point x="1147" y="0" type="line"/>
      <point x="1547" y="0" type="line"/>
      <point x="1781" y="1100" type="line"/>
      <point x="1343" y="914" type="line"/>
    </contour>
  </outline>
</glyph>
<glyph name="softsign-cy" format="2">
  <advance width="1208"/>
  <unicode hex="044C"/>
  <outline>
    <contour>
      <point x="20" y="0" type="line"/>
      <point x="618" y="0" type="line" smooth="yes"/>
      <point x="918" y="0"/>
      <point x="1126" y="166"/>
      <point x="1126" y="404" type="curve" smooth="yes"/>
      <point x="1126" y="632"/>
      <point x="966" y="758"/>
      <point x="676" y="758" type="curve" smooth="yes"/>
      <point x="544" y="758" type="line"/>
      <point x="488" y="490" type="line"/>
      <point x="604" y="490" type="line" smooth="yes"/>
      <point x="674" y="490"/>
      <point x="712" y="454"/>
      <point x="712" y="392" type="curve" smooth="yes"/>
      <point x="712" y="320"/>
      <point x="660" y="272"/>
      <point x="592" y="272" type="curve" smooth="yes"/>
      <point x="476" y="272" type="line"/>
      <point x="652" y="1100" type="line"/>
      <point x="213" y="914" type="line"/>
    </contour>
  </outline>
</glyph>
<glyph name="ereversed-cy" format="2">
  <advance width="1072"/>
  <unicode hex="044D"/>
  <guideline x="40" y="355" angle="78.0016"/>
  <guideline x="6" y="193" angle="78.0016"/>
  <anchor x="333" y="0" name="bottom"/>
  <anchor x="553" y="1040" name="top"/>
  <outline>
    <contour>
      <point x="387" y="-30" type="curve" smooth="yes"/>
      <point x="769" y="-30"/>
      <point x="1015" y="224"/>
      <point x="1015" y="556" type="curve" smooth="yes"/>
      <point x="1015" y="884"/>
      <point x="799" y="1070"/>
      <point x="465" y="1070" type="curve" smooth="yes"/>
      <point x="363" y="1070"/>
      <point x="263" y="1050"/>
      <point x="177" y="1018" type="curve"/>
      <point x="109" y="702" type="line"/>
      <point x="187" y="748"/>
      <point x="291" y="778"/>
      <point x="405" y="778" type="curve" smooth="yes"/>
      <point x="569" y="778"/>
      <point x="659" y="714"/>
      <point x="659" y="546" type="curve" smooth="yes"/>
      <point x="659" y="390"/>
      <point x="595" y="262"/>
      <point x="393" y="262" type="curve" smooth="yes"/>
      <point x="257" y="262"/>
      <point x="123" y="304"/>
      <point x="43" y="384" type="curve"/>
      <point x="-23" y="76" type="line"/>
      <point x="95" y="8"/>
      <point x="253" y="-30"/>
    </contour>
    <contour>
      <point x="193" y="396" type="line"/>
      <point x="749" y="396" type="line"/>
      <point x="805" y="664" type="line"/>
      <point x="305" y="664" type="line"/>
    </contour>
  </outline>
</glyph>
<glyph name="iu-cy" format="2">
  <advance width="1906"/>
  <unicode hex="044E"/>
  <anchor x="1096" y="1040" name="top"/>
  <outline>
    <contour>
      <point x="18" y="0" type="line"/>
      <point x="418" y="0" type="line"/>
      <point x="496" y="370" type="line"/>
      <point x="816" y="370" type="line"/>
      <point x="882" y="682" type="line"/>
      <point x="562" y="682" type="line"/>
      <point x="652" y="1100" type="line"/>
      <point x="214" y="914" type="line"/>
    </contour>
    <contour>
      <point x="1208" y="-30" type="curve" smooth="yes"/>
      <point x="1554" y="-30"/>
      <point x="1856" y="244"/>
      <point x="1856" y="578" type="curve" smooth="yes"/>
      <point x="1856" y="848"/>
      <point x="1646" y="1070"/>
      <point x="1312" y="1070" type="curve" smooth="yes"/>
      <point x="966" y="1070"/>
      <point x="664" y="796"/>
      <point x="664" y="464" type="curve" smooth="yes"/>
      <point x="664" y="192"/>
      <point x="872" y="-30"/>
    </contour>
    <contour>
      <point x="1238" y="310" type="curve" smooth="yes"/>
      <point x="1132" y="310"/>
      <point x="1056" y="380"/>
      <point x="1056" y="490" type="curve" smooth="yes"/>
      <point x="1056" y="616"/>
      <point x="1146" y="730"/>
      <point x="1282" y="730" type="curve" smooth="yes"/>
      <point x="1390" y="730"/>
      <point x="1464" y="662"/>
      <point x="1464" y="552" type="curve" smooth="yes"/>
      <point x="1464" y="426"/>
      <point x="1376" y="310"/>
    </contour>
  </outline>
</glyph>
<glyph name="e-cy" format="2">
  <advance width="1098"/>
  <unicode hex="0454"/>
  <guideline x="466" y="319" angle="78.0016"/>
  <guideline x="461" y="188" angle="78.0016"/>
  <outline>
    <contour>
      <point x="617" y="-30" type="curve" smooth="yes"/>
      <point x="715" y="-30"/>
      <point x="819" y="-10"/>
      <point x="913" y="26" type="curve"/>
      <point x="979" y="338" type="line"/>
      <point x="877" y="284"/>
      <point x="777" y="262"/>
      <point x="675" y="262" type="curve" smooth="yes"/>
      <point x="505" y="262"/>
      <point x="411" y="340"/>
      <point x="411" y="488" type="curve" smooth="yes"/>
      <point x="411" y="650"/>
      <point x="503" y="778"/>
      <point x="685" y="778" type="curve" smooth="yes"/>
      <point x="795" y="778"/>
      <point x="913" y="744"/>
      <point x="995" y="658" type="curve"/>
      <point x="1063" y="978" type="line"/>
      <point x="959" y="1038"/>
      <point x="835" y="1070"/>
      <point x="707" y="1070" type="curve" smooth="yes"/>
      <point x="359" y="1070"/>
      <point x="55" y="820"/>
      <point x="55" y="488" type="curve" smooth="yes"/>
      <point x="55" y="180"/>
      <point x="299" y="-30"/>
    </contour>
    <contour>
      <point x="267" y="396" type="line"/>
      <point x="807" y="396" type="line"/>
      <point x="863" y="664" type="line"/>
      <point x="323" y="664" type="line"/>
    </contour>
  </outline>
</glyph>
<glyph name="lje-cy" format="2">
  <advance width="1896"/>
  <unicode hex="0459"/>
  <guideline x="298" y="679" angle="77.9885"/>
  <outline>
    <contour>
      <point x="-30" y="-20" type="line"/>
      <point x="258" y="-66"/>
      <point x="522" y="46"/>
      <point x="590" y="360" type="curve" smooth="yes"/>
      <point x="670" y="728" type="line"/>
      <point x="862" y="728" type="line"/>
      <point x="1328" y="1040" type="line"/>
      <point x="375" y="1040" type="line"/>
      <point x="248" y="444" type="line" smooth="yes"/>
      <point x="221" y="317"/>
      <point x="122" y="288"/>
      <point x="36" y="292" type="curve"/>
    </contour>
    <contour>
      <point x="708" y="0" type="line"/>
      <point x="1306" y="0" type="line" smooth="yes"/>
      <point x="1606" y="0"/>
      <point x="1814" y="166"/>
      <point x="1814" y="404" type="curve" smooth="yes"/>
      <point x="1814" y="632"/>
      <point x="1654" y="758"/>
      <point x="1364" y="758" type="curve" smooth="yes"/>
      <point x="1232" y="758" type="line"/>
      <point x="1176" y="490" type="line"/>
      <point x="1292" y="490" type="line" smooth="yes"/>
      <point x="1362" y="490"/>
      <point x="1400" y="450"/>
      <point x="1400" y="388" type="curve" smooth="yes"/>
      <point x="1400" y="316"/>
      <point x="1348" y="272"/>
      <point x="1280" y="272" type="curve" smooth="yes"/>
      <point x="1164" y="272" type="line"/>
      <point x="1328" y="1040" type="line"/>
      <point x="928" y="1040" type="line"/>
    </contour>
  </outline>
</glyph>
<glyph name="yat-cy" format="2">
  <advance width="1367"/>
  <unicode hex="0463"/>
  <guideline x="117" y="894" angle="66.7638"/>
  <outline>
    <contour>
      <point x="192" y="0" type="line"/>
      <point x="790" y="0" type="line" smooth="yes"/>
      <point x="1080" y="0"/>
      <point x="1278" y="152"/>
      <point x="1278" y="366" type="curve" smooth="yes"/>
      <point x="1278" y="563"/>
      <point x="1122" y="674"/>
      <point x="840" y="674" type="curve" smooth="yes"/>
      <point x="462" y="674" type="line"/>
      <point x="580" y="440" type="line"/>
      <point x="764" y="440" type="line" smooth="yes"/>
      <point x="828" y="440"/>
      <point x="864" y="405"/>
      <point x="864" y="356" type="curve" smooth="yes"/>
      <point x="864" y="301"/>
      <point x="818" y="268"/>
      <point x="758" y="268" type="curve" smooth="yes"/>
      <point x="646" y="268" type="line"/>
      <point x="906" y="1480" type="line"/>
      <point x="466" y="1294" type="line"/>
    </contour>
    <contour>
      <point x="54" y="748" type="line"/>
      <point x="1012" y="748" type="line"/>
      <point x="1074" y="1040" type="line"/>
      <point x="180" y="1040" type="line"/>
    </contour>
  </outline>
</glyph>
<glyph name="Yusbig-cy" format="2">
  <advance width="2136"/>
  <unicode hex="046A"/>
  <anchor x="1892" y="0" name="descender"/>
  <anchor x="1254" y="1400" name="top"/>
  <outline>
    <contour>
      <point x="-120" y="0" type="line"/>
      <point x="348" y="0" type="line"/>
      <point x="966" y="680" type="line"/>
      <point x="746" y="1092" type="line"/>
      <point x="1614" y="1092" type="line"/>
      <point x="1228" y="692" type="line"/>
      <point x="1582" y="0" type="line"/>
      <point x="2034" y="0" type="line"/>
      <point x="1670" y="670" type="line"/>
      <point x="2060" y="1062" type="line"/>
      <point x="2130" y="1400" type="line"/>
      <point x="384" y="1400" type="line"/>
      <point x="310" y="1062" type="line"/>
      <point x="526" y="686" type="line"/>
    </contour>
    <contour>
      <point x="756" y="0" type="line"/>
      <point x="1160" y="0" type="line"/>
      <point x="1274" y="560" type="line"/>
      <point x="1516" y="560" type="line"/>
      <point x="1594" y="832" type="line"/>
      <point x="708" y="832" type="line"/>
      <point x="630" y="560" type="line"/>
      <point x="872" y="560" type="line"/>
    </contour>
  </outline>
</glyph>
<glyph name="yusbig-cy" format="2">
  <advance width="1800"/>
  <unicode hex="046B"/>
  <guideline x="220" y="910" angle="246.8858"/>
  <anchor x="1556" y="0" name="descender"/>
  <outline>
    <contour>
      <point x="-98" y="0" type="line"/>
      <point x="362" y="0" type="line"/>
      <point x="718" y="504" type="line"/>
      <point x="610" y="770" type="line"/>
      <point x="1276" y="770" type="line"/>
      <point x="1060" y="504" type="line"/>
      <point x="1224" y="0" type="line"/>
      <point x="1676" y="0" type="line"/>
      <point x="1486" y="506" type="line"/>
      <point x="1716" y="780" type="line"/>
      <point x="1770" y="1040" type="line"/>
      <point x="248" y="1040" type="line"/>
      <point x="192" y="780" type="line"/>
      <point x="298" y="530" type="line"/>
    </contour>
    <contour>
      <point x="582" y="0" type="line"/>
      <point x="982" y="0" type="line"/>
      <point x="1056" y="370" type="line"/>
      <point x="1350" y="370" type="line"/>
      <point x="1402" y="602" type="line"/>
      <point x="416" y="602" type="line"/>
      <point x="364" y="370" type="line"/>
      <point x="656" y="370" type="line"/>
    </contour>
  </outline>
</glyph>
<glyph name="Fita-cy" format="2">
  <advance width="1684"/>
  <unicode hex="0472"/>
  <anchor x="768" y="0" name="bottom"/>
  <anchor x="1396" y="1400" name="horn"/>
  <anchor x="1034" y="0" name="ogonek"/>
  <anchor x="992" y="1400" name="top"/>
  <anchor x="286" y="1400" name="topleft"/>
  <outline>
    <contour>
      <point x="304" y="450" type="line"/>
      <point x="410" y="544"/>
      <point x="516" y="588"/>
      <point x="628" y="588" type="curve" smooth="yes"/>
      <point x="770" y="588"/>
      <point x="924" y="514"/>
      <point x="1080" y="514" type="curve" smooth="yes"/>
      <point x="1188" y="514"/>
      <point x="1288" y="552"/>
      <point x="1388" y="630" type="curve"/>
      <point x="1454" y="952" type="line"/>
      <point x="1352" y="858"/>
      <point x="1252" y="816"/>
      <point x="1140" y="816" type="curve" smooth="yes"/>
      <point x="1002" y="816"/>
      <point x="846" y="890"/>
      <point x="688" y="890" type="curve" smooth="yes"/>
      <point x="580" y="890"/>
      <point x="478" y="852"/>
      <point x="370" y="772" type="curve"/>
    </contour>
    <component base="O"/>
  </outline>
</glyph>
<glyph name="Izhitsa-cy" format="2">
  <advance width="1466"/>
  <unicode hex="0474"/>
  <outline>
    <contour>
      <point x="372" y="0" type="line"/>
      <point x="842" y="0" type="line"/>
      <point x="1280" y="768" type="line" smooth="yes"/>
      <point x="1402" y="990"/>
      <point x="1500" y="1050"/>
      <point x="1660" y="1032" type="curve"/>
      <point x="1744" y="1430" type="line"/>
      <point x="1386" y="1474"/>
      <point x="1170" y="1368"/>
      <point x="956" y="964" type="curve" smooth="yes"/>
      <point x="710" y="512" type="line"/>
      <point x="618" y="1400" type="line"/>
      <point x="170" y="1400" type="line"/>
    </contour>
  </outline>
</glyph>
<glyph name="gheupturn-cy" format="2">
  <advance width="905"/>
  <unicode hex="0491"/>
  <anchor x="339" y="462" name="bar"/>
  <anchor x="421" y="0" name="descender"/>
  <anchor x="613" y="1040" name="top"/>
  <outline>
    <contour>
      <point x="542" y="728" type="line"/>
      <point x="906" y="728" type="line"/>
      <point x="1054" y="1424" type="line"/>
      <point x="654" y="1256" type="line"/>
    </contour>
    <component base="ge-cy"/>
  </outline>
</glyph>
<glyph name="ghemiddlehook-cy" format="2">
  <advance width="1187"/>
  <unicode hex="0495"/>
  <anchor x="339" y="462" name="bar"/>
  <anchor x="421" y="0" name="descender"/>
  <anchor x="613" y="1040" name="top"/>
  <outline>
    <contour>
      <point x="624" y="-262" type="line"/>
      <point x="894" y="-166"/>
      <point x="1060" y="20"/>
      <point x="1060" y="252" type="curve" smooth="yes"/>
      <point x="1060" y="462"/>
      <point x="910" y="622"/>
      <point x="640" y="622" type="curve" smooth="yes"/>
      <point x="578" y="622"/>
      <point x="508" y="614"/>
      <point x="444" y="600" type="curve"/>
      <point x="394" y="310" type="line"/>
      <point x="444" y="322"/>
      <point x="490" y="328"/>
      <point x="526" y="328" type="curve" smooth="yes"/>
      <point x="632" y="328"/>
      <point x="694" y="280"/>
      <point x="694" y="214" type="curve" smooth="yes"/>
      <point x="694" y="128"/>
      <point x="618" y="64"/>
      <point x="494" y="18" type="curve"/>
    </contour>
    <component base="ge-cy"/>
  </outline>
</glyph>
<glyph name="enghe-cy" format="2">
  <advance width="1626"/>
  <unicode hex="04A5"/>
  <guideline x="838" y="457" angle="78.0166"/>
  <outline>
    <contour>
      <point x="21" y="0" type="line"/>
      <point x="421" y="0" type="line"/>
      <point x="499" y="370" type="line"/>
      <point x="819" y="370" type="line"/>
      <point x="741" y="0" type="line"/>
      <point x="1141" y="0" type="line"/>
      <point x="1295" y="728" type="line"/>
      <point x="1629" y="728" type="line"/>
      <point x="1695" y="1040" type="line"/>
      <point x="962" y="1040" type="line"/>
      <point x="885" y="682" type="line"/>
      <point x="565" y="682" type="line"/>
      <point x="653" y="1100" type="line"/>
      <point x="213" y="914" type="line"/>
    </contour>
  </outline>
</glyph>
<glyph name="ustraight-cy" format="2">
  <advance width="1176"/>
  <unicode hex="04AF"/>
  <guideline x="367" y="-100" angle="0"/>
  <anchor x="472" y="-80" name="bar"/>
  <outline>
    <contour>
      <point x="200" y="-420" type="line"/>
      <point x="600" y="-420" type="line"/>
      <point x="688" y="2" type="line"/>
      <point x="1278" y="1040" type="line"/>
      <point x="844" y="1040" type="line"/>
      <point x="506" y="356" type="line"/>
      <point x="602" y="338" type="line"/>
      <point x="540" y="1040" type="line"/>
      <point x="120" y="1040" type="line"/>
      <point x="288" y="0" type="line"/>
    </contour>
  </outline>
</glyph>
<glyph name="Shha-cy" format="2">
  <advance width="1476"/>
  <unicode hex="04BA"/>
  <outline>
    <contour>
      <point x="48" y="0" type="line"/>
      <point x="452" y="0" type="line"/>
      <point x="572" y="580" type="line"/>
      <point x="638" y="598"/>
      <point x="698" y="608"/>
      <point x="776" y="608" type="curve" smooth="yes"/>
      <point x="928" y="608"/>
      <point x="1000" y="542"/>
      <point x="960" y="358" type="curve" smooth="yes"/>
      <point x="884" y="0" type="line"/>
      <point x="1288" y="0" type="line"/>
      <point x="1374" y="412" type="line" smooth="yes"/>
      <point x="1456" y="804"/>
      <point x="1266" y="960"/>
      <point x="936" y="960" type="curve" smooth="yes"/>
      <point x="838" y="960"/>
      <point x="746" y="942"/>
      <point x="642" y="910" type="curve"/>
      <point x="748" y="1400" type="line"/>
      <point x="344" y="1400" type="line"/>
    </contour>
  </outline>
</glyph>
<glyph name="quoteleft" format="2">
  <advance width="610"/>
  <unicode hex="2018"/>
  <outline>
    <contour>
      <point x="356" y="588" type="curve" smooth="yes"/>
      <point x="498" y="588"/>
      <point x="614" y="700"/>
      <point x="614" y="840" type="curve" smooth="yes"/>
      <point x="614" y="936"/>
      <point x="536" y="1022"/>
      <point x="430" y="1038" type="curve"/>
      <point x="502" y="1124"/>
      <point x="624" y="1210"/>
      <point x="730" y="1242" type="curve"/>
      <point x="620" y="1420" type="line"/>
      <point x="350" y="1286"/>
      <point x="132" y="1078"/>
      <point x="132" y="826" type="curve" smooth="yes"/>
      <point x="132" y="684"/>
      <point x="218" y="588"/>
    </contour>
  </outline>
</glyph>
<glyph name="quoteright" format="2">
  <advance width="609"/>
  <unicode hex="2019"/>
  <outline>
    <contour>
      <point x="195" y="588" type="line"/>
      <point x="465" y="722"/>
      <point x="683" y="930"/>
      <point x="683" y="1182" type="curve" smooth="yes"/>
      <point x="683" y="1324"/>
      <point x="597" y="1420"/>
      <point x="459" y="1420" type="curve" smooth="yes"/>
      <point x="317" y="1420"/>
      <point x="201" y="1308"/>
      <point x="201" y="1168" type="curve" smooth="yes"/>
      <point x="201" y="1072"/>
      <point x="279" y="986"/>
      <point x="385" y="970" type="curve"/>
      <point x="313" y="884"/>
      <point x="191" y="798"/>
      <point x="85" y="766" type="curve"/>
    </contour>
  </outline>
</glyph>
<glyph name="daggerdbl" format="2">
  <advance width="1349"/>
  <unicode hex="2021"/>
  <outline>
    <contour>
      <point x="300" y="-318" type="line"/>
      <point x="694" y="-318" type="line"/>
      <point x="770" y="44" type="line"/>
      <point x="1182" y="44" type="line"/>
      <point x="1252" y="368" type="line"/>
      <point x="840" y="368" type="line"/>
      <point x="912" y="714" type="line"/>
      <point x="1324" y="714" type="line"/>
      <point x="1394" y="1038" type="line"/>
      <point x="982" y="1038" type="line"/>
      <point x="1058" y="1400" type="line"/>
      <point x="664" y="1400" type="line"/>
      <point x="588" y="1038" type="line"/>
      <point x="176" y="1038" type="line"/>
      <point x="106" y="714" type="line"/>
      <point x="518" y="714" type="line"/>
      <point x="446" y="368" type="line"/>
      <point x="34" y="368" type="line"/>
      <point x="-36" y="44" type="line"/>
      <point x="376" y="44" type="line"/>
    </contour>
  </outline>
</glyph>
<glyph name="fraction" format="2">
  <advance width="404"/>
  <unicode hex="2044"/>
  <guideline x="-95" y="-24" angle="322.7187"/>
  <guideline x="335" y="723" angle="322.7187"/>
  <outline>
    <contour>
      <point x="-168" y="0" type="line"/>
      <point x="929" y="1400" type="line"/>
      <point x="648" y="1400" type="line"/>
      <point x="-449" y="0" type="line"/>
    </contour>
  </outline>
</glyph>
<glyph name="trademark" format="2">
  <advance width="1968"/>
  <unicode hex="2122"/>
  <anchor x="488" y="952" name="bar"/>
  <anchor x="404" y="560" name="bottom"/>
  <anchor x="580" y="1400" name="top"/>
  <outline>
    <contour>
      <point x="292" y="560" type="line"/>
      <point x="516" y="560" type="line"/>
      <point x="652" y="1198" type="line"/>
      <point x="886" y="1198" type="line"/>
      <point x="926" y="1400" type="line"/>
      <point x="258" y="1400" type="line"/>
      <point x="174" y="1198" type="line"/>
      <point x="428" y="1198" type="line"/>
    </contour>
    <contour>
      <point x="876" y="560" type="line"/>
      <point x="1092" y="560" type="line"/>
      <point x="1192" y="1028" type="line"/>
      <point x="1326" y="710" type="line"/>
      <point x="1474" y="710" type="line"/>
      <point x="1744" y="1008" type="line"/>
      <point x="1642" y="560" type="line"/>
      <point x="1858" y="560" type="line"/>
      <point x="2036" y="1400" type="line"/>
      <point x="1822" y="1400" type="line"/>
      <point x="1448" y="966" type="line"/>
      <point x="1270" y="1400" type="line"/>
      <point x="1054" y="1400" type="line"/>
    </contour>
  </outline>
</glyph>
<glyph name="notequal" format="2">
  <advance width="1297"/>
  <unicode hex="2260"/>
  <guideline x="689" y="583" angle="325.4466"/>
  <guideline x="-11" y="81" angle="325.4466"/>
  <outline>
    <contour>
      <point x="365" y="23" type="line"/>
      <point x="1252" y="1308" type="line"/>
      <point x="988" y="1308" type="line"/>
      <point x="105" y="23" type="line"/>
    </contour>
    <contour>
      <point x="124" y="782" type="line"/>
      <point x="1284" y="782" type="line"/>
      <point x="1340" y="1050" type="line"/>
      <point x="180" y="1050" type="line"/>
    </contour>
    <contour>
      <point x="20" y="290" type="line"/>
      <point x="1180" y="290" type="line"/>
      <point x="1236" y="558" type="line"/>
      <point x="76" y="558" type="line"/>
    </contour>
  </outline>
</glyph>
<glyph name="_part.C" format="2">
  <advance width="846"/>
  <anchor x="454" y="392" name="_center"/>
  <anchor x="454" y="0" name="bottom"/>
  <anchor x="454" y="784" name="top"/>
  <outline>
    <contour>
      <point x="478" y="-16" type="curve" smooth="yes"/>
      <point x="580" y="-16"/>
      <point x="658" y="2"/>
      <point x="726" y="34" type="curve"/>
      <point x="726" y="246" type="line"/>
      <point x="652" y="198"/>
      <point x="570" y="180"/>
      <point x="496" y="180" type="curve" smooth="yes"/>
      <point x="350" y="180"/>
      <point x="262" y="260"/>
      <point x="262" y="392" type="curve" smooth="yes"/>
      <point x="262" y="522"/>
      <point x="348" y="604"/>
      <point x="494" y="604" type="curve" smooth="yes"/>
      <point x="576" y="604"/>
      <point x="650" y="582"/>
      <point x="700" y="538" type="curve"/>
      <point x="700" y="756" type="line"/>
      <point x="644" y="784"/>
      <point x="576" y="800"/>
      <point x="480" y="800" type="curve" smooth="yes"/>
      <point x="230" y="800"/>
      <point x="50" y="630"/>
      <point x="50" y="390" type="curve" smooth="yes"/>
      <point x="50" y="140"/>
      <point x="226" y="-16"/>
    </contour>
  </outline>
</glyph>
<glyph name="_part.Kaverticalstroke-cy" format="2">
  <advance width="1672"/>
  <guideline x="469" y="700" angle="0"/>
  <anchor x="740" y="722" name="center"/>
  <outline>
    <contour>
      <point x="1070" y="0" type="line"/>
      <point x="1572" y="0" type="line"/>
      <point x="1180" y="682" type="line"/>
      <point x="1804" y="1400" type="line"/>
      <point x="1272" y="1400" type="line"/>
      <point x="690" y="710" type="line"/>
    </contour>
    <contour>
      <point x="48" y="0" type="line"/>
      <point x="452" y="0" type="line"/>
      <point x="566" y="538" type="line"/>
      <point x="994" y="538" type="line"/>
      <point x="1072" y="906" type="line"/>
      <point x="644" y="906" type="line"/>
      <point x="748" y="1400" type="line"/>
      <point x="344" y="1400" type="line"/>
    </contour>
  </outline>
</glyph>
<glyph name="_part.cy-desc-lc-reversed" format="2">
  <advance width="1200"/>
  <anchor x="1220" y="0" name="_descender"/>
  <outline>
    <contour>
      <point x="1254" y="-216" type="line"/>
      <point x="1300" y="0" type="line"/>
      <point x="1380" y="0" type="line"/>
      <point x="1446" y="312" type="line"/>
      <point x="1002" y="312" type="line"/>
      <point x="854" y="-384" type="line"/>
    </contour>
  </outline>
</glyph>
<glyph name="_part.cy-desc-lc-stem" format="2">
  <advance width="1200"/>
  <anchor x="1198" y="0" name="_descender"/>
  <outline>
    <contour>
      <point x="934" y="-384" type="line"/>
      <point x="1334" y="-216" type="line"/>
      <point x="1446" y="312" type="line"/>
      <point x="1082" y="312" type="line"/>
    </contour>
  </outline>
</glyph>
<glyph name="_part.cy-desc-uc-reversed" format="2">
  <guideline x="-29" y="184" angle="23.1002"/>
  <guideline x="-29" y="184" angle="0"/>
  <anchor x="-110" y="0" name="_descender"/>
  <outline>
    <contour>
      <point x="-432" y="-440" type="line"/>
      <point x="-10" y="-260" type="line"/>
      <point x="46" y="0" type="line"/>
      <point x="146" y="0" type="line"/>
      <point x="222" y="368" type="line"/>
      <point x="-262" y="368" type="line"/>
    </contour>
  </outline>
</glyph>
<glyph name="_part.cy-desc-uc" format="2">
  <anchor x="-152" y="0" name="_descender"/>
  <outline>
    <contour>
      <point x="-402" y="-440" type="line"/>
      <point x="20" y="-260" type="line"/>
      <point x="154" y="368" type="line"/>
      <point x="-330" y="368" type="line"/>
      <point x="-408" y="0" type="line"/>
      <point x="-308" y="0" type="line"/>
    </contour>
  </outline>
</glyph>
<glyph name="_part.cy-descender-lc-center" format="2">
  <anchor x="-144" y="0" name="_bottom"/>
  <outline>
    <contour>
      <point x="-408" y="-386" type="line"/>
      <point x="-8" y="-214" type="line"/>
      <point x="82" y="208" type="line"/>
      <point x="-280" y="208" type="line"/>
    </contour>
  </outline>
</glyph>
<glyph name="_part.franc" format="2">
  <advance width="1204"/>
  <outline>
    <contour>
      <point x="50" y="0" type="line"/>
      <point x="418" y="0" type="line"/>
      <point x="524" y="500" type="line"/>
      <point x="1038" y="500" type="line"/>
      <point x="1106" y="822" type="line"/>
      <point x="592" y="822" type="line"/>
      <point x="644" y="1066" type="line"/>
      <point x="1220" y="1066" type="line"/>
      <point x="1290" y="1400" type="line"/>
      <point x="346" y="1400" type="line"/>
    </contour>
  </outline>
</glyph>
<glyph name="_part.hryvniaBase" format="2">
  <advance width="1223"/>
  <guideline x="497" y="219" angle="78.0016"/>
  <guideline x="154" y="490" angle="78.0016"/>
  <anchor x="763" y="1400" name="top"/>
  <outline>
    <contour>
      <point x="607" y="-32" type="curve" smooth="yes"/>
      <point x="743" y="-32"/>
      <point x="873" y="-8"/>
      <point x="987" y="36" type="curve"/>
      <point x="1073" y="438" type="line"/>
      <point x="971" y="354"/>
      <point x="783" y="302"/>
      <point x="639" y="302" type="curve" smooth="yes"/>
      <point x="511" y="302"/>
      <point x="449" y="330"/>
      <point x="449" y="394" type="curve" smooth="yes"/>
      <point x="449" y="456"/>
      <point x="511" y="496"/>
      <point x="599" y="522" type="curve" smooth="yes"/>
      <point x="737" y="564" type="line" smooth="yes"/>
      <point x="985" y="640"/>
      <point x="1189" y="786"/>
      <point x="1189" y="1026" type="curve" smooth="yes"/>
      <point x="1189" y="1288"/>
      <point x="935" y="1430"/>
      <point x="653" y="1430" type="curve" smooth="yes"/>
      <point x="527" y="1430"/>
      <point x="411" y="1410"/>
      <point x="311" y="1376" type="curve"/>
      <point x="227" y="980" type="line"/>
      <point x="327" y="1050"/>
      <point x="451" y="1100"/>
      <point x="599" y="1100" type="curve" smooth="yes"/>
      <point x="733" y="1100"/>
      <point x="793" y="1058"/>
      <point x="793" y="1000" type="curve" smooth="yes"/>
      <point x="793" y="944"/>
      <point x="765" y="916"/>
      <point x="643" y="878" type="curve" smooth="yes"/>
      <point x="515" y="838" type="line" smooth="yes"/>
      <point x="253" y="756"/>
      <point x="53" y="648"/>
      <point x="53" y="384" type="curve" smooth="yes"/>
      <point x="53" y="104"/>
      <point x="319" y="-32"/>
    </contour>
  </outline>
</glyph>
<glyph name="_part.tse-cy" format="2">
  <advance width="1338"/>
  <anchor x="558" y="0" name="bottom"/>
  <anchor x="1098" y="0" name="descender"/>
  <outline>
    <contour>
      <point x="18" y="0" type="line"/>
      <point x="1096" y="0" type="line"/>
      <point x="1332" y="1100" type="line"/>
      <point x="894" y="914" type="line"/>
      <point x="764" y="312" type="line"/>
      <point x="484" y="312" type="line"/>
      <point x="652" y="1100" type="line"/>
      <point x="214" y="914" type="line"/>
    </contour>
  </outline>
</glyph>
<glyph name="_part.won" format="2">
  <advance width="1297"/>
  <anchor x="836" y="1400" name="top"/>
  <outline>
    <contour>
      <point x="170" y="0" type="line"/>
      <point x="450" y="0" type="line"/>
      <point x="722" y="870" type="line"/>
      <point x="630" y="0" type="line"/>
      <point x="910" y="0" type="line"/>
      <point x="1408" y="1400" type="line"/>
      <point x="1128" y="1400" type="line"/>
      <point x="886" y="584" type="line"/>
      <point x="988" y="1400" type="line"/>
      <point x="690" y="1400" type="line"/>
      <point x="440" y="554" type="line"/>
      <point x="546" y="1400" type="line"/>
      <point x="264" y="1400" type="line"/>
    </contour>
  </outline>
</glyph>
<glyph name="brevecomb.narrow" format="2">
  <anchor x="-672" y="1040" name="_top"/>
  <anchor x="-578" y="1484" name="top"/>
  <outline>
    <contour>
      <point x="-606" y="1160" type="curve" smooth="yes"/>
      <point x="-376" y="1160"/>
      <point x="-200" y="1314"/>
      <point x="-174" y="1544" type="curve"/>
      <point x="-492" y="1544" type="line"/>
      <point x="-498" y="1462"/>
      <point x="-538" y="1410"/>
      <point x="-586" y="1410" type="curve" smooth="yes"/>
      <point x="-642" y="1410"/>
      <point x="-664" y="1472"/>
      <point x="-650" y="1544" type="curve"/>
      <point x="-970" y="1544" type="line"/>
      <point x="-1004" y="1318"/>
      <point x="-854" y="1160"/>
    </contour>
  </outline>
</glyph>
<glyph name="breveinvertedcomb.case" format="2">
  <anchor x="-830" y="1400" name="_top"/>
  <outline>
    <contour>
      <point x="-1252" y="1508" type="curve"/>
      <point x="-916" y="1508" type="line"/>
      <point x="-912" y="1574"/>
      <point x="-860" y="1614"/>
      <point x="-788" y="1614" type="curve" smooth="yes"/>
      <point x="-702" y="1614"/>
      <point x="-672" y="1570"/>
      <point x="-682" y="1508" type="curve"/>
      <point x="-344" y="1508" type="line"/>
      <point x="-320" y="1720"/>
      <point x="-498" y="1872"/>
      <point x="-780" y="1872" type="curve" smooth="yes"/>
      <point x="-1046" y="1872"/>
      <point x="-1236" y="1732"/>
    </contour>
  </outline>
</glyph>
<glyph name="caroncomb.alt" format="2">
  <anchor x="-134" y="1440" name="_caron"/>
  <outline>
    <contour>
      <point x="-136" y="1092" type="line"/>
      <point x="132" y="1092" type="line"/>
      <point x="288" y="1440" type="line"/>
      <point x="-64" y="1440" type="line"/>
    </contour>
  </outline>
</glyph>
<glyph name="circumflexcomb.case" format="2">
  <anchor x="-830" y="1400" name="_top"/>
  <anchor x="-744" y="1806" name="top"/>
  <anchor x="-264" y="1734" name="top_right"/>
  <outline>
    <contour>
      <point x="-1310" y="1508" type="line"/>
      <point x="-912" y="1508" type="line"/>
      <point x="-766" y="1636" type="line"/>
      <point x="-688" y="1508" type="line"/>
      <point x="-322" y="1508" type="line"/>
      <point x="-552" y="1862" type="line"/>
      <point x="-908" y="1862" type="line"/>
    </contour>
  </outline>
</glyph>
<glyph name="dblgravecomb.case" format="2">
  <anchor x="-830" y="1400" name="_top"/>
  <outline>
    <contour>
      <point x="-682" y="1508" type="line"/>
      <point x="-316" y="1508" type="line"/>
      <point x="-456" y="1862" type="line"/>
      <point x="-858" y="1862" type="line"/>
    </contour>
    <contour>
      <point x="-1242" y="1508" type="line"/>
      <point x="-874" y="1508" type="line"/>
      <point x="-1016" y="1862" type="line"/>
      <point x="-1418" y="1862" type="line"/>
    </contour>
  </outline>
</glyph>
<glyph name="dieresiscomb.narrow" format="2">
  <anchor x="-708" y="1040" name="_top"/>
  <anchor x="-614" y="1484" name="top"/>
  <outline>
    <contour>
      <point x="-890" y="1170" type="curve" smooth="yes"/>
      <point x="-774" y="1170"/>
      <point x="-676" y="1256"/>
      <point x="-676" y="1398" type="curve" smooth="yes"/>
      <point x="-676" y="1508"/>
      <point x="-746" y="1578"/>
      <point x="-852" y="1578" type="curve" smooth="yes"/>
      <point x="-968" y="1578"/>
      <point x="-1066" y="1492"/>
      <point x="-1066" y="1350" type="curve" smooth="yes"/>
      <point x="-1066" y="1240"/>
      <point x="-996" y="1170"/>
    </contour>
    <contour>
      <point x="-424" y="1170" type="curve" smooth="yes"/>
      <point x="-308" y="1170"/>
      <point x="-210" y="1256"/>
      <point x="-210" y="1398" type="curve" smooth="yes"/>
      <point x="-210" y="1508"/>
      <point x="-280" y="1578"/>
      <point x="-386" y="1578" type="curve" smooth="yes"/>
      <point x="-502" y="1578"/>
      <point x="-600" y="1492"/>
      <point x="-600" y="1350" type="curve" smooth="yes"/>
      <point x="-600" y="1240"/>
      <point x="-530" y="1170"/>
    </contour>
  </outline>
</glyph>
<glyph name="g.ss01" format="2">
  <advance width="1353"/>
  <guideline x="84" y="-21" angle="258.0204"/>
  <anchor x="707" y="1040" name="top"/>
  <outline>
    <contour>
      <point x="463" y="-450" type="curve" smooth="yes"/>
      <point x="831" y="-450"/>
      <point x="1059" y="-244"/>
      <point x="1147" y="164" type="curve" smooth="yes"/>
      <point x="1343" y="1082" type="line"/>
      <point x="905" y="894" type="line"/>
      <point x="873" y="744" type="line"/>
      <point x="985" y="822" type="line"/>
      <point x="965" y="978"/>
      <point x="811" y="1070"/>
      <point x="603" y="1070" type="curve" smooth="yes"/>
      <point x="277" y="1070"/>
      <point x="55" y="798"/>
      <point x="55" y="468" type="curve" smooth="yes"/>
      <point x="55" y="204"/>
      <point x="223" y="30"/>
      <point x="499" y="30" type="curve" smooth="yes"/>
      <point x="665" y="30"/>
      <point x="787" y="96"/>
      <point x="849" y="216" type="curve"/>
      <point x="827" y="302" type="line"/>
      <point x="777" y="104" type="line" smooth="yes"/>
      <point x="745" y="-46"/>
      <point x="639" y="-114"/>
      <point x="469" y="-114" type="curve" smooth="yes"/>
      <point x="351" y="-114"/>
      <point x="253" y="-90"/>
      <point x="167" y="-42" type="curve"/>
      <point x="95" y="-379" type="line"/>
      <point x="194" y="-428"/>
      <point x="316" y="-450"/>
    </contour>
    <contour>
      <point x="623" y="360" type="curve" smooth="yes"/>
      <point x="517" y="360"/>
      <point x="449" y="426"/>
      <point x="449" y="524" type="curve" smooth="yes"/>
      <point x="449" y="650"/>
      <point x="543" y="740"/>
      <point x="661" y="740" type="curve" smooth="yes"/>
      <point x="767" y="740"/>
      <point x="835" y="672"/>
      <point x="835" y="572" type="curve" smooth="yes"/>
      <point x="835" y="448"/>
      <point x="741" y="360"/>
    </contour>
  </outline>
</glyph>
<glyph name="ge-cy.loclBGR" format="2">
  <advance width="1079"/>
  <anchor x="417" y="0" name="bottom"/>
  <anchor x="683" y="1040" name="top"/>
  <outline>
    <contour>
      <point x="431" y="-28" type="curve" smooth="yes"/>
      <point x="589" y="-28"/>
      <point x="743" y="4"/>
      <point x="875" y="66" type="curve"/>
      <point x="947" y="404" type="line"/>
      <point x="795" y="314"/>
      <point x="647" y="264"/>
      <point x="521" y="264" type="curve" smooth="yes"/>
      <point x="451" y="264"/>
      <point x="413" y="280"/>
      <point x="413" y="310" type="curve" smooth="yes"/>
      <point x="413" y="346"/>
      <point x="447" y="362"/>
      <point x="613" y="414" type="curve" smooth="yes"/>
      <point x="937" y="516"/>
      <point x="1047" y="640"/>
      <point x="1047" y="806" type="curve" smooth="yes"/>
      <point x="1047" y="982"/>
      <point x="903" y="1080"/>
      <point x="667" y="1080" type="curve" smooth="yes"/>
      <point x="537" y="1080"/>
      <point x="391" y="1046"/>
      <point x="267" y="992" type="curve"/>
      <point x="195" y="658" type="line"/>
      <point x="323" y="738"/>
      <point x="465" y="788"/>
      <point x="573" y="788" type="curve" smooth="yes"/>
      <point x="633" y="788"/>
      <point x="675" y="768"/>
      <point x="675" y="738" type="curve" smooth="yes"/>
      <point x="675" y="704"/>
      <point x="645" y="690"/>
      <point x="479" y="646" type="curve" smooth="yes"/>
      <point x="165" y="562"/>
      <point x="41" y="444"/>
      <point x="41" y="266" type="curve" smooth="yes"/>
      <point x="41" y="78"/>
      <point x="189" y="-28"/>
    </contour>
  </outline>
</glyph>
<glyph name="hookabovecomb.case" format="2">
  <anchor x="-830" y="1400" name="_top"/>
  <outline>
    <contour>
      <point x="-926" y="1508" type="curve"/>
      <point x="-678" y="1508" type="line"/>
      <point x="-692" y="1546"/>
      <point x="-664" y="1560"/>
      <point x="-600" y="1586" type="curve" smooth="yes"/>
      <point x="-512" y="1622"/>
      <point x="-450" y="1674"/>
      <point x="-450" y="1764" type="curve" smooth="yes"/>
      <point x="-450" y="1872"/>
      <point x="-566" y="1940"/>
      <point x="-760" y="1940" type="curve" smooth="yes"/>
      <point x="-842" y="1940"/>
      <point x="-934" y="1926"/>
      <point x="-1002" y="1900" type="curve"/>
      <point x="-1042" y="1702" type="line"/>
      <point x="-988" y="1716"/>
      <point x="-934" y="1726"/>
      <point x="-868" y="1726" type="curve" smooth="yes"/>
      <point x="-814" y="1726"/>
      <point x="-778" y="1720"/>
      <point x="-778" y="1708" type="curve" smooth="yes"/>
      <point x="-778" y="1686"/>
      <point x="-802" y="1682"/>
      <point x="-844" y="1672" type="curve" smooth="yes"/>
      <point x="-942" y="1650"/>
      <point x="-968" y="1592"/>
    </contour>
  </outline>
</glyph>
<glyph name="hookabovecomb.narrow" format="2">
  <anchor x="-678" y="1040" name="_top"/>
  <outline>
    <contour>
      <point x="-766" y="1170" type="curve"/>
      <point x="-534" y="1170" type="line"/>
      <point x="-542" y="1210"/>
      <point x="-524" y="1232"/>
      <point x="-466" y="1262" type="curve" smooth="yes"/>
      <point x="-384" y="1304"/>
      <point x="-330" y="1356"/>
      <point x="-330" y="1458" type="curve" smooth="yes"/>
      <point x="-330" y="1566"/>
      <point x="-424" y="1634"/>
      <point x="-594" y="1634" type="curve" smooth="yes"/>
      <point x="-674" y="1634"/>
      <point x="-758" y="1618"/>
      <point x="-814" y="1594" type="curve"/>
      <point x="-860" y="1400" type="line"/>
      <point x="-812" y="1416"/>
      <point x="-768" y="1426"/>
      <point x="-710" y="1426" type="curve" smooth="yes"/>
      <point x="-674" y="1426"/>
      <point x="-644" y="1416"/>
      <point x="-644" y="1396" type="curve" smooth="yes"/>
      <point x="-644" y="1376"/>
      <point x="-650" y="1362"/>
      <point x="-694" y="1348" type="curve" smooth="yes"/>
      <point x="-780" y="1320"/>
      <point x="-800" y="1262"/>
    </contour>
  </outline>
</glyph>
<glyph name="horncomb.alt" format="2">
  <anchor x="-219" y="1040" name="_horn"/>
  <outline>
    <contour>
      <point x="-175" y="720" type="curve" smooth="yes"/>
      <point x="9" y="720"/>
      <point x="143" y="862"/>
      <point x="143" y="1038" type="curve" smooth="yes"/>
      <point x="143" y="1124"/>
      <point x="113" y="1220"/>
      <point x="45" y="1298" type="curve"/>
      <point x="-187" y="1182" type="line"/>
      <point x="-153" y="1132"/>
      <point x="-139" y="1084"/>
      <point x="-139" y="1046" type="curve" smooth="yes"/>
      <point x="-139" y="982"/>
      <point x="-173" y="944"/>
      <point x="-227" y="944" type="curve" smooth="yes"/>
      <point x="-251" y="944"/>
      <point x="-277" y="952"/>
      <point x="-307" y="966" type="curve"/>
      <point x="-353" y="756" type="line"/>
      <point x="-293" y="736"/>
      <point x="-235" y="720"/>
    </contour>
  </outline>
</glyph>
<glyph name="horncomb.alt_case" format="2">
  <anchor x="-204" y="1400" name="_horn"/>
  <outline>
    <contour>
      <point x="-138" y="1036" type="curve" smooth="yes"/>
      <point x="64" y="1036"/>
      <point x="212" y="1186"/>
      <point x="212" y="1374" type="curve" smooth="yes"/>
      <point x="212" y="1466"/>
      <point x="180" y="1568"/>
      <point x="110" y="1652" type="curve"/>
      <point x="-132" y="1528" type="line"/>
      <point x="-98" y="1472"/>
      <point x="-84" y="1426"/>
      <point x="-84" y="1386" type="curve" smooth="yes"/>
      <point x="-84" y="1316"/>
      <point x="-124" y="1270"/>
      <point x="-190" y="1270" type="curve" smooth="yes"/>
      <point x="-240" y="1270"/>
      <point x="-302" y="1300"/>
      <point x="-380" y="1336" type="curve"/>
      <point x="-426" y="1110" type="line"/>
      <point x="-328" y="1070"/>
      <point x="-234" y="1036"/>
    </contour>
  </outline>
</glyph>
<glyph name="horncomb.case" format="2">
  <anchor x="-296" y="1400" name="_horn"/>
  <outline>
    <contour>
      <point x="-140" y="1066" type="curve" smooth="yes"/>
      <point x="58" y="1066"/>
      <point x="206" y="1202"/>
      <point x="206" y="1378" type="curve" smooth="yes"/>
      <point x="206" y="1438"/>
      <point x="190" y="1505"/>
      <point x="155" y="1566" type="curve"/>
      <point x="-140" y="1566" type="line"/>
      <point x="-109" y="1509"/>
      <point x="-89" y="1449"/>
      <point x="-89" y="1401" type="curve" smooth="yes"/>
      <point x="-89" y="1338"/>
      <point x="-121" y="1295"/>
      <point x="-200" y="1300" type="curve" smooth="yes"/>
      <point x="-314" y="1307"/>
      <point x="-442" y="1430"/>
      <point x="-746" y="1430" type="curve"/>
      <point x="-792" y="1216" type="line"/>
      <point x="-546" y="1210"/>
      <point x="-358" y="1066"/>
    </contour>
  </outline>
</glyph>
<glyph name="macroncomb.case" format="2">
  <anchor x="-648" y="1400" name="_top"/>
  <outline>
    <contour>
      <point x="-1010" y="1564" type="line"/>
      <point x="-210" y="1564" type="line"/>
      <point x="-166" y="1800" type="line"/>
      <point x="-964" y="1800" type="line"/>
    </contour>
  </outline>
</glyph>
<glyph name="nine.ss02" format="2">
  <advance width="1272"/>
  <outline>
    <contour>
      <point x="140" y="0" type="line"/>
      <point x="568" y="0" type="line"/>
      <point x="928" y="400" type="line" smooth="yes"/>
      <point x="1078" y="568"/>
      <point x="1250" y="754"/>
      <point x="1250" y="982" type="curve" smooth="yes"/>
      <point x="1250" y="1232"/>
      <point x="1052" y="1430"/>
      <point x="748" y="1430" type="curve" smooth="yes"/>
      <point x="428" y="1430"/>
      <point x="144" y="1200"/>
      <point x="144" y="888" type="curve" smooth="yes"/>
      <point x="144" y="642"/>
      <point x="330" y="484"/>
      <point x="600" y="484" type="curve" smooth="yes"/>
      <point x="642" y="484"/>
      <point x="686" y="488"/>
      <point x="732" y="496" type="curve"/>
      <point x="706" y="616" type="line"/>
    </contour>
    <contour>
      <point x="682" y="756" type="curve" smooth="yes"/>
      <point x="586" y="756"/>
      <point x="518" y="808"/>
      <point x="518" y="910" type="curve" smooth="yes"/>
      <point x="518" y="1044"/>
      <point x="616" y="1118"/>
      <point x="716" y="1118" type="curve" smooth="yes"/>
      <point x="808" y="1118"/>
      <point x="880" y="1064"/>
      <point x="880" y="962" type="curve" smooth="yes"/>
      <point x="880" y="846"/>
      <point x="796" y="756"/>
    </contour>
  </outline>
</glyph>
<glyph name="six.ss02" format="2">
  <advance width="1318"/>
  <guideline x="211" y="505" angle="0"/>
  <outline>
    <contour>
      <point x="602" y="-30" type="curve" smooth="yes"/>
      <point x="926" y="-30"/>
      <point x="1212" y="206"/>
      <point x="1212" y="522" type="curve" smooth="yes"/>
      <point x="1212" y="800"/>
      <point x="1000" y="942"/>
      <point x="710" y="942" type="curve" smooth="yes"/>
      <point x="636" y="942"/>
      <point x="556" y="924"/>
      <point x="474" y="894" type="curve"/>
      <point x="642" y="810" type="line"/>
      <point x="1214" y="1400" type="line"/>
      <point x="784" y="1400" type="line"/>
      <point x="422" y="1010" type="line" smooth="yes"/>
      <point x="274" y="856"/>
      <point x="94" y="654"/>
      <point x="94" y="422" type="curve" smooth="yes"/>
      <point x="94" y="168"/>
      <point x="296" y="-30"/>
    </contour>
    <contour>
      <point x="638" y="286" type="curve" smooth="yes"/>
      <point x="544" y="286"/>
      <point x="466" y="344"/>
      <point x="466" y="450" type="curve" smooth="yes"/>
      <point x="466" y="568"/>
      <point x="554" y="660"/>
      <point x="670" y="660" type="curve" smooth="yes"/>
      <point x="766" y="660"/>
      <point x="840" y="606"/>
      <point x="840" y="502" type="curve" smooth="yes"/>
      <point x="840" y="364"/>
      <point x="738" y="286"/>
    </contour>
  </outline>
</glyph>
<glyph name="softsign-cy.loclBGR" format="2">
  <advance width="1199"/>
  <guideline x="-98" y="-82" angle="0"/>
  <outline>
    <contour>
      <point x="594" y="-20" type="curve" smooth="yes"/>
      <point x="878" y="-20"/>
      <point x="1118" y="168"/>
      <point x="1118" y="414" type="curve" smooth="yes"/>
      <point x="1118" y="628"/>
      <point x="944" y="776"/>
      <point x="688" y="776" type="curve" smooth="yes"/>
      <point x="592" y="776"/>
      <point x="500" y="760"/>
      <point x="372" y="674" type="curve"/>
      <point x="528" y="590" type="line"/>
      <point x="636" y="1100" type="line"/>
      <point x="198" y="914" type="line"/>
      <point x="110" y="500" type="line" smooth="yes"/>
      <point x="34" y="142"/>
      <point x="274" y="-20"/>
    </contour>
    <contour>
      <point x="600" y="268" type="curve" smooth="yes"/>
      <point x="528" y="268"/>
      <point x="466" y="312"/>
      <point x="466" y="374" type="curve" smooth="yes"/>
      <point x="466" y="446"/>
      <point x="530" y="486"/>
      <point x="610" y="486" type="curve" smooth="yes"/>
      <point x="688" y="486"/>
      <point x="750" y="446"/>
      <point x="750" y="386" type="curve" smooth="yes"/>
      <point x="750" y="304"/>
      <point x="682" y="268"/>
    </contour>
  </outline>
</glyph>
<glyph name="strokeshortcomb.case" format="2">
  <anchor x="-804" y="712" name="_bar"/>
  <outline>
    <contour>
      <point x="-1338" y="558" type="line"/>
      <point x="-332" y="558" type="line"/>
      <point x="-268" y="866" type="line"/>
      <point x="-1274" y="866" type="line"/>
    </contour>
  </outline>
</glyph>
<glyph name="three.dnom" format="2">
  <advance width="824"/>
  <outline>
    <contour>
      <point x="300" y="-20" type="curve" smooth="yes"/>
      <point x="508" y="-20"/>
      <point x="686" y="106"/>
      <point x="686" y="300" type="curve" smooth="yes"/>
      <point x="686" y="426"/>
      <point x="598" y="506"/>
      <point x="502" y="530" type="curve"/>
      <point x="742" y="720" type="line"/>
      <point x="780" y="910" type="line"/>
      <point x="180" y="910" type="line"/>
      <point x="86" y="700" type="line"/>
      <point x="438" y="700" type="line"/>
      <point x="192" y="534" type="line"/>
      <point x="224" y="380" type="line"/>
      <point x="258" y="388"/>
      <point x="290" y="390"/>
      <point x="314" y="390" type="curve" smooth="yes"/>
      <point x="394" y="390"/>
      <point x="446" y="358"/>
      <point x="446" y="300" type="curve" smooth="yes"/>
      <point x="446" y="238"/>
      <point x="386" y="196"/>
      <point x="302" y="196" type="curve" smooth="yes"/>
      <point x="206" y="196"/>
      <point x="106" y="236"/>
      <point x="62" y="296" type="curve"/>
      <point x="13" y="63" type="line"/>
      <point x="78" y="14"/>
      <point x="188" y="-20"/>
    </contour>
  </outline>
</glyph>
<glyph name="three.numr" format="2">
  <advance width="824"/>
  <outline>
    <contour>
      <point x="404" y="470" type="curve" smooth="yes"/>
      <point x="612" y="470"/>
      <point x="790" y="596"/>
      <point x="790" y="790" type="curve" smooth="yes"/>
      <point x="790" y="916"/>
      <point x="702" y="996"/>
      <point x="606" y="1020" type="curve"/>
      <point x="846" y="1210" type="line"/>
      <point x="884" y="1400" type="line"/>
      <point x="284" y="1400" type="line"/>
      <point x="190" y="1190" type="line"/>
      <point x="542" y="1190" type="line"/>
      <point x="296" y="1024" type="line"/>
      <point x="328" y="870" type="line"/>
      <point x="362" y="878"/>
      <point x="394" y="880"/>
      <point x="418" y="880" type="curve" smooth="yes"/>
      <point x="498" y="880"/>
      <point x="550" y="848"/>
      <point x="550" y="790" type="curve" smooth="yes"/>
      <point x="550" y="728"/>
      <point x="490" y="686"/>
      <point x="406" y="686" type="curve" smooth="yes"/>
      <point x="310" y="686"/>
      <point x="210" y="726"/>
      <point x="166" y="786" type="curve"/>
      <point x="117" y="553" type="line"/>
      <point x="182" y="504"/>
      <point x="292" y="470"/>
    </contour>
  </outline>
</glyph>
<glyph name="tildecomb.case" format="2">
  <anchor x="-832" y="1400" name="_top"/>
  <anchor x="-748" y="1802" name="top"/>
  <outline>
    <contour>
      <point x="-1245" y="1506" type="line"/>
      <point x="-1176" y="1565"/>
      <point x="-1093" y="1604"/>
      <point x="-1011" y="1604" type="curve" smooth="yes"/>
      <point x="-888" y="1604"/>
      <point x="-742" y="1508"/>
      <point x="-593" y="1508" type="curve" smooth="yes"/>
      <point x="-501" y="1508"/>
      <point x="-421" y="1542"/>
      <point x="-350" y="1596" type="curve"/>
      <point x="-296" y="1868" type="line"/>
      <point x="-366" y="1808"/>
      <point x="-449" y="1770"/>
      <point x="-529" y="1770" type="curve" smooth="yes"/>
      <point x="-653" y="1770"/>
      <point x="-799" y="1866"/>
      <point x="-947" y="1866" type="curve" smooth="yes"/>
      <point x="-1044" y="1866"/>
      <point x="-1121" y="1832"/>
      <point x="-1191" y="1780" type="curve"/>
    </contour>
  </outline>
</glyph>
<glyph name="tildecomb.narrow" format="2">
  <anchor x="-674" y="1040" name="_top"/>
  <anchor x="-582" y="1464" name="top"/>
  <outline>
    <contour>
      <point x="-930" y="1140" type="line"/>
      <point x="-888" y="1234"/>
      <point x="-834" y="1278"/>
      <point x="-778" y="1278" type="curve" smooth="yes"/>
      <point x="-684" y="1278"/>
      <point x="-602" y="1170"/>
      <point x="-458" y="1170" type="curve" smooth="yes"/>
      <point x="-336" y="1170"/>
      <point x="-224" y="1248"/>
      <point x="-184" y="1402" type="curve"/>
      <point x="-282" y="1572" type="line"/>
      <point x="-326" y="1478"/>
      <point x="-374" y="1436"/>
      <point x="-428" y="1436" type="curve" smooth="yes"/>
      <point x="-532" y="1436"/>
      <point x="-596" y="1544"/>
      <point x="-732" y="1544" type="curve" smooth="yes"/>
      <point x="-848" y="1544"/>
      <point x="-954" y="1462"/>
      <point x="-1036" y="1310" type="curve"/>
    </contour>
  </outline>
</glyph>
<glyph name="two.dnom" format="2">
  <advance width="858"/>
  <outline>
    <contour>
      <point x="-16" y="0" type="line"/>
      <point x="646" y="0" type="line"/>
      <point x="742" y="212" type="line"/>
      <point x="384" y="212" type="line"/>
      <point x="458" y="268" type="line" smooth="yes"/>
      <point x="646" y="410"/>
      <point x="778" y="516"/>
      <point x="778" y="674" type="curve" smooth="yes"/>
      <point x="778" y="824"/>
      <point x="656" y="930"/>
      <point x="450" y="930" type="curve" smooth="yes"/>
      <point x="367" y="930"/>
      <point x="281" y="911"/>
      <point x="202" y="875" type="curve"/>
      <point x="152" y="628" type="line"/>
      <point x="224" y="684"/>
      <point x="298" y="712"/>
      <point x="388" y="712" type="curve" smooth="yes"/>
      <point x="478" y="712"/>
      <point x="530" y="682"/>
      <point x="530" y="628" type="curve" smooth="yes"/>
      <point x="530" y="526"/>
      <point x="416" y="456"/>
      <point x="262" y="344" type="curve" smooth="yes"/>
      <point x="18" y="168" type="line"/>
    </contour>
  </outline>
</glyph>
<glyph name="two.numr" format="2">
  <advance width="858"/>
  <outline>
    <contour>
      <point x="88" y="490" type="line"/>
      <point x="750" y="490" type="line"/>
      <point x="846" y="702" type="line"/>
      <point x="488" y="702" type="line"/>
      <point x="562" y="758" type="line" smooth="yes"/>
      <point x="750" y="900"/>
      <point x="882" y="1006"/>
      <point x="882" y="1164" type="curve" smooth="yes"/>
      <point x="882" y="1314"/>
      <point x="760" y="1420"/>
      <point x="554" y="1420" type="curve" smooth="yes"/>
      <point x="471" y="1420"/>
      <point x="385" y="1401"/>
      <point x="306" y="1365" type="curve"/>
      <point x="256" y="1118" type="line"/>
      <point x="334" y="1178"/>
      <point x="408" y="1202"/>
      <point x="492" y="1202" type="curve" smooth="yes"/>
      <point x="582" y="1202"/>
      <point x="634" y="1172"/>
      <point x="634" y="1118" type="curve" smooth="yes"/>
      <point x="634" y="1016"/>
      <point x="520" y="946"/>
      <point x="366" y="834" type="curve" smooth="yes"/>
      <point x="122" y="658" type="line"/>
    </contour>
  </outline>
</glyph>
